<svg xmlns="http://www.w3.org/2000/svg" width="34.862" height="38.209" viewBox="0 0 34.862 38.209">
  <g id="zVtQJB" transform="translate(-1356.06 -891.319)">
    <g id="Grupo_138" data-name="Grupo 138" transform="translate(1356.06 891.319)">
      <path id="Caminho_3080" data-name="Caminho 3080" d="M1370.558,907.961q0-3.3,0-6.6a3.364,3.364,0,0,1,3.235-3.494,3.3,3.3,0,0,1,3.481,3.166c.014,1.707.009,3.414,0,5.12,0,.321.063.372.369.243a3.32,3.32,0,0,1,4.217,1.522c.146.277.235.366.567.213a3.328,3.328,0,0,1,4.436,1.5c.154.29.271.274.526.157a3.347,3.347,0,0,1,4.73,2.3,2.378,2.378,0,0,1,.059.575c0,3.117.033,6.233-.008,9.349a9.166,9.166,0,0,1-9.14,9.074q-1.9.028-3.8,0a7.653,7.653,0,0,1-5.519-2.348q-5.679-5.7-11.384-11.38c-1.136-1.133-1.342-2.478-.482-3.578a4.027,4.027,0,0,1,2.751-1.508,4.486,4.486,0,0,1,3.5,1.046c.689.546,1.4,1.061,2.107,1.586.089.066.176.207.292.151.137-.068.069-.234.069-.354q.007-3.375,0-6.75Zm1.753,1.228v.66q0,3.53,0,7.059a.844.844,0,0,1-.677.909.969.969,0,0,1-.824-.244c-1.365-1.025-2.724-2.057-4.1-3.065a2.557,2.557,0,0,0-3.14.038c-.617.466-.648.9-.106,1.447q1.276,1.274,2.55,2.552,4.622,4.62,9.251,9.234a5.282,5.282,0,0,0,3.284,1.5c1.3.131,2.609.037,3.914.065a9.944,9.944,0,0,0,1.966-.156,7.4,7.4,0,0,0,6-7.276c-.022-1.163,0-2.327,0-3.491,0-1.887.01-3.776-.008-5.663a1.517,1.517,0,0,0-1.375-1.523,1.563,1.563,0,0,0-1.773,1.309,7.407,7.407,0,0,0-.064,1.158.784.784,0,0,1-.822.8.868.868,0,0,1-.921-.965c-.014-.828,0-1.655-.013-2.482a1.566,1.566,0,0,0-1.773-1.475,1.632,1.632,0,0,0-1.428,1.706c-.018.788,0,1.578-.01,2.366a.8.8,0,0,1-.887.85c-.523-.014-.851-.375-.855-.993-.011-1.358.009-2.716-.011-4.073a1.578,1.578,0,0,0-2.153-1.422,1.679,1.679,0,0,0-1.056,1.693c0,1.306,0,2.612,0,3.917a.806.806,0,0,1-.9.878c-.528-.017-.847-.4-.85-1.042-.006-1.125,0-2.25,0-3.374,0-2.974.005-5.948-.008-8.922a1.577,1.577,0,0,0-1.5-1.54,1.606,1.606,0,0,0-1.645,1.347,4.3,4.3,0,0,0-.065.771Q1372.312,905.465,1372.311,909.189Z" transform="translate(-1357.328 -892.899)" fill="#f1f2f6"/>
      <path id="Caminho_3081" data-name="Caminho 3081" d="M1359.089,894.635h4.2c1.177,0,2.352-.013,3.528,0a.862.862,0,0,1,.817,1.287.9.9,0,0,1-.873.466q-2.635,0-5.272,0h-2.309l-.068.111q.818.786,1.635,1.573a.967.967,0,0,1,.353.584.863.863,0,0,1-.427.923.8.8,0,0,1-1-.112c-.437-.4-.855-.825-1.277-1.245q-.989-.984-1.97-1.976a.926.926,0,0,1,.01-1.485q1.479-1.482,2.962-2.959a3.043,3.043,0,0,1,.284-.262.848.848,0,0,1,1.189.048.879.879,0,0,1,0,1.227c-.462.488-.947.954-1.42,1.431C1359.356,894.349,1359.261,894.453,1359.089,894.635Z" transform="translate(-1356.06 -891.32)" fill="#f1f2f6"/>
      <path id="Caminho_3082" data-name="Caminho 3082" d="M1393.024,896.389h-3.209l-4.111,0c-.13,0-.259,0-.388-.006a.874.874,0,1,1,.012-1.748c1.293-.012,2.585-.007,3.878-.007,1.177,0,2.353,0,3.53,0a.43.43,0,0,0,.357-.09l-1.718-1.672a.843.843,0,0,1-.257-.948.853.853,0,0,1,1.386-.378c1.151,1.115,2.281,2.253,3.405,3.4a.8.8,0,0,1-.011,1.155q-1.674,1.7-3.376,3.37a.866.866,0,0,1-1.216-1.233c.573-.594,1.171-1.164,1.759-1.745Z" transform="translate(-1362.912 -891.319)" fill="#f1f2f6"/>
    </g>
  </g>
</svg>
