<svg xmlns="http://www.w3.org/2000/svg" width="70.416" height="70.42" viewBox="0 0 70.416 70.42">
  <g id="Grupo_1698" data-name="Grupo 1698" transform="translate(-3082.446 -2355.721)">
    <path id="Caminho_13763" data-name="Caminho 13763" d="M3111.674,2388.7l.446-.051c-.15.017-.3.032-.451.049Z" transform="translate(20.475 23.074)" fill="#0e1628"/>
    <path id="Caminho_13764" data-name="Caminho 13764" d="M3120.132,2406.254a21.114,21.114,0,1,1,14.946-6.178h0A21.072,21.072,0,0,1,3120.132,2406.254Zm0-39.7a18.582,18.582,0,1,0,13.142,31.718h0a18.576,18.576,0,0,0-13.142-31.718Z" transform="translate(11.594 5.802)" fill="#0e1628"/>
    <path id="Caminho_13765" data-name="Caminho 13765" d="M3111.852,2398a21.141,21.141,0,1,1,14.946-6.192h0A20.99,20.99,0,0,1,3111.852,2398Zm0-39.716A18.583,18.583,0,1,0,3125,2390h0a18.579,18.579,0,0,0-13.144-31.721Z" transform="translate(5.801 0)" fill="#0e1628"/>
    <path id="Caminho_13766" data-name="Caminho 13766" d="M3111.852,2414.547a21.139,21.139,0,1,1,14.946-6.192A21,21,0,0,1,3111.852,2414.547Zm0-39.719a18.579,18.579,0,1,0,13.144,5.436A18.531,18.531,0,0,0,3111.852,2374.828Z" transform="translate(5.801 11.594)" fill="#0e1628"/>
    <path id="Caminho_13767" data-name="Caminho 13767" d="M3118.53,2370.184a21.127,21.127,0,0,0-35.016,21.552l2.069-2.032a18.782,18.782,0,0,1-.586-4.575,18.586,18.586,0,1,1,5.444,13.143,19.164,19.164,0,0,1-1.431-1.622l-1.827,1.815q.685.836,1.454,1.612a21.137,21.137,0,1,0,29.893-29.892Z" transform="translate(0 5.802)" fill="#0e1628"/>
    <rect id="Retângulo_884" data-name="Retângulo 884" width="1.909" height="1.909" transform="matrix(0.551, 0.834, -0.834, 0.551, 3086.365, 2398.736)" fill="#303bfe"/>
  </g>
</svg>
