<svg xmlns="http://www.w3.org/2000/svg" width="59.04" height="70" viewBox="0 0 59.04 70">
  <g id="Grupo_1701" data-name="Grupo 1701" transform="translate(-3372.079 -2275.897)">
    <rect id="Retângulo_873" data-name="Retângulo 873" width="15.552" height="2.596" transform="translate(3394.238 2336.979)" fill="#0e1628"/>
    <rect id="Retângulo_874" data-name="Retângulo 874" width="11.03" height="2.596" transform="translate(3396.5 2343.301)" fill="#0e1628"/>
    <rect id="Retângulo_875" data-name="Retângulo 875" width="7.765" height="2.596" transform="translate(3379.711 2325.259) rotate(-44.683)" fill="#0e1628"/>
    <rect id="Retângulo_876" data-name="Retângulo 876" width="6.656" height="2.596" transform="translate(3416.929 2288.412) rotate(-44.683)" fill="#0e1628"/>
    <rect id="Retângulo_877" data-name="Retângulo 877" width="2.596" height="7.764" transform="matrix(0.711, -0.704, 0.704, 0.711, 3379.913, 2285.357)" fill="#0e1628"/>
    <rect id="Retângulo_878" data-name="Retângulo 878" width="2.596" height="6.657" transform="translate(3416.759 2322.575) rotate(-44.722)" fill="#0e1628"/>
    <rect id="Retângulo_879" data-name="Retângulo 879" width="2.597" height="7.526" transform="translate(3372.079 2306.568) rotate(-89.704)" fill="#0e1628"/>
    <rect id="Retângulo_880" data-name="Retângulo 880" width="2.597" height="6.97" transform="translate(3424.137 2306.83) rotate(-89.722)" fill="#0e1628"/>
    <rect id="Retângulo_881" data-name="Retângulo 881" width="7.827" height="2.597" transform="translate(3400.409 2283.724) rotate(-89.702)" fill="#0e1628"/>
    <path id="Caminho_13750" data-name="Caminho 13750" d="M3397.466,2282.13a19.235,19.235,0,0,0-10.169,35.562l2.555,11h3.979v-2.6h-1.916l-2.341-10.076-.482-.282a16.638,16.638,0,1,1,16.534.121l-.5.281-2.312,9.957H3401.1v2.6h3.78l2.524-10.863a19.235,19.235,0,0,0-9.937-35.7Z" transform="translate(4.496 4.556)" fill="#0e1628"/>
    <rect id="Retângulo_882" data-name="Retângulo 882" width="1.943" height="1.943" transform="translate(3400.99 2331.076)" fill="#303bfe"/>
  </g>
</svg>
