<svg xmlns="http://www.w3.org/2000/svg" width="55" height="55" viewBox="0 0 55 55">
  <g id="Grupo_1080" data-name="Grupo 1080" transform="translate(-229 -1751)">
    <circle id="Elipse_1048" data-name="Elipse 1048" cx="27.5" cy="27.5" r="27.5" transform="translate(229 1751)" fill="#303bfe"/>
    <g id="Grupo_1530" data-name="Grupo 1530" transform="translate(-3002.939 -510.276)">
      <path id="Caminho_13745" data-name="Caminho 13745" d="M3277.136,2286.909l-5.5-5.49.749-.781,5.511,5.5Z" transform="translate(-7.585 -1.903)" fill="#f1f2f6"/>
      <rect id="Ret창ngulo_864" data-name="Ret창ngulo 864" width="1.081" height="9.072" transform="translate(3247.251 2294.713) rotate(-45.6)" fill="#f1f2f6"/>
      <path id="Caminho_13746" data-name="Caminho 13746" d="M3273.755,2278.56l-4.6-4.21a1.988,1.988,0,0,0-2.772.074l-2.228,2.272.765.765,2.234-2.28a.912.912,0,0,1,1.272-.034l4.6,4.21a.915.915,0,0,1,.034,1.317l-19.228,19.514-7.818,2.023,2.1-7.607,14.688-14.983-.764-.765-14.891,15.19-2.672,9.68,9.918-2.568,19.438-19.726a2,2,0,0,0-.074-2.875Z" transform="translate(0)" fill="#f1f2f6"/>
      <rect id="Ret창ngulo_865" data-name="Ret창ngulo 865" width="0.809" height="0.809" transform="translate(3263.508 2277.638) rotate(45)" fill="#0e1628"/>
    </g>
  </g>
</svg>
