<svg xmlns="http://www.w3.org/2000/svg" width="197" height="197" viewBox="0 0 197 197">
  <g id="Grupo_2036" data-name="Grupo 2036" transform="translate(-773 -3701.115)">
    <circle id="Elipse_32" data-name="Elipse 32" cx="98.5" cy="98.5" r="98.5" transform="translate(773 3701.115)" fill="#f1f2f6"/>
    <g id="Camada_2" data-name="Camada 2" transform="translate(833.516 3761.81)">
      <g id="Camada_1" data-name="Camada 1" transform="translate(0)">
        <path id="Caminho_16" data-name="Caminho 16" d="M14.167,39.927H0L7.827,31.6H21.994Z" transform="translate(0 2.705)" fill="#0e1628"/>
        <path id="Caminho_17" data-name="Caminho 17" d="M64.777,39.927H50.61L58.437,31.6H72.6Z" transform="translate(4.332 2.705)" fill="#0e1628"/>
        <path id="Caminho_18" data-name="Caminho 18" d="M31.6,14.167V0l8.327,7.827V21.994Z" transform="translate(2.705)" fill="#0e1628"/>
        <path id="Caminho_19" data-name="Caminho 19" d="M31.6,64.777V50.61l8.327,7.827V72.6Z" transform="translate(2.705 4.332)" fill="#0e1628"/>
        <path id="Caminho_20" data-name="Caminho 20" d="M17.679,23.137,7.67,13.117l11.421-.347L29.1,22.779Z" transform="translate(0.657 1.093)" fill="#0e1628"/>
        <path id="Caminho_21" data-name="Caminho 21" d="M53.47,58.917,43.45,48.9l11.421-.347,10.02,10.02Z" transform="translate(3.719 4.156)" fill="#0e1628"/>
        <path id="Caminho_22" data-name="Caminho 22" d="M48.55,17.679,58.57,7.67l.347,11.421L48.9,29.1Z" transform="translate(4.156 0.657)" fill="#0e1628"/>
        <path id="Caminho_23" data-name="Caminho 23" d="M12.77,53.47,22.779,43.45l.358,11.421-10.02,10.02Z" transform="translate(1.093 3.719)" fill="#0e1628"/>
        <rect id="Retângulo_40" data-name="Retângulo 40" width="8.327" height="8.327" transform="translate(34.392 34.305)" fill="#303bfe"/>
      </g>
    </g>
  </g>
</svg>
