<svg xmlns="http://www.w3.org/2000/svg" width="333.081" height="17.471" viewBox="0 0 333.081 17.471">
  <g id="Grupo_62" data-name="Grupo 62" transform="translate(-5.337 -5.809)">
    <g id="Camada_2" data-name="Camada 2" transform="translate(5.337 5.809)">
      <g id="Camada_1" data-name="Camada 1">
        <path id="Caminho_11" data-name="Caminho 11" d="M10.811,1.9H0L1.785,0H12.6Z" fill="#f4f2f2"/>
        <path id="Caminho_12" data-name="Caminho 12" d="M30.651,65H19.84l1.785-1.9H32.436Z" transform="translate(-14.943 -47.525)" fill="#f4f2f2"/>
        <path id="Caminho_13" data-name="Caminho 13" d="M20.731,33.446H9.92l1.785-1.9H22.516Z" transform="translate(-7.471 -23.762)" fill="#f4f2f2"/>
        <rect id="Retângulo_33" data-name="Retângulo 33" width="1.896" height="1.896" transform="translate(0 15.575)" fill="#f4f2f2"/>
        <rect id="Retângulo_34" data-name="Retângulo 34" width="1.896" height="1.896" transform="translate(15.595)" fill="#f4f2f2"/>
      </g>
    </g>
    <g id="Camada_2-2" data-name="Camada 2" transform="translate(40.37 5.809)">
      <g id="Camada_1-2" data-name="Camada 1">
        <path id="Caminho_14" data-name="Caminho 14" d="M28.915,65.076H17.055l-1.775-1.9H27.14Z" transform="translate(-11.513 -47.605)" fill="#f4f2f2"/>
        <path id="Caminho_15" data-name="Caminho 15" d="M13.675,1.9H1.815L.04,0H11.9Z" transform="translate(-0.03)" fill="#f4f2f2"/>
        <rect id="Retângulo_35" data-name="Retângulo 35" width="1.886" height="1.896" transform="translate(0 15.575)" fill="#f4f2f2"/>
        <rect id="Retângulo_36" data-name="Retângulo 36" width="1.886" height="1.896" transform="translate(15.516 0.02)" fill="#f4f2f2"/>
        <rect id="Retângulo_37" data-name="Retângulo 37" width="1.886" height="1.896" transform="translate(0 7.783)" fill="#f4f2f2"/>
        <rect id="Retângulo_38" data-name="Retângulo 38" width="1.886" height="1.896" transform="translate(7.758 7.783)" fill="#f4f2f2"/>
        <rect id="Retângulo_39" data-name="Retângulo 39" width="1.886" height="1.896" transform="translate(15.516 7.783)" fill="#f4f2f2"/>
      </g>
    </g>
    <g id="Camada_2-3" data-name="Camada 2" transform="translate(75.277 5.809)">
      <g id="Camada_1-3" data-name="Camada 1">
        <path id="Caminho_16" data-name="Caminho 16" d="M3.217,33.491H0L1.777,31.6H4.994Z" transform="translate(0 -23.81)" fill="#f4f2f2"/>
        <path id="Caminho_17" data-name="Caminho 17" d="M53.827,33.491H50.61L52.387,31.6H55.6Z" transform="translate(-38.134 -23.81)" fill="#f4f2f2"/>
        <path id="Caminho_18" data-name="Caminho 18" d="M31.6,3.217V0l1.891,1.777V4.994Z" transform="translate(-23.81)" fill="#f4f2f2"/>
        <path id="Caminho_19" data-name="Caminho 19" d="M31.6,53.827V50.61l1.891,1.777V55.6Z" transform="translate(-23.81 -38.134)" fill="#f4f2f2"/>
        <path id="Caminho_20" data-name="Caminho 20" d="M9.943,15.124,7.67,12.849l2.593-.079,2.273,2.273Z" transform="translate(-5.779 -9.622)" fill="#f4f2f2"/>
        <path id="Caminho_21" data-name="Caminho 21" d="M45.725,50.9,43.45,48.629l2.593-.079,2.275,2.275Z" transform="translate(-32.739 -36.581)" fill="#f4f2f2"/>
        <path id="Caminho_22" data-name="Caminho 22" d="M48.55,9.943,50.825,7.67l.079,2.593-2.275,2.273Z" transform="translate(-36.581 -5.779)" fill="#f4f2f2"/>
        <path id="Caminho_23" data-name="Caminho 23" d="M12.77,45.725l2.273-2.275.081,2.593-2.275,2.275Z" transform="translate(-9.622 -32.739)" fill="#f4f2f2"/>
        <rect id="Retângulo_40" data-name="Retângulo 40" width="1.891" height="1.891" transform="translate(7.81 7.79)" fill="#f4f2f2"/>
      </g>
    </g>
    <g id="Camada_2-4" data-name="Camada 2" transform="translate(110.208 5.809)">
      <g id="Camada_1-4" data-name="Camada 1" transform="translate(0 0)">
        <rect id="Retângulo_41" data-name="Retângulo 41" width="1.896" height="1.896" transform="translate(7.797 7.788)" fill="#f4f2f2"/>
        <rect id="Retângulo_42" data-name="Retângulo 42" width="17.493" height="1.896" transform="translate(0 0)" fill="#f4f2f2"/>
        <rect id="Retângulo_43" data-name="Retângulo 43" width="17.471" height="1.896" transform="translate(17.493 0) rotate(90)" fill="#f4f2f2"/>
        <rect id="Retângulo_44" data-name="Retângulo 44" width="17.471" height="1.896" transform="translate(1.896 0) rotate(90)" fill="#f4f2f2"/>
        <rect id="Retângulo_45" data-name="Retângulo 45" width="17.493" height="1.896" transform="translate(0 15.575)" fill="#f4f2f2"/>
      </g>
    </g>
    <g id="Camada_2-5" data-name="Camada 2" transform="translate(145.118 5.809)">
      <g id="Camada_1-5" data-name="Camada 1">
        <rect id="Retângulo_46" data-name="Retângulo 46" width="1.89" height="1.89" transform="translate(0.052 15.551)" fill="#f4f2f2"/>
        <rect id="Retângulo_47" data-name="Retângulo 47" width="1.89" height="1.89" transform="translate(15.611)" fill="#f4f2f2"/>
        <path id="Caminho_24" data-name="Caminho 24" d="M24.62,62.89h9.666l1.779,1.892H26.4Z" transform="translate(-18.521 -47.312)" fill="#f4f2f2"/>
        <path id="Caminho_25" data-name="Caminho 25" d="M65.122,35.767V26.1L63.23,24.32v9.666Z" transform="translate(-47.567 -18.296)" fill="#f4f2f2"/>
        <path id="Caminho_26" data-name="Caminho 26" d="M11.494,2H1.829L.05.11H9.713Z" transform="translate(-0.038 -0.083)" fill="#f4f2f2"/>
        <path id="Caminho_27" data-name="Caminho 27" d="M0,.11V9.776l1.89,1.779V1.889Z" transform="translate(0 -0.083)" fill="#f4f2f2"/>
      </g>
    </g>
    <g id="Camada_2-6" data-name="Camada 2" transform="translate(179.646 5.809)">
      <g id="Camada_1-6" data-name="Camada 1">
        <rect id="Retângulo_48" data-name="Retângulo 48" width="1.885" height="1.894" transform="translate(10.134 9.685) rotate(180)" fill="#f4f2f2"/>
        <rect id="Retângulo_49" data-name="Retângulo 49" width="1.885" height="1.894" transform="translate(17.941 1.894) rotate(180)" fill="#f4f2f2"/>
        <rect id="Retângulo_50" data-name="Retângulo 50" width="1.885" height="1.894" transform="translate(2.383 17.471) rotate(180)" fill="#f4f2f2"/>
        <path id="Caminho_28" data-name="Caminho 28" d="M44.31,11.858,36.379,4.07H33.8l7.854,7.8Z" transform="translate(-25.925 -3.122)" fill="#f4f2f2"/>
        <path id="Caminho_29" data-name="Caminho 29" d="M10.549,45.241,2.577,37.45H0l7.893,7.8Z" transform="translate(0 -28.725)" fill="#f4f2f2"/>
      </g>
    </g>
    <g id="Camada_2-7" data-name="Camada 2" transform="translate(215.044 5.809)">
      <g id="Camada_1-7" data-name="Camada 1">
        <rect id="Retângulo_51" data-name="Retângulo 51" width="1.893" height="1.893" transform="translate(7.788 7.788)" fill="#f4f2f2"/>
        <rect id="Retângulo_52" data-name="Retângulo 52" width="1.893" height="1.893" transform="translate(7.788 15.575)" fill="#f4f2f2"/>
        <rect id="Retângulo_53" data-name="Retângulo 53" width="1.893" height="1.893" transform="translate(7.788)" fill="#f4f2f2"/>
        <path id="Caminho_30" data-name="Caminho 30" d="M0,35.833V26.152L1.893,24.37v9.681Z" transform="translate(0 -18.362)" fill="#f4f2f2"/>
        <path id="Caminho_31" data-name="Caminho 31" d="M63.18,11.553V1.872L65.076.09V9.771Z" transform="translate(-47.605 -0.068)" fill="#f4f2f2"/>
      </g>
    </g>
    <g id="Camada_2-8" data-name="Camada 2" transform="translate(249.987 5.809)">
      <g id="Camada_1-8" data-name="Camada 1">
        <path id="Caminho_32" data-name="Caminho 32" d="M63.17,35.857V26.182L65.063,24.4v9.675Z" transform="translate(-47.6 -18.386)" fill="#f4f2f2"/>
        <path id="Caminho_33" data-name="Caminho 33" d="M.02,11.757V2.082L1.913.3V9.975Z" transform="translate(-0.015 -0.226)" fill="#f4f2f2"/>
        <rect id="Retângulo_54" data-name="Retângulo 54" width="1.893" height="1.893" transform="translate(7.791 7.784)" fill="#f4f2f2"/>
        <rect id="Retângulo_55" data-name="Retângulo 55" width="1.893" height="1.893" transform="translate(0 15.566)" fill="#f4f2f2"/>
        <rect id="Retângulo_56" data-name="Retângulo 56" width="1.893" height="1.893" transform="translate(15.575)" fill="#f4f2f2"/>
      </g>
    </g>
    <g id="Camada_2-9" data-name="Camada 2" transform="translate(285.583 5.809)">
      <g id="Camada_1-9" data-name="Camada 1">
        <path id="Caminho_34" data-name="Caminho 34" d="M31.59,33.2V22.673l1.9-1.783V31.415Z" transform="translate(-23.787 -15.73)" fill="#f4f2f2"/>
        <rect id="Retângulo_57" data-name="Retângulo 57" width="1.897" height="1.897" transform="translate(7.82)" fill="#f4f2f2"/>
        <rect id="Retângulo_58" data-name="Retângulo 58" width="1.897" height="1.897" transform="translate(0 7.803)" fill="#f4f2f2"/>
        <rect id="Retângulo_59" data-name="Retângulo 59" width="1.897" height="1.897" transform="translate(0 15.562)" fill="#f4f2f2"/>
        <rect id="Retângulo_60" data-name="Retângulo 60" width="1.897" height="1.897" transform="translate(15.606 7.803)" fill="#f4f2f2"/>
        <rect id="Retângulo_61" data-name="Retângulo 61" width="1.897" height="1.897" transform="translate(15.606 15.562)" fill="#f4f2f2"/>
      </g>
    </g>
    <g id="Camada_2-10" data-name="Camada 2" transform="translate(318.792 5.809)">
      <g id="Camada_1-10" data-name="Camada 1">
        <path id="Caminho_35" data-name="Caminho 35" d="M0,8.236,8.471,0H11.21L2.822,8.247Z" fill="#f4f2f2"/>
        <path id="Caminho_36" data-name="Caminho 36" d="M41.6,8.236,33.129,0H30.39l8.388,8.247Z" transform="translate(-21.974)" fill="#f4f2f2"/>
        <rect id="Retângulo_62" data-name="Retângulo 62" width="2.002" height="2.002" transform="translate(8.803 7.244)" fill="#f4f2f2"/>
        <rect id="Retângulo_63" data-name="Retângulo 63" width="2.002" height="2.002" transform="translate(8.803 15.469)" fill="#f4f2f2"/>
        <rect id="Retângulo_64" data-name="Retângulo 64" width="2.002" height="2.002" transform="translate(0.576 15.469)" fill="#f4f2f2"/>
        <rect id="Retângulo_65" data-name="Retângulo 65" width="2.002" height="2.002" transform="translate(17.044 15.469)" fill="#f4f2f2"/>
      </g>
    </g>
  </g>
</svg>
