<svg id="clock" xmlns="http://www.w3.org/2000/svg" width="15.776" height="15.776" viewBox="0 0 15.776 15.776">
  <path id="Caminho_13891" data-name="Caminho 13891" d="M7.888,14.79a6.9,6.9,0,1,0-6.9-6.9A6.9,6.9,0,0,0,7.888,14.79Zm7.888-6.9A7.888,7.888,0,1,1,7.888,0a7.888,7.888,0,0,1,7.888,7.888Z" transform="translate(0 0)" fill="#a6bcd2" fill-rule="evenodd"/>
  <path id="Caminho_13892" data-name="Caminho 13892" d="M16.243,6.75a.493.493,0,0,1,.493.493V12.38l3.2,1.83a.493.493,0,0,1-.489.856L16,13.094a.493.493,0,0,1-.248-.428V7.243A.493.493,0,0,1,16.243,6.75Z" transform="translate(-8.848 -3.792)" fill="#a6bcd2" fill-rule="evenodd"/>
</svg>
