<svg xmlns="http://www.w3.org/2000/svg" width="71.502" height="71.5" viewBox="0 0 71.502 71.5">
  <g id="Grupo_1688" data-name="Grupo 1688" transform="translate(-3172.6 -2270.005)">
    <path id="Caminho_13842" data-name="Caminho 13842" d="M3244.1,2312.777v-14.046h-9.077a27.385,27.385,0,0,0-2.848-6.87l6.419-6.421-9.933-9.933-6.421,6.421a27.284,27.284,0,0,0-6.868-2.848V2270h-14.048v9.076a27.335,27.335,0,0,0-6.87,2.848l-6.419-6.421-9.933,9.933,6.419,6.421a27.242,27.242,0,0,0-2.849,6.87H3172.6v14.046h9.077a27.252,27.252,0,0,0,2.849,6.871l-6.419,6.42,9.933,9.933,6.419-6.419a27.353,27.353,0,0,0,6.87,2.848v9.076h14.048v-9.076a27.3,27.3,0,0,0,6.868-2.848l6.421,6.419,9.933-9.933-6.419-6.42a27.4,27.4,0,0,0,2.848-6.871Zm-11.333-1.556a24.8,24.8,0,0,1-3.286,7.935l-.552.864,6.05,6.048-6.317,6.317-6.048-6.048-.866.551a24.819,24.819,0,0,1-7.932,3.288l-1,.222v8.55h-8.934v-8.55l-1-.222a24.844,24.844,0,0,1-7.933-3.288l-.866-.549-6.046,6.046-6.317-6.317,6.048-6.05-.55-.862a24.753,24.753,0,0,1-3.288-7.935l-.224-1h-8.55v-8.932h8.55l.224-1a24.761,24.761,0,0,1,3.288-7.933l.55-.864-6.048-6.049,6.317-6.317,6.046,6.048.866-.549a24.812,24.812,0,0,1,7.933-3.289l1-.223v-8.549h8.934v8.549l1,.223a24.8,24.8,0,0,1,7.932,3.289l.866.551,6.048-6.05,6.317,6.317-6.05,6.047.552.866a24.812,24.812,0,0,1,3.286,7.933l.224,1h8.552v8.932h-8.552Z" fill="#0e1628"/>
    <path id="Caminho_13843" data-name="Caminho 13843" d="M3199.212,2282.972a13.619,13.619,0,0,0-12.156,19.813l1.926-1.892a11.093,11.093,0,1,1,4.943,5.47l-1.867,1.853a13.637,13.637,0,1,0,7.153-25.244Z" transform="translate(9.137 9.137)" fill="#0e1628"/>
    <rect id="Retângulo_975" data-name="Retângulo 975" width="1.913" height="1.913" transform="matrix(0.737, 0.675, -0.675, 0.737, 3199.321, 2312.7)" fill="#0edd97"/>
  </g>
</svg>
