<svg xmlns="http://www.w3.org/2000/svg" width="76.497" height="71.237" viewBox="0 0 76.497 71.237">
  <g id="Grupo_1693" data-name="Grupo 1693" transform="translate(-3032.289 -2278.927)">
    <path id="Caminho_13847" data-name="Caminho 13847" d="M3070.874,2323.743l-38.585-20.36,16.645-8.78,1.2,2.283-12.313,6.5,33.03,17.429,32.472-17.718-12.1-6.391,1.207-2.283,16.356,8.636Z" transform="translate(0.001 11.176)" fill="#0e1628"/>
    <path id="Caminho_13848" data-name="Caminho 13848" d="M3070.874,2332.6l-38.585-20.36,16.645-8.782,1.2,2.283-12.313,6.5,33.03,17.428,32.472-17.718-12.1-6.393,1.207-2.283,16.356,8.639Z" transform="translate(0.001 17.564)" fill="#0e1628"/>
    <path id="Caminho_13849" data-name="Caminho 13849" d="M3066.818,2314.58l-29-15.3,33.041-17.435,32.461,17.146-29.018,15.833-.011,2.949,34.489-18.819-37.922-20.027-38.575,20.353,34.5,18.207Z" transform="translate(0.001 0)" fill="#0e1628"/>
    <rect id="Retângulo_981" data-name="Retângulo 981" width="1.932" height="1.932" transform="translate(3069.572 2315.367)" fill="#0edd97"/>
  </g>
</svg>
