<svg xmlns="http://www.w3.org/2000/svg" width="110.738" height="29.603" viewBox="0 0 110.738 29.603">
  <g id="Grupo_28" data-name="Grupo 28" transform="translate(-113.008 -252.353)">
    <path id="Caminho_40" data-name="Caminho 40" d="M148.409,330.144l-2.666-1.26a.23.23,0,0,0-.31.117l-1.116,2.588a.293.293,0,0,1-.538,0L142.66,329a.23.23,0,0,0-.309-.117l-2.661,1.254a.178.178,0,0,0,0,.32l4.211,2.145a.334.334,0,0,0,.3,0l4.213-2.143A.178.178,0,0,0,148.409,330.144Z" transform="translate(-18.954 -54.558)" fill="#303bfe"/>
    <path id="Caminho_41" data-name="Caminho 41" d="M160.434,294.05l9.363,7.182a.177.177,0,0,0,.238-.259l-8.135-8.941a14.087,14.087,0,0,1-2.409-3.779h0a.178.178,0,0,0-.341.094l.6,4.523A1.783,1.783,0,0,0,160.434,294.05Z" transform="translate(-32.903 -25.523)" fill="#0e1628"/>
    <path id="Caminho_42" data-name="Caminho 42" d="M125.935,252.562l-2.586,14.85a1.732,1.732,0,0,1-.652,1.077l-9.4,7.213a.178.178,0,0,1-.253-.246l6.917-9.631a18.229,18.229,0,0,0,2.293-4.316l3.338-9.039A.178.178,0,0,1,125.935,252.562Z" transform="translate(0)" fill="#0e1628"/>
    <g id="Grupo_26" data-name="Grupo 26" transform="translate(138.119 262.645)">
      <path id="Caminho_43" data-name="Caminho 43" d="M207.824,291.073c-.073-.2-.2-.53-.365-.53s-.293.329-.366.53l-4.02,10.159h-2.54l4.824-11.493a1.93,1.93,0,0,1,2.1-1.443,1.965,1.965,0,0,1,2.1,1.443l4.824,11.493h-2.54Z" transform="translate(-200.534 -288.276)" fill="#0e1628"/>
      <path id="Caminho_44" data-name="Caminho 44" d="M356.962,294.837c0,5.171-1.809,6.541-6.577,6.541-4.732,0-6.56-1.37-6.56-6.541s1.827-6.541,6.56-6.541C355.153,288.3,356.962,289.666,356.962,294.837Zm-6.577,4.623c3.142,0,4.093-.968,4.093-4.623s-.95-4.623-4.093-4.623-4.075.968-4.075,4.623S347.242,299.46,350.385,299.46Z" transform="translate(-302.715 -288.276)" fill="#0e1628"/>
      <path id="Caminho_45" data-name="Caminho 45" d="M399.692,289.611a1.582,1.582,0,0,1,1.772-1.315,1.636,1.636,0,0,1,1.772,1.315l2.375,9.738c.036.128.146.311.274.311.164,0,.256-.238.292-.384l2.54-10.835h2.448l-3.088,11.145c-.274,1.005-.6,1.791-2.065,1.791a1.853,1.853,0,0,1-2.046-1.645l-2.247-8.277c-.055-.237-.128-.347-.238-.347-.128,0-.183.11-.256.347l-2.265,8.277a1.834,1.834,0,0,1-2.028,1.645c-1.462,0-1.809-.785-2.083-1.791l-3.07-11.145h2.448l2.54,10.835c.037.128.073.384.274.384.128,0,.219-.183.274-.311Z" transform="translate(-336.912 -288.276)" fill="#0e1628"/>
      <g id="Grupo_23" data-name="Grupo 23" transform="translate(76.401 0)">
        <path id="Caminho_46" data-name="Caminho 46" d="M466.834,296.13v-7.9h1.05v7.9Z" transform="translate(-466.834 -288.225)" fill="#303bfe"/>
        <path id="Caminho_47" data-name="Caminho 47" d="M476.249,296.13v-7.047h-3.2v-.858h7.442v.858h-3.2v7.047Z" transform="translate(-471.269 -288.225)" fill="#303bfe"/>
      </g>
      <g id="Grupo_24" data-name="Grupo 24" transform="translate(14.577 0)">
        <path id="Caminho_48" data-name="Caminho 48" d="M257.323,294.675l1.608.028c1.351,0,1.555-.907,1.555-2.388s-.278-2.147-1.833-2.147h-3.942a.925.925,0,0,0-.926.926v10.087h-2.443V290.168c0-1.481.777-1.943,1.888-1.943h6.534c2.406,0,3.239,1.5,3.239,4.091a7.92,7.92,0,0,1-.268,2.217,1.858,1.858,0,0,1-2.468,1.181l-2.373-.783" transform="translate(-251.342 -288.225)" fill="#0e1628"/>
        <path id="Caminho_49" data-name="Caminho 49" d="M268.829,312.5l4.511,4.715h3.147l-6.376-6.293a.741.741,0,0,0-.529-.213h0A1.059,1.059,0,0,0,268.829,312.5Z" transform="translate(-263.601 -304.258)" fill="#0e1628"/>
      </g>
      <g id="Grupo_25" data-name="Grupo 25" transform="translate(27.582 0)">
        <path id="Caminho_50" data-name="Caminho 50" d="M302.653,294.675l1.608.028c1.351,0,1.555-.907,1.555-2.388s-.278-2.147-1.832-2.147H300.04a.925.925,0,0,0-.925.926v10.087h-2.444V290.168c0-1.481.777-1.943,1.888-1.943h6.534c2.406,0,3.239,1.5,3.239,4.091a7.93,7.93,0,0,1-.268,2.217,1.858,1.858,0,0,1-2.468,1.181l-2.373-.783" transform="translate(-296.671 -288.225)" fill="#0e1628"/>
        <path id="Caminho_51" data-name="Caminho 51" d="M314.159,312.5l4.511,4.715h3.146l-6.376-6.293a.739.739,0,0,0-.529-.213h0A1.059,1.059,0,0,0,314.159,312.5Z" transform="translate(-308.93 -304.258)" fill="#0e1628"/>
      </g>
    </g>
    <g id="Grupo_27" data-name="Grupo 27" transform="translate(138.119 276.709)">
      <path id="Caminho_52" data-name="Caminho 52" d="M200.58,343.68H202.4c.247,0,.345-.172.345-.457,0-.172-.037-.345-.364-.452l-1.291-.429a.73.73,0,0,1-.559-.806.673.673,0,0,1,.741-.764h1.766v.354h-1.687c-.247,0-.368.116-.368.419a.4.4,0,0,0,.308.448l1.231.41c.433.145.676.308.676.82,0,.443-.172.811-.676.811H200.58Z" transform="translate(-200.534 -339.761)" fill="#303bfe"/>
      <path id="Caminho_53" data-name="Caminho 53" d="M216.035,342.309c0,1.249-.424,1.668-1.626,1.668s-1.626-.419-1.626-1.668.433-1.668,1.626-1.668S216.035,341.06,216.035,342.309Zm-1.626,1.314c.927,0,1.174-.326,1.174-1.314S215.336,341,214.408,341s-1.174.331-1.174,1.314S213.481,343.624,214.408,343.624Z" transform="translate(-209.268 -339.668)" fill="#303bfe"/>
      <path id="Caminho_54" data-name="Caminho 54" d="M227.9,344.034c-.238,0-.415-.093-.415-.391v-2.87h.433v2.712c0,.145.047.2.205.2h1.808v.354Z" transform="translate(-219.751 -339.761)" fill="#303bfe"/>
      <path id="Caminho_55" data-name="Caminho 55" d="M240.55,342.892v-2.12h.434v2.162c0,.862-.517,1.137-1.333,1.137s-1.333-.275-1.333-1.137v-2.162h.434v2.12c0,.606.247.825.9.825S240.55,343.5,240.55,342.892Z" transform="translate(-227.478 -339.761)" fill="#303bfe"/>
      <path id="Caminho_56" data-name="Caminho 56" d="M252.472,344.034h-.14c-1.091,0-1.361-.727-1.361-1.636s.266-1.626,1.384-1.626h1.263v.354H252.5c-.815,0-1.076.387-1.076,1.272s.252,1.282,1.053,1.282h1.193v.354h-1.2Z" transform="translate(-236.501 -339.761)" fill="#303bfe"/>
      <path id="Caminho_57" data-name="Caminho 57" d="M264.066,340.641c-1.193,0-1.626.419-1.626,1.668s.433,1.669,1.626,1.669,1.626-.419,1.626-1.669S265.269,340.641,264.066,340.641Zm0,2.983c-.927,0-1.174-.326-1.174-1.314s.247-1.314,1.174-1.314,1.175.331,1.175,1.314S264.994,343.624,264.066,343.624Z" transform="translate(-244.679 -339.668)" fill="#303bfe"/>
      <path id="Caminho_58" data-name="Caminho 58" d="M277.6,344.034a.406.406,0,0,1-.457-.461v-2.339c0-.349.172-.461.457-.461h2.018v.354h-1.827c-.182,0-.214.056-.214.219v.843h1.995v.354h-1.995v.913c0,.163.033.224.214.224h1.845v.354Z" transform="translate(-255.162 -339.761)" fill="#303bfe"/>
      <path id="Caminho_59" data-name="Caminho 59" d="M288.672,343.68h1.822c.247,0,.345-.172.345-.457,0-.172-.037-.345-.363-.452l-1.291-.429a.729.729,0,0,1-.559-.806.673.673,0,0,1,.741-.764h1.766v.354h-1.687c-.247,0-.368.116-.368.419a.4.4,0,0,0,.308.448l1.23.41c.433.145.676.308.676.82,0,.443-.172.811-.676.811h-1.943Z" transform="translate(-263.352 -339.761)" fill="#303bfe"/>
      <path id="Caminho_60" data-name="Caminho 60" d="M307.016,344.034a.406.406,0,0,1-.457-.461v-2.339c0-.349.172-.461.457-.461h2.018v.354h-1.827c-.182,0-.214.056-.214.219v.843h1.995v.354h-1.995v.913c0,.163.032.224.214.224h1.845v.354Z" transform="translate(-276.14 -339.761)" fill="#303bfe"/>
      <path id="Caminho_61" data-name="Caminho 61" d="M320.785,343.6c-.094.228-.173.373-.4.373s-.308-.144-.4-.373l-.969-2.419c-.019-.047-.051-.1-.084-.1s-.061.046-.061.093l.009,2.763h-.433v-2.931c0-.238.158-.368.415-.368.28,0,.378.159.466.373l.974,2.414c.023.061.042.112.084.112s.061-.051.084-.112l.974-2.414c.084-.214.182-.373.461-.373.256,0,.419.131.419.368v2.931h-.434l.009-2.763c0-.084-.042-.093-.061-.093s-.065.056-.084.1Z" transform="translate(-284.62 -339.668)" fill="#303bfe"/>
      <path id="Caminho_62" data-name="Caminho 62" d="M341.276,344.034v-2.908h-1.319v-.354h3.071v.354h-1.319v2.908Z" transform="translate(-299.957 -339.761)" fill="#303bfe"/>
      <path id="Caminho_63" data-name="Caminho 63" d="M353.75,344.034a.406.406,0,0,1-.457-.461v-2.339c0-.349.172-.461.457-.461h2.018v.354h-1.827c-.182,0-.214.056-.214.219v.843h1.994v.354h-1.994v.913c0,.163.032.224.214.224h1.845v.354Z" transform="translate(-309.466 -339.761)" fill="#303bfe"/>
      <path id="Caminho_64" data-name="Caminho 64" d="M366.22,344.034c-1.091,0-1.361-.727-1.361-1.636s.266-1.626,1.384-1.626h1.263v.354h-1.118c-.816,0-1.076.387-1.076,1.272s.252,1.282,1.053,1.282h1.189v.354Z" transform="translate(-317.714 -339.761)" fill="#303bfe"/>
      <path id="Caminho_65" data-name="Caminho 65" d="M380.226,343.568a.366.366,0,0,1-.391.41.454.454,0,0,1-.429-.256l-1.538-2.46c-.033-.056-.061-.079-.093-.079s-.065.019-.065.093v2.665h-.424v-2.913a.365.365,0,0,1,.4-.387.443.443,0,0,1,.419.238l1.552,2.479c.023.037.042.079.088.079s.056-.051.056-.079v-2.679h.424Z" transform="translate(-326.576 -339.668)" fill="#303bfe"/>
      <path id="Caminho_66" data-name="Caminho 66" d="M394.151,342.309c0,1.249-.424,1.668-1.626,1.668s-1.626-.419-1.626-1.668.434-1.668,1.626-1.668S394.151,341.06,394.151,342.309Zm-1.626,1.314c.927,0,1.174-.326,1.174-1.314S393.452,341,392.524,341s-1.174.331-1.174,1.314S391.6,343.624,392.524,343.624Z" transform="translate(-336.283 -339.668)" fill="#303bfe"/>
      <path id="Caminho_67" data-name="Caminho 67" d="M406.014,344.034c-.238,0-.415-.093-.415-.391v-2.87h.434v2.712c0,.145.046.2.2.2h1.808v.354Z" transform="translate(-346.766 -339.761)" fill="#303bfe"/>
      <path id="Caminho_68" data-name="Caminho 68" d="M418.875,342.309c0,1.249-.424,1.668-1.626,1.668s-1.626-.419-1.626-1.668.433-1.668,1.626-1.668S418.875,341.06,418.875,342.309Zm-1.626,1.314c.927,0,1.174-.326,1.174-1.314S418.176,341,417.248,341s-1.175.331-1.175,1.314S416.321,343.624,417.248,343.624Z" transform="translate(-353.913 -339.668)" fill="#303bfe"/>
      <path id="Caminho_69" data-name="Caminho 69" d="M432.911,343.61c0,.3-.149.424-.429.424H431.3c-1.058,0-1.3-.722-1.3-1.631s.242-1.631,1.361-1.631h1.477v.354H431.5c-.816,0-1.053.391-1.053,1.277s.238,1.277.988,1.277h.825c.163,0,.214-.056.214-.219v-.974h.434Z" transform="translate(-364.165 -339.761)" fill="#303bfe"/>
      <path id="Caminho_70" data-name="Caminho 70" d="M443.513,344.034v-3.262h.433v3.262Z" transform="translate(-373.802 -339.761)" fill="#303bfe"/>
      <path id="Caminho_71" data-name="Caminho 71" d="M448.732,341c.1-.228.2-.359.448-.359s.359.135.452.359l1.235,2.94h-.457l-.368-.885h-1.729l-.363.885h-.457Zm-.289,1.7h1.468l-.615-1.5c-.028-.065-.061-.158-.117-.158s-.084.093-.112.158Z" transform="translate(-376.641 -339.668)" fill="#303bfe"/>
      <rect id="Ret창ngulo_69" data-name="Ret창ngulo 69" width="1.799" height="0.317" transform="translate(18.488)" fill="#303bfe"/>
      <rect id="Ret창ngulo_70" data-name="Ret창ngulo 70" width="1.367" height="0.317" transform="translate(15.557 4.93)" fill="#303bfe"/>
    </g>
  </g>
</svg>
