<svg xmlns="http://www.w3.org/2000/svg" width="155.901" height="165.954" viewBox="0 0 155.901 165.954">
  <g id="Grupo_244" data-name="Grupo 244" transform="translate(-24 -149.699)">
    <path id="Caminho_40" data-name="Caminho 40" d="M196.482,337.132,179.285,329a1.486,1.486,0,0,0-2,.755l-7.2,16.69a1.891,1.891,0,0,1-3.471,0L159.4,329.784a1.484,1.484,0,0,0-1.993-.753l-17.161,8.089a1.149,1.149,0,0,0-.031,2.063l27.161,13.835a2.157,2.157,0,0,0,1.962,0L196.513,339.2A1.15,1.15,0,0,0,196.482,337.132Z" transform="translate(-66.405 -37.602)" fill="#303bfe"/>
    <path id="Caminho_41" data-name="Caminho 41" d="M167.439,326.226l60.387,46.32a1.139,1.139,0,0,0,1.536-1.67l-52.467-57.663a90.848,90.848,0,0,1-15.538-24.37h0a1.15,1.15,0,0,0-2.2.608l3.884,29.17A11.5,11.5,0,0,0,167.439,326.226Z" transform="translate(-49.772 -72.22)" fill="#f1f2f6"/>
    <path id="Caminho_42" data-name="Caminho 42" d="M196.383,253.7l-16.676,95.77a11.169,11.169,0,0,1-4.206,6.946l-60.631,46.519a1.15,1.15,0,0,1-1.634-1.584l44.616-62.117A117.56,117.56,0,0,0,172.64,311.4l21.53-58.294A1.151,1.151,0,0,1,196.383,253.7Z" transform="translate(-89.008 -102.654)" fill="#f1f2f6"/>
  </g>
</svg>
