<svg xmlns="http://www.w3.org/2000/svg" width="23.416" height="23.416" viewBox="0 0 23.416 23.416">
  <path id="facebook" d="M19.069,26.416V17.348h3.044l.456-3.533h-3.5V11.558c0-1.023.284-1.721,1.753-1.721h1.871V6.676a25.045,25.045,0,0,0-2.728-.14c-2.7,0-4.543,1.648-4.543,4.671v2.607H12.366v3.533h3.053v9.068H4.293A1.292,1.292,0,0,1,3,25.123V4.293A1.292,1.292,0,0,1,4.293,3H25.123a1.292,1.292,0,0,1,1.293,1.293V25.123a1.292,1.292,0,0,1-1.293,1.293Z" transform="translate(-3 -3)" fill="#f1f2f6" fill-rule="evenodd"/>
</svg>
