<svg id="mail" xmlns="http://www.w3.org/2000/svg" width="19.852" height="15.797" viewBox="0 0 19.852 15.797">
  <path id="Caminho_84" data-name="Caminho 84" d="M4.511,8.36a1.1,1.1,0,0,1,1.1-1.1H23.248a1.1,1.1,0,0,1,1.1,1.1V20.848a2.206,2.206,0,0,1-2.206,2.206H6.706A2.206,2.206,0,0,1,4.5,20.848V8.717a1.067,1.067,0,0,1,.011-.154Zm2.195,2.453V20.848h15.44V10.813l-5.38,5.38a3.308,3.308,0,0,1-4.678,0L6.706,10.81ZM8.439,9.427H20.412l-5.205,5.205a1.1,1.1,0,0,1-1.561,0L8.44,9.427Z" transform="translate(-4.5 -7.257)" fill="#f1f2f6" fill-rule="evenodd"/>
</svg>
