<svg id="clock" xmlns="http://www.w3.org/2000/svg" width="11.109" height="11.109" viewBox="0 0 11.109 11.109">
  <path id="Caminho_76" data-name="Caminho 76" d="M5.555,10.415a4.86,4.86,0,1,0-4.86-4.86A4.86,4.86,0,0,0,5.555,10.415Zm5.555-4.86A5.555,5.555,0,1,1,5.555,0a5.555,5.555,0,0,1,5.555,5.555Z" fill="#f1f2f6" fill-rule="evenodd"/>
  <path id="Caminho_77" data-name="Caminho 77" d="M16.1,6.75a.347.347,0,0,1,.347.347v3.618L18.7,12a.347.347,0,0,1-.344.6l-2.43-1.389a.347.347,0,0,1-.175-.3V7.1A.347.347,0,0,1,16.1,6.75Z" transform="translate(-10.89 -4.667)" fill="#f1f2f6" fill-rule="evenodd"/>
</svg>
