<svg id="Texto" xmlns="http://www.w3.org/2000/svg" width="22" height="22" viewBox="0 0 22 22">
  <circle id="Elipse_25" data-name="Elipse 25" cx="11" cy="11" r="11" fill="#f1f2f6" opacity="0.34"/>
  <path id="text-align-left" d="M16.523,8.9H6.7a.7.7,0,0,1,0-1.4h9.821a.7.7,0,1,1,0,1.4Zm-2.806,2.806H6.7a.7.7,0,0,1,0-1.4h7.015a.7.7,0,0,1,0,1.4Zm2.806,2.806H6.7a.7.7,0,1,1,0-1.4h9.821a.7.7,0,1,1,0,1.4Zm-2.806,2.806H6.7a.7.7,0,1,1,0-1.4h7.015a.7.7,0,0,1,0,1.4Z" transform="translate(-0.612 -1.5)" fill="#f1f2f6" fill-rule="evenodd"/>
</svg>
