<svg id="Grupo_886" data-name="Grupo 886" xmlns="http://www.w3.org/2000/svg" width="347.327" height="284.037" viewBox="0 0 347.327 284.037">
  <g id="Grupo_855" data-name="Grupo 855" transform="translate(41.61 65.998)" opacity="0.4">
    <path id="Caminho_12590" data-name="Caminho 12590" d="M697.736,144.822l-26.251-15.156,26.25-15.155,26.251,15.156Zm-24.392-15.156,24.392,14.083,24.391-14.082-24.392-14.083Z" transform="translate(-418.274 -114.509)" fill="#fff"/>
    <path id="Caminho_12591" data-name="Caminho 12591" d="M635.536,144.821l-26.252-15.155,26.251-15.156,26.251,15.156Zm-24.392-15.155,24.392,14.082,24.391-14.082-24.392-14.083Z" transform="translate(-406.716 -114.508)" fill="#fff"/>
    <path id="Caminho_12592" data-name="Caminho 12592" d="M666.636,162.777l-26.251-15.156,26.25-15.155,26.251,15.156Zm-24.392-15.156L666.636,161.7l24.391-14.082-24.392-14.083Z" transform="translate(-412.495 -117.845)" fill="#fff"/>
    <path id="Caminho_12593" data-name="Caminho 12593" d="M697.737,180.733l-26.251-15.156,26.25-15.155,26.251,15.156Zm-24.393-15.156,24.393,14.083,24.391-14.082L697.736,151.5Z" transform="translate(-418.274 -121.181)" fill="#fff"/>
    <path id="Caminho_12594" data-name="Caminho 12594" d="M573.335,144.821l-26.25-15.156,26.25-15.155,26.251,15.156Zm-24.392-15.156,24.392,14.083,24.392-14.082-24.392-14.083Z" transform="translate(-395.158 -114.508)" fill="#fff"/>
    <path id="Caminho_12595" data-name="Caminho 12595" d="M604.436,162.777l-26.251-15.156,26.25-15.155,26.251,15.155Zm-24.392-15.156L604.436,161.7l24.391-14.083-24.392-14.082Z" transform="translate(-400.937 -117.845)" fill="#fff"/>
    <path id="Caminho_12596" data-name="Caminho 12596" d="M635.537,180.733l-26.252-15.156,26.251-15.156,26.251,15.156Zm-24.392-15.156,24.392,14.083,24.391-14.083-24.392-14.083Z" transform="translate(-406.716 -121.181)" fill="#fff"/>
    <path id="Caminho_12597" data-name="Caminho 12597" d="M666.637,198.688l-26.251-15.155,26.25-15.156,26.251,15.156Zm-24.392-15.155,24.392,14.082,24.391-14.082L666.636,169.45Z" transform="translate(-412.495 -124.518)" fill="#fff"/>
    <path id="Caminho_12598" data-name="Caminho 12598" d="M697.737,216.645l-26.251-15.157,26.251-15.155,26.251,15.156Zm-24.392-15.157,24.392,14.083,24.392-14.082-24.392-14.083Z" transform="translate(-418.274 -127.854)" fill="#fff"/>
    <path id="Caminho_12599" data-name="Caminho 12599" d="M511.135,144.82l-26.251-15.156,26.25-15.155,26.251,15.156Zm-24.392-15.156,24.392,14.083,24.391-14.082-24.392-14.083Z" transform="translate(-383.6 -114.508)" fill="#fff"/>
    <path id="Caminho_12600" data-name="Caminho 12600" d="M542.236,162.776,515.985,147.62l26.25-15.155,26.251,15.156ZM517.844,147.62,542.236,161.7l24.391-14.082-24.392-14.083Z" transform="translate(-389.379 -117.845)" fill="#fff"/>
    <path id="Caminho_12601" data-name="Caminho 12601" d="M573.336,180.733l-26.251-15.157,26.25-15.155,26.251,15.156Zm-24.392-15.157,24.392,14.083,24.391-14.082-24.392-14.083Z" transform="translate(-395.158 -121.181)" fill="#fff"/>
    <path id="Caminho_12602" data-name="Caminho 12602" d="M604.437,198.688l-26.251-15.156,26.25-15.155,26.251,15.156Zm-24.392-15.156,24.392,14.083,24.391-14.082L604.436,169.45Z" transform="translate(-400.937 -124.518)" fill="#fff"/>
    <path id="Caminho_12603" data-name="Caminho 12603" d="M635.537,216.645l-26.251-15.157,26.251-15.155,26.251,15.155Zm-24.393-15.157,24.393,14.083,24.391-14.083-24.391-14.082Z" transform="translate(-406.716 -127.854)" fill="#fff"/>
    <path id="Caminho_12604" data-name="Caminho 12604" d="M666.638,234.6l-26.251-15.157,26.25-15.156,26.251,15.156Zm-24.392-15.157,24.392,14.083,24.391-14.083-24.392-14.083Z" transform="translate(-412.495 -131.191)" fill="#fff"/>
    <path id="Caminho_12605" data-name="Caminho 12605" d="M697.738,252.556,671.487,237.4l26.251-15.157L723.989,237.4ZM673.347,237.4l24.392,14.081L722.13,237.4l-24.392-14.083Z" transform="translate(-418.274 -134.527)" fill="#fff"/>
    <path id="Caminho_12606" data-name="Caminho 12606" d="M448.935,144.82l-26.251-15.156,26.25-15.155,26.251,15.155Zm-24.392-15.156,24.392,14.083,24.391-14.083-24.392-14.082Z" transform="translate(-372.042 -114.508)" fill="#fff"/>
    <path id="Caminho_12607" data-name="Caminho 12607" d="M480.036,162.776,453.784,147.62l26.251-15.156,26.251,15.156ZM455.643,147.62,480.036,161.7l24.391-14.083-24.392-14.083Z" transform="translate(-377.821 -117.845)" fill="#fff"/>
    <path id="Caminho_12608" data-name="Caminho 12608" d="M511.136,180.732l-26.251-15.156,26.25-15.156,26.251,15.156Zm-24.392-15.156,24.392,14.082,24.391-14.082-24.392-14.083Z" transform="translate(-383.6 -121.181)" fill="#fff"/>
    <path id="Caminho_12609" data-name="Caminho 12609" d="M542.237,198.688l-26.251-15.157,26.25-15.155,26.251,15.156Zm-24.392-15.157,24.392,14.083,24.392-14.082-24.392-14.083Z" transform="translate(-389.379 -124.518)" fill="#fff"/>
    <path id="Caminho_12610" data-name="Caminho 12610" d="M573.337,216.644l-26.251-15.157,26.25-15.155,26.25,15.156Zm-24.392-15.157,24.392,14.083,24.391-14.082-24.392-14.082Z" transform="translate(-395.158 -127.854)" fill="#fff"/>
    <path id="Caminho_12611" data-name="Caminho 12611" d="M604.438,234.6l-26.251-15.157,26.25-15.155,26.251,15.156Zm-24.392-15.157,24.392,14.083,24.391-14.082-24.392-14.083Z" transform="translate(-400.937 -131.191)" fill="#fff"/>
    <path id="Caminho_12612" data-name="Caminho 12612" d="M635.539,252.556,609.287,237.4l26.251-15.156L661.789,237.4ZM611.146,237.4l24.393,14.082,24.39-14.081-24.391-14.083Z" transform="translate(-406.716 -134.527)" fill="#fff"/>
    <path id="Caminho_12613" data-name="Caminho 12613" d="M666.639,270.512l-26.251-15.156,26.25-15.156,26.251,15.156Zm-24.392-15.156,24.392,14.082,24.391-14.082-24.392-14.082Z" transform="translate(-412.495 -137.864)" fill="#fff"/>
    <path id="Caminho_12614" data-name="Caminho 12614" d="M697.74,288.468l-26.252-15.156,26.251-15.157,26.251,15.157Zm-24.392-15.156,24.392,14.083,24.392-14.083-24.392-14.083Z" transform="translate(-418.274 -141.2)" fill="#fff"/>
    <path id="Caminho_12615" data-name="Caminho 12615" d="M386.735,144.819l-26.251-15.156,26.25-15.155,26.251,15.156Zm-24.392-15.156,24.392,14.083,24.391-14.082-24.392-14.083Z" transform="translate(-360.484 -114.508)" fill="#fff"/>
    <path id="Caminho_12616" data-name="Caminho 12616" d="M417.835,162.775l-26.251-15.156,26.25-15.155,26.252,15.156Zm-24.392-15.156L417.835,161.7l24.391-14.082-24.392-14.083Z" transform="translate(-366.263 -117.845)" fill="#fff"/>
    <path id="Caminho_12617" data-name="Caminho 12617" d="M448.936,180.732l-26.251-15.157,26.25-15.155,26.251,15.156Zm-24.392-15.157,24.392,14.083,24.391-14.082-24.392-14.083Z" transform="translate(-372.042 -121.181)" fill="#fff"/>
    <path id="Caminho_12618" data-name="Caminho 12618" d="M480.036,198.688l-26.251-15.157,26.251-15.155,26.251,15.155Zm-24.392-15.157,24.392,14.083,24.391-14.083-24.392-14.082Z" transform="translate(-377.821 -124.518)" fill="#fff"/>
    <path id="Caminho_12619" data-name="Caminho 12619" d="M511.137,216.644l-26.251-15.157,26.25-15.156,26.251,15.156Zm-24.392-15.157,24.392,14.083,24.391-14.083L511.136,187.4Z" transform="translate(-383.6 -127.854)" fill="#fff"/>
    <path id="Caminho_12620" data-name="Caminho 12620" d="M542.238,234.6l-26.252-15.156,26.251-15.156,26.251,15.156Zm-24.392-15.156,24.392,14.082,24.391-14.082-24.392-14.082Z" transform="translate(-389.379 -131.191)" fill="#fff"/>
    <path id="Caminho_12621" data-name="Caminho 12621" d="M573.338,252.555,547.087,237.4l26.25-15.156L599.588,237.4ZM548.946,237.4l24.392,14.082L597.729,237.4l-24.392-14.083Z" transform="translate(-395.158 -134.527)" fill="#fff"/>
    <path id="Caminho_12622" data-name="Caminho 12622" d="M604.439,270.511l-26.251-15.156,26.25-15.156,26.251,15.157Zm-24.392-15.156,24.392,14.082,24.391-14.081-24.392-14.083Z" transform="translate(-400.937 -137.864)" fill="#fff"/>
    <path id="Caminho_12623" data-name="Caminho 12623" d="M635.54,288.467l-26.252-15.156,26.251-15.156,26.251,15.157Zm-24.392-15.156,24.392,14.083,24.39-14.082-24.391-14.083Z" transform="translate(-406.716 -141.2)" fill="#fff"/>
    <path id="Caminho_12624" data-name="Caminho 12624" d="M666.64,306.423l-26.251-15.156,26.25-15.156,26.251,15.157Zm-24.392-15.156L666.64,305.35l24.391-14.082-24.392-14.083Z" transform="translate(-412.496 -144.537)" fill="#fff"/>
    <path id="Caminho_12625" data-name="Caminho 12625" d="M697.74,324.379l-26.251-15.156,26.251-15.155,26.251,15.155Zm-24.391-15.156,24.391,14.083,24.392-14.083L697.74,295.141Z" transform="translate(-418.274 -147.874)" fill="#fff"/>
    <path id="Caminho_12626" data-name="Caminho 12626" d="M386.736,180.731l-26.251-15.156,26.25-15.156,26.251,15.156Zm-24.392-15.156,24.392,14.082,24.391-14.082-24.392-14.083Z" transform="translate(-360.484 -121.181)" fill="#fff"/>
    <path id="Caminho_12627" data-name="Caminho 12627" d="M417.836,198.687,391.585,183.53l26.25-15.155,26.252,15.156ZM393.444,183.53l24.392,14.083,24.391-14.082-24.392-14.083Z" transform="translate(-366.263 -124.517)" fill="#fff"/>
    <path id="Caminho_12628" data-name="Caminho 12628" d="M448.937,216.643l-26.251-15.157,26.25-15.155,26.251,15.156Zm-24.392-15.157,24.392,14.083,24.391-14.082L448.936,187.4Z" transform="translate(-372.042 -127.854)" fill="#fff"/>
    <path id="Caminho_12629" data-name="Caminho 12629" d="M480.038,234.6l-26.252-15.157,26.251-15.155,26.251,15.156Zm-24.393-15.157,24.393,14.083,24.39-14.082-24.391-14.082Z" transform="translate(-377.821 -131.191)" fill="#fff"/>
    <path id="Caminho_12630" data-name="Caminho 12630" d="M511.138,252.555,484.887,237.4l26.25-15.156L537.388,237.4ZM486.746,237.4l24.392,14.082L535.529,237.4l-24.392-14.082Z" transform="translate(-383.6 -134.527)" fill="#fff"/>
    <path id="Caminho_12631" data-name="Caminho 12631" d="M542.239,270.511l-26.252-15.156L542.238,240.2l26.251,15.157Zm-24.392-15.156,24.392,14.082,24.392-14.082-24.392-14.083Z" transform="translate(-389.379 -137.864)" fill="#fff"/>
    <path id="Caminho_12632" data-name="Caminho 12632" d="M573.338,288.466l-26.25-15.155,26.25-15.157,26.252,15.157Zm-24.392-15.155,24.392,14.082,24.391-14.082-24.392-14.083Z" transform="translate(-395.158 -141.2)" fill="#fff"/>
    <path id="Caminho_12633" data-name="Caminho 12633" d="M604.44,306.422l-26.251-15.156,26.25-15.156,26.251,15.157Zm-24.392-15.156,24.392,14.083,24.391-14.082-24.392-14.083Z" transform="translate(-400.938 -144.536)" fill="#fff"/>
    <path id="Caminho_12634" data-name="Caminho 12634" d="M635.541,324.378l-26.252-15.156,26.251-15.155,26.251,15.156Zm-24.392-15.156,24.392,14.083,24.391-14.082L635.54,295.14Z" transform="translate(-406.716 -147.873)" fill="#fff"/>
    <path id="Caminho_12635" data-name="Caminho 12635" d="M666.64,342.334l-26.25-15.156,26.25-15.155,26.25,15.156Zm-24.391-15.156,24.391,14.083,24.391-14.082L666.64,313.1Z" transform="translate(-412.496 -151.21)" fill="#fff"/>
    <path id="Caminho_12636" data-name="Caminho 12636" d="M697.741,360.29l-26.252-15.156,26.251-15.155,26.251,15.156Zm-24.392-15.156,24.392,14.083,24.391-14.082L697.74,331.052Z" transform="translate(-418.274 -154.547)" fill="#fff"/>
    <path id="Caminho_12637" data-name="Caminho 12637" d="M386.737,216.643l-26.251-15.157,26.25-15.156,26.251,15.156Zm-24.392-15.157,24.392,14.083,24.391-14.083L386.736,187.4Z" transform="translate(-360.485 -127.854)" fill="#fff"/>
    <path id="Caminho_12638" data-name="Caminho 12638" d="M417.837,234.6l-26.251-15.156,26.25-15.156,26.251,15.156Zm-24.392-15.156,24.392,14.082,24.391-14.082L417.836,205.36Z" transform="translate(-366.263 -131.19)" fill="#fff"/>
    <path id="Caminho_12639" data-name="Caminho 12639" d="M448.938,252.554,422.687,237.4l26.25-15.155L475.188,237.4ZM424.546,237.4l24.392,14.083L473.329,237.4l-24.392-14.083Z" transform="translate(-372.042 -134.527)" fill="#fff"/>
    <path id="Caminho_12640" data-name="Caminho 12640" d="M480.039,270.51l-26.251-15.156L480.038,240.2l26.251,15.157Zm-24.393-15.156,24.393,14.083,24.391-14.082-24.391-14.083Z" transform="translate(-377.822 -137.864)" fill="#fff"/>
    <path id="Caminho_12641" data-name="Caminho 12641" d="M511.139,288.466,484.888,273.31l26.25-15.156,26.251,15.157ZM486.747,273.31l24.392,14.083,24.391-14.082-24.392-14.083Z" transform="translate(-383.601 -141.2)" fill="#fff"/>
    <path id="Caminho_12642" data-name="Caminho 12642" d="M542.24,306.422l-26.252-15.156,26.251-15.156,26.251,15.156Zm-24.392-15.156,24.392,14.083,24.391-14.083-24.392-14.082Z" transform="translate(-389.379 -144.536)" fill="#fff"/>
    <path id="Caminho_12643" data-name="Caminho 12643" d="M573.34,324.378l-26.251-15.156,26.25-15.156,26.252,15.156Zm-24.392-15.156L573.34,323.3l24.391-14.083-24.392-14.083Z" transform="translate(-395.159 -147.873)" fill="#fff"/>
    <path id="Caminho_12644" data-name="Caminho 12644" d="M604.44,342.333l-26.25-15.155,26.25-15.156,26.251,15.156Zm-24.391-15.155L604.44,341.26l24.392-14.082L604.44,313.1Z" transform="translate(-400.938 -151.21)" fill="#fff"/>
    <path id="Caminho_12645" data-name="Caminho 12645" d="M635.541,360.289l-26.252-15.156,26.252-15.155,26.25,15.156Zm-24.392-15.156,24.392,14.083,24.391-14.082-24.391-14.083Z" transform="translate(-406.716 -154.546)" fill="#fff"/>
    <path id="Caminho_12646" data-name="Caminho 12646" d="M386.738,252.554,360.486,237.4l26.251-15.155L412.988,237.4ZM362.345,237.4l24.392,14.083L411.129,237.4l-24.392-14.081Z" transform="translate(-360.485 -134.527)" fill="#fff"/>
    <path id="Caminho_12647" data-name="Caminho 12647" d="M417.838,270.51l-26.251-15.156,26.25-15.157,26.251,15.157Zm-24.392-15.156,24.392,14.083,24.391-14.083-24.392-14.083Z" transform="translate(-366.264 -137.863)" fill="#fff"/>
    <path id="Caminho_12648" data-name="Caminho 12648" d="M448.939,288.465,422.688,273.31l26.25-15.157,26.251,15.157ZM424.547,273.31l24.392,14.082L473.33,273.31l-24.392-14.083Z" transform="translate(-372.043 -141.2)" fill="#fff"/>
    <path id="Caminho_12649" data-name="Caminho 12649" d="M480.04,306.421l-26.251-15.156,26.251-15.155,26.251,15.156Zm-24.392-15.156,24.392,14.083,24.39-14.082-24.391-14.083Z" transform="translate(-377.822 -144.536)" fill="#fff"/>
    <path id="Caminho_12650" data-name="Caminho 12650" d="M511.14,324.377l-26.251-15.156,26.25-15.155,26.251,15.156Zm-24.392-15.156L511.14,323.3l24.391-14.082-24.392-14.083Z" transform="translate(-383.601 -147.873)" fill="#fff"/>
    <path id="Caminho_12651" data-name="Caminho 12651" d="M542.241,342.333l-26.252-15.156,26.251-15.155,26.251,15.156Zm-24.392-15.156,24.392,14.083,24.391-14.082L542.24,313.1Z" transform="translate(-389.38 -151.21)" fill="#fff"/>
    <path id="Caminho_12652" data-name="Caminho 12652" d="M573.34,360.289l-26.25-15.156,26.25-15.155,26.251,15.155Zm-24.391-15.156,24.391,14.083,24.391-14.083L573.34,331.051Z" transform="translate(-395.159 -154.546)" fill="#fff"/>
    <path id="Caminho_12653" data-name="Caminho 12653" d="M386.739,288.465l-26.252-15.156,26.251-15.156,26.251,15.157Zm-24.392-15.156,24.392,14.083L411.13,273.31l-24.392-14.083Z" transform="translate(-360.485 -141.2)" fill="#fff"/>
    <path id="Caminho_12654" data-name="Caminho 12654" d="M417.839,306.421l-26.251-15.156,26.25-15.155,26.252,15.155Zm-24.392-15.156,24.392,14.083,24.391-14.083-24.392-14.082Z" transform="translate(-366.264 -144.536)" fill="#fff"/>
    <path id="Caminho_12655" data-name="Caminho 12655" d="M448.94,324.377l-26.251-15.156,26.25-15.156,26.251,15.156Zm-24.392-15.156L448.94,323.3l24.391-14.083-24.392-14.083Z" transform="translate(-372.043 -147.873)" fill="#fff"/>
    <path id="Caminho_12656" data-name="Caminho 12656" d="M480.041,342.332l-26.252-15.155,26.251-15.156,26.251,15.156Zm-24.392-15.155,24.392,14.082,24.39-14.082L480.04,313.094Z" transform="translate(-377.822 -151.21)" fill="#fff"/>
    <path id="Caminho_12657" data-name="Caminho 12657" d="M511.14,360.288l-26.25-15.156,26.25-15.155,26.251,15.156Zm-24.391-15.156,24.391,14.083,24.392-14.082L511.14,331.05Z" transform="translate(-383.601 -154.546)" fill="#fff"/>
    <path id="Caminho_12658" data-name="Caminho 12658" d="M386.74,324.376,360.488,309.22l26.251-15.155,26.251,15.156ZM362.348,309.22,386.74,323.3l24.391-14.082-24.392-14.083Z" transform="translate(-360.485 -147.873)" fill="#fff"/>
    <path id="Caminho_12659" data-name="Caminho 12659" d="M417.84,342.332l-26.251-15.156,26.25-15.155,26.252,15.156Zm-24.392-15.156,24.392,14.083,24.391-14.082-24.392-14.083Z" transform="translate(-366.264 -151.21)" fill="#fff"/>
    <path id="Caminho_12660" data-name="Caminho 12660" d="M448.941,360.288,422.69,345.132l26.25-15.155,26.251,15.155Zm-24.392-15.156,24.392,14.083,24.391-14.083L448.94,331.05Z" transform="translate(-372.043 -154.546)" fill="#fff"/>
    <path id="Caminho_12661" data-name="Caminho 12661" d="M386.741,360.287l-26.252-15.156,26.251-15.155,26.251,15.156Zm-24.392-15.156,24.392,14.083,24.391-14.082L386.74,331.049Z" transform="translate(-360.485 -154.546)" fill="#fff"/>
  </g>
  <g id="Grupo_856" data-name="Grupo 856" transform="translate(0 129.81)" opacity="0.5">
    <path id="Caminho_12662" data-name="Caminho 12662" d="M310.612,222.136a1.236,1.236,0,0,1-1.094-1.808,13.894,13.894,0,0,1,5.045-5.55,6.573,6.573,0,0,1,3.556-.983c.05,0,.1,0,.151,0,1.565,0,3.479-1.186,5.155-3.205a12.224,12.224,0,0,1,3.209-2.783,6.5,6.5,0,0,1,3.555-.984c1.632.077,3.576-1.117,5.305-3.2a12.077,12.077,0,0,1,3.209-2.783,6.573,6.573,0,0,1,3.557-.983c1.569.107,3.574-1.117,5.305-3.2a12.2,12.2,0,0,1,3.209-2.783,5.657,5.657,0,0,1,5.088-.633,1.236,1.236,0,0,1-.986,2.267,3.3,3.3,0,0,0-2.867.506,9.76,9.76,0,0,0-2.544,2.221c-2.258,2.721-4.959,4.194-7.329,4.093a4,4,0,0,0-2.2.655,9.779,9.779,0,0,0-2.544,2.222c-2.258,2.72-4.962,4.189-7.328,4.091a4.045,4.045,0,0,0-2.2.656,9.734,9.734,0,0,0-2.543,2.22c-2.258,2.721-4.951,4.2-7.329,4.093a4.106,4.106,0,0,0-2.2.655,11.381,11.381,0,0,0-4.092,4.555A1.235,1.235,0,0,1,310.612,222.136Z" transform="translate(-309.377 -192.884)" fill="#fff"/>
  </g>
  <g id="Grupo_857" data-name="Grupo 857" transform="translate(190.283 222.346)">
    <path id="Caminho_12663" data-name="Caminho 12663" d="M547.841,324.623a5.253,5.253,0,0,1-2.376,4.117c-1.314.758-2.377.144-2.377-1.372a5.251,5.251,0,0,1,2.377-4.116C546.777,322.493,547.841,323.108,547.841,324.623Z" transform="translate(-543.088 -309.583)" fill="#fff" opacity="0.2"/>
    <path id="Caminho_12664" data-name="Caminho 12664" d="M557.3,319.161a5.25,5.25,0,0,1-2.377,4.116c-1.312.758-2.376.144-2.376-1.372a5.255,5.255,0,0,1,2.376-4.117C556.239,317.031,557.3,317.645,557.3,319.161Z" transform="translate(-544.846 -308.568)" fill="#fff" opacity="0.4"/>
    <path id="Caminho_12665" data-name="Caminho 12665" d="M566.764,313.7a5.255,5.255,0,0,1-2.376,4.116c-1.312.758-2.377.143-2.377-1.372a5.253,5.253,0,0,1,2.377-4.117C565.7,311.568,566.764,312.182,566.764,313.7Z" transform="translate(-546.604 -307.553)" fill="#fff" opacity="0.7"/>
    <path id="Caminho_12666" data-name="Caminho 12666" d="M576.226,308.235a5.253,5.253,0,0,1-2.377,4.117c-1.312.758-2.377.143-2.377-1.372a5.254,5.254,0,0,1,2.377-4.116C575.162,306.1,576.226,306.72,576.226,308.235Z" transform="translate(-548.362 -306.538)" fill="#fff"/>
  </g>
  <g id="Grupo_858" data-name="Grupo 858" transform="translate(308.186 149.098)">
    <path id="Caminho_12667" data-name="Caminho 12667" d="M692.653,232.218a5.253,5.253,0,0,1-2.377,4.117c-1.313.757-2.377.143-2.377-1.373a5.251,5.251,0,0,1,2.377-4.116C691.589,230.088,692.653,230.7,692.653,232.218Z" transform="translate(-687.899 -219.165)" fill="#fff" opacity="0.7"/>
    <path id="Caminho_12668" data-name="Caminho 12668" d="M700.705,227.569a5.252,5.252,0,0,1-2.376,4.116c-1.313.758-2.377.144-2.377-1.372a5.254,5.254,0,0,1,2.377-4.116C699.641,225.439,700.705,226.053,700.705,227.569Z" transform="translate(-689.395 -218.302)" fill="#fff"/>
    <path id="Caminho_12669" data-name="Caminho 12669" d="M692.653,222.92a5.253,5.253,0,0,1-2.377,4.116c-1.313.757-2.377.143-2.377-1.373a5.251,5.251,0,0,1,2.377-4.116C691.589,220.79,692.653,221.4,692.653,222.92Z" transform="translate(-687.899 -217.438)" fill="#fff" opacity="0.2"/>
    <path id="Caminho_12670" data-name="Caminho 12670" d="M700.705,218.271a5.251,5.251,0,0,1-2.376,4.116c-1.313.758-2.377.144-2.377-1.372a5.253,5.253,0,0,1,2.377-4.117C699.641,216.141,700.705,216.755,700.705,218.271Z" transform="translate(-689.395 -216.574)" fill="#fff" opacity="0.4"/>
  </g>
  <path id="Caminho_12671" data-name="Caminho 12671" d="M415.915,340a9.108,9.108,0,0,0-2.322,2c-.109-4.577-3.393-6.407-7.438-4.071a13.521,13.521,0,0,0-3.576,3.119c-1.8-3.148-5.531-3.878-9.855-1.382-6.079,3.511-11.008,12.047-11.008,19.067a13.118,13.118,0,0,0,.11,1.641,4.149,4.149,0,0,0-3.082.622,11.642,11.642,0,0,0-5.267,9.123c0,3.359,2.358,4.721,5.267,3.041l37.171-21.461a11.191,11.191,0,0,0,5.063-8.77C420.979,339.692,418.712,338.383,415.915,340Z" transform="translate(-321.288 -89.836)" fill="#fff" opacity="0.5"/>
  <path id="Caminho_12672" data-name="Caminho 12672" d="M681.252,36.539a9.088,9.088,0,0,0-2.322,2c-.109-4.578-3.393-6.407-7.438-4.072a13.532,13.532,0,0,0-3.576,3.12c-1.8-3.148-5.531-3.879-9.855-1.382-6.079,3.51-11.008,12.047-11.008,19.067a13.1,13.1,0,0,0,.11,1.641,4.149,4.149,0,0,0-3.082.622,11.641,11.641,0,0,0-5.267,9.123c0,3.359,2.358,4.721,5.267,3.041l37.171-21.461a11.193,11.193,0,0,0,5.064-8.77C686.317,36.233,684.049,34.925,681.252,36.539Z" transform="translate(-370.593 -33.447)" fill="#fff" opacity="0.5"/>
  <path id="Caminho_12673" data-name="Caminho 12673" d="M621.293,200.443,541.9,154.471c-4.312-2.5-11.851-2.2-16.838.675L358.451,251.033c-4.987,2.87-5.535,7.222-1.222,9.72l79.388,45.973c4.313,2.5,11.851,2.2,16.839-.675l166.614-95.887C625.058,207.293,625.605,202.941,621.293,200.443Z" transform="translate(-317.728 -55.621)" fill="#fff" opacity="0.34"/>
  <g id="Grupo_872" data-name="Grupo 872" transform="translate(30.032 56.774)">
    <g id="Grupo_863" data-name="Grupo 863" transform="translate(0 0)">
      <g id="Grupo_859" data-name="Grupo 859">
        <path id="Caminho_12674" data-name="Caminho 12674" d="M626.172,150.62,564.74,115.045a34.757,34.757,0,0,1-4.171,2.813c-8.444,4.875-19.628,7.2-30.688,6.977h0l-6.669-6.272v-6.445l-.05.052v12.216a55.338,55.338,0,0,1-21.1-6.528q-1.464-.845-2.749-1.751L351.882,200.952c-6.71,3.862-7.447,9.716-1.645,13.076l82.62,47.845c5.8,3.36,15.945,2.954,22.655-.908L624.527,163.7C631.237,159.835,631.973,153.98,626.172,150.62Z" transform="translate(-346.275 -104.84)" fill="#fff"/>
        <path id="Caminho_12675" data-name="Caminho 12675" d="M443.432,171.288,351.84,224c-.327.187-.626.384-.924.58l-4.6-5.383-.033,11.989.019-.007c-.091,2.2,1.175,4.324,3.889,5.9l82.62,47.845a20.47,20.47,0,0,0,10.456,2.261Z" transform="translate(-346.268 -115.835)" fill="#fff" opacity="0.89"/>
        <path id="Caminho_12676" data-name="Caminho 12676" d="M443.655,299.178a16.333,16.333,0,0,1-8.057-1.891l-79.389-45.973c-2.328-1.348-3.608-3.28-3.605-5.439,0-2.495,1.764-4.938,4.831-6.7l166.615-95.887c5.455-3.14,13.467-3.436,18.236-.673l79.389,45.974c2.329,1.347,3.609,3.279,3.606,5.438,0,2.495-1.764,4.938-4.831,6.7L453.835,296.614A20.88,20.88,0,0,1,443.655,299.178ZM534.27,143.54a18.269,18.269,0,0,0-8.826,2.169L358.829,241.6c-2.145,1.235-3.427,2.837-3.428,4.284,0,1.432,1.2,2.43,2.21,3.014L437,294.867c3.853,2.232,10.924,1.921,15.442-.677L619.055,198.3c2.145-1.234,3.427-2.836,3.428-4.283,0-1.432-1.2-2.43-2.21-3.013l-79.388-45.974A13.514,13.514,0,0,0,534.27,143.54Z" transform="translate(-347.441 -110.155)" fill="#fff"/>
        <path id="Caminho_12677" data-name="Caminho 12677" d="M397.43,274.077l4.758,2.747c.632.365,1.144-.023,1.144-.866h0a2.74,2.74,0,0,0-1.144-2.186l-4.758-2.747c-.633-.365-1.145.022-1.145.865h0A2.74,2.74,0,0,0,397.43,274.077Z" transform="translate(-355.558 -134.343)" fill="#707071"/>
        <path id="Caminho_12678" data-name="Caminho 12678" d="M542.99,115.835c6.71-3.862,16.853-4.268,22.654-.908L647.1,162.1c1.648-1.805,5.106-5.617,5.106-5.617l-.039,11.727,0,0c.123,2.644-1.759,5.46-5.548,7.64L477.6,273.117a26.13,26.13,0,0,1-12.2,3.169l.161-115.894Z" transform="translate(-368.402 -104.939)" fill="#fff" opacity="0.4"/>
        <path id="Caminho_12679" data-name="Caminho 12679" d="M432.783,273.439l-82.621-47.845c-2.992-1.732-4.231-4.13-3.823-6.574.147,1.985,1.42,3.866,3.886,5.295l82.621,47.845c5.8,3.36,15.944,2.954,22.655-.908l169.015-97.269c3.249-1.87,5.084-4.207,5.468-6.5.2,2.685-1.673,5.562-5.531,7.783L455.438,272.532C448.727,276.394,438.584,276.8,432.783,273.439Z" transform="translate(-346.263 -115.128)" fill="#0edd97"/>
        <path id="Caminho_12680" data-name="Caminho 12680" d="M621.293,150.844,541.9,104.872c-4.312-2.5-11.851-2.2-16.838.674L358.451,201.433c-4.987,2.87-5.535,7.222-1.222,9.72l79.388,45.973c4.313,2.5,11.851,2.2,16.839-.674l166.614-95.887C625.058,157.693,625.605,153.342,621.293,150.844Z" transform="translate(-347.761 -103.179)" fill="#0edd97"/>
      </g>
      <g id="Grupo_861" data-name="Grupo 861" transform="translate(41.511 95.661)">
        <path id="Caminho_12681" data-name="Caminho 12681" d="M467.177,255.081l-56.021-32.344,3.576-2.065,56.021,32.344Z" transform="translate(-399.833 -220.673)" fill="#fff"/>
        <path id="Caminho_12682" data-name="Caminho 12682" d="M425.614,247.143l-28.366-16.377,3.576-2.064,28.366,16.377Z" transform="translate(-397.248 -222.165)" fill="#fff"/>
        <path id="Caminho_12683" data-name="Caminho 12683" d="M446.9,259.43l-9.2-5.312,3.576-2.064,9.2,5.312Z" transform="translate(-404.764 -226.504)" fill="#fff" opacity="0.7"/>
        <path id="Caminho_12684" data-name="Caminho 12684" d="M463.955,269.28l-9.2-5.312,3.576-2.064,9.2,5.311Z" transform="translate(-407.934 -228.334)" fill="#fff" opacity="0.7"/>
        <path id="Caminho_12685" data-name="Caminho 12685" d="M427.223,240.043,404.2,226.752l3.576-2.065L430.8,237.979Z" transform="translate(-398.541 -221.419)" fill="#fff" opacity="0.7"/>
        <path id="Caminho_12686" data-name="Caminho 12686" d="M461.739,259.97l-23.022-13.291,3.576-2.064,23.021,13.291Z" transform="translate(-404.954 -225.121)" fill="#fff" opacity="0.4"/>
        <g id="Grupo_860" data-name="Grupo 860" transform="translate(34.705 3.53)">
          <path id="Caminho_12687" data-name="Caminho 12687" d="M444.91,227.916a4.608,4.608,0,0,1-4.171,0,1.271,1.271,0,0,1,0-2.408,4.609,4.609,0,0,1,4.172,0A1.271,1.271,0,0,1,444.91,227.916Z" transform="translate(-439.875 -225.008)" fill="#fff" opacity="0.1"/>
          <path id="Caminho_12688" data-name="Caminho 12688" d="M452.566,232.336a4.61,4.61,0,0,1-4.171,0,1.271,1.271,0,0,1,0-2.408,4.611,4.611,0,0,1,4.172,0A1.271,1.271,0,0,1,452.566,232.336Z" transform="translate(-441.297 -225.83)" fill="#fff" opacity="0.4"/>
          <path id="Caminho_12689" data-name="Caminho 12689" d="M460.222,236.755a4.608,4.608,0,0,1-4.171,0,1.271,1.271,0,0,1,0-2.408,4.61,4.61,0,0,1,4.172,0A1.271,1.271,0,0,1,460.222,236.755Z" transform="translate(-442.72 -226.651)" fill="#fff" opacity="0.6"/>
          <path id="Caminho_12690" data-name="Caminho 12690" d="M467.878,241.175a4.608,4.608,0,0,1-4.171,0,1.271,1.271,0,0,1,0-2.408,4.609,4.609,0,0,1,4.171,0A1.271,1.271,0,0,1,467.878,241.175Z" transform="translate(-444.143 -227.472)" fill="#fff" opacity="0.8"/>
          <path id="Caminho_12691" data-name="Caminho 12691" d="M475.534,245.6a4.608,4.608,0,0,1-4.171,0,1.272,1.272,0,0,1,0-2.409,4.615,4.615,0,0,1,4.172,0A1.272,1.272,0,0,1,475.534,245.6Z" transform="translate(-445.565 -228.294)" fill="#fff"/>
        </g>
      </g>
      <g id="Grupo_862" data-name="Grupo 862" transform="translate(216.241 40.457)">
        <path id="Caminho_12692" data-name="Caminho 12692" d="M628.418,160.432l-9.432-5.446,3.666-2.117,9.433,5.446Z" transform="translate(-613.181 -152.87)" fill="#fff"/>
        <path id="Caminho_12693" data-name="Caminho 12693" d="M644.55,169.746l-9.433-5.446,3.666-2.117,9.432,5.446Z" transform="translate(-616.179 -154.6)" fill="#fff" opacity="0.7"/>
        <path id="Caminho_12694" data-name="Caminho 12694" d="M624.991,166.685,611.857,159.1l3.666-2.117,13.134,7.583Z" transform="translate(-611.857 -153.635)" fill="#fff" opacity="0.7"/>
        <path id="Caminho_12695" data-name="Caminho 12695" d="M638.258,174.345l-5.763-3.327,3.666-2.117,5.763,3.327Z" transform="translate(-615.691 -155.849)" fill="#fff" opacity="0.7"/>
      </g>
    </g>
    <g id="Grupo_871" data-name="Grupo 871" transform="translate(88.732 39.221)">
      <g id="Grupo_870" data-name="Grupo 870" opacity="0.55">
        <path id="Caminho_12696" data-name="Caminho 12696" d="M537.116,159.259l-6.956-4.016,2.14-1.236,6.955,4.016Z" transform="translate(-469.167 -151.845)" fill="#fff"/>
        <g id="Grupo_864" data-name="Grupo 864" transform="translate(64.739)">
          <path id="Caminho_12697" data-name="Caminho 12697" d="M560.442,167.415,534.76,152.587l2.14-1.236,25.682,14.828Z" transform="translate(-534.76 -151.351)" fill="#fff"/>
          <path id="Caminho_12698" data-name="Caminho 12698" d="M579.877,178.636l-9.631-5.56,2.14-1.236,9.631,5.56Z" transform="translate(-541.354 -155.158)" fill="#fff"/>
          <path id="Caminho_12699" data-name="Caminho 12699" d="M555.9,170.1l-13.911-8.032,2.14-1.236,13.911,8.032Z" transform="translate(-536.104 -153.114)" fill="#fff"/>
        </g>
        <path id="Caminho_12700" data-name="Caminho 12700" d="M592.459,192.261l-9.216-5.321,9.216-5.32,9.215,5.32Zm-5.766-5.321,5.766,3.329,5.766-3.329-5.766-3.328Z" transform="translate(-479.031 -156.976)" fill="#fff"/>
        <path id="Caminho_12701" data-name="Caminho 12701" d="M522,167.985l-6.956-4.016,2.14-1.236,6.956,4.016Z" transform="translate(-466.359 -153.466)" fill="#fff"/>
        <g id="Grupo_865" data-name="Grupo 865" transform="translate(52.968 6.796)">
          <path id="Caminho_12702" data-name="Caminho 12702" d="M531,167.112l-10.7-6.178,2.14-1.236,10.7,6.178Z" transform="translate(-520.303 -159.698)" fill="#fff"/>
          <path id="Caminho_12703" data-name="Caminho 12703" d="M551.836,179.139,537.389,170.8l2.14-1.236,14.446,8.34Z" transform="translate(-523.478 -161.531)" fill="#fff"/>
          <path id="Caminho_12704" data-name="Caminho 12704" d="M550.417,184.39,526.875,170.8l2.14-1.236,23.542,13.592Z" transform="translate(-521.524 -161.531)" fill="#fff"/>
        </g>
        <path id="Caminho_12705" data-name="Caminho 12705" d="M577.345,200.986l-9.216-5.32,9.216-5.32,9.215,5.32Zm-5.767-5.32L577.345,199l5.766-3.329-5.766-3.329Z" transform="translate(-476.222 -158.597)" fill="#fff"/>
        <path id="Caminho_12706" data-name="Caminho 12706" d="M517.175,181.892l-16.586-9.576,2.14-1.236,16.586,9.576Z" transform="translate(-463.672 -155.017)" fill="#fff"/>
        <g id="Grupo_866" data-name="Grupo 866" transform="translate(40.662 13.901)">
          <path id="Caminho_12707" data-name="Caminho 12707" d="M513.215,174.294l-8.026-4.634,2.14-1.236,8.026,4.634Z" transform="translate(-505.189 -168.424)" fill="#fff"/>
          <path id="Caminho_12708" data-name="Caminho 12708" d="M531.83,185.041l-12.841-7.414,2.14-1.236,12.841,7.414Z" transform="translate(-507.754 -169.905)" fill="#fff"/>
          <path id="Caminho_12709" data-name="Caminho 12709" d="M546.608,193.573l-8.561-4.942,2.14-1.236,8.561,4.943Z" transform="translate(-511.295 -171.949)" fill="#fff"/>
          <path id="Caminho_12710" data-name="Caminho 12710" d="M538.158,194.006l-13.911-8.032,2.14-1.236L540.3,192.77Z" transform="translate(-508.73 -171.456)" fill="#fff"/>
        </g>
        <path id="Caminho_12711" data-name="Caminho 12711" d="M562.23,209.713l-9.215-5.321,9.215-5.32,9.216,5.32Zm-5.766-5.321,5.766,3.329L568,204.392l-5.766-3.328Z" transform="translate(-473.413 -160.219)" fill="#fff"/>
        <path id="Caminho_12712" data-name="Caminho 12712" d="M492.431,185.058l-6.956-4.016,2.14-1.236,6.956,4.016Z" transform="translate(-460.863 -156.639)" fill="#fff"/>
        <g id="Grupo_867" data-name="Grupo 867" transform="translate(28.357 21.005)">
          <path id="Caminho_12713" data-name="Caminho 12713" d="M508.8,189.2l-18.726-10.812,2.14-1.236,18.727,10.812Z" transform="translate(-490.075 -177.15)" fill="#fff"/>
          <path id="Caminho_12714" data-name="Caminho 12714" d="M528.132,200.359l-11.771-6.8,2.14-1.235,11.771,6.8Z" transform="translate(-494.959 -179.971)" fill="#fff"/>
        </g>
        <path id="Caminho_12715" data-name="Caminho 12715" d="M547.116,218.438l-9.215-5.321,9.215-5.32,9.215,5.321Zm-5.766-5.321,5.766,3.33,5.766-3.329-5.766-3.33Z" transform="translate(-470.606 -161.84)" fill="#fff"/>
        <path id="Caminho_12716" data-name="Caminho 12716" d="M477.316,193.784l-6.956-4.016,2.14-1.236,6.955,4.016Z" transform="translate(-458.055 -158.26)" fill="#fff"/>
        <g id="Grupo_868" data-name="Grupo 868" transform="translate(16.051 28.11)">
          <path id="Caminho_12717" data-name="Caminho 12717" d="M490.477,196.071l-15.516-8.958,2.14-1.236,15.516,8.958Z" transform="translate(-474.961 -185.877)" fill="#fff"/>
          <path id="Caminho_12718" data-name="Caminho 12718" d="M510.925,207.876l-12.306-7.1,2.14-1.236,12.306,7.1Z" transform="translate(-479.357 -188.415)" fill="#fff"/>
          <path id="Caminho_12719" data-name="Caminho 12719" d="M487.953,199.925l-6.42-3.707,2.14-1.236,6.42,3.707Z" transform="translate(-476.182 -187.569)" fill="#fff"/>
        </g>
        <path id="Caminho_12720" data-name="Caminho 12720" d="M532,227.164l-9.216-5.32L532,216.524l9.215,5.321Zm-5.766-5.32L532,225.174l5.766-3.329L532,218.515Z" transform="translate(-467.796 -163.462)" fill="#fff"/>
        <path id="Caminho_12721" data-name="Caminho 12721" d="M462.2,202.51l-6.956-4.016,2.14-1.236,6.956,4.016Z" transform="translate(-455.247 -159.882)" fill="#fff"/>
        <g id="Grupo_869" data-name="Grupo 869" transform="translate(3.745 35.215)">
          <path id="Caminho_12722" data-name="Caminho 12722" d="M476.433,205.415l-16.586-9.576,2.14-1.236,16.586,9.576Z" transform="translate(-459.847 -194.603)" fill="#fff"/>
          <path id="Caminho_12723" data-name="Caminho 12723" d="M488.977,212.657l-4.815-2.78,2.14-1.236,4.815,2.78Z" transform="translate(-464.365 -197.211)" fill="#fff"/>
          <path id="Caminho_12724" data-name="Caminho 12724" d="M498.177,217.968l-4.815-2.78,2.14-1.235,4.815,2.78Z" transform="translate(-466.074 -198.198)" fill="#fff"/>
          <path id="Caminho_12725" data-name="Caminho 12725" d="M472.961,208.722l-5.886-3.4,2.14-1.236,5.886,3.4Z" transform="translate(-461.19 -196.365)" fill="#fff"/>
        </g>
        <path id="Caminho_12726" data-name="Caminho 12726" d="M517.545,235.512l-9.216-5.321,9.216-5.32,9.215,5.32Zm-5.766-5.321,5.766,3.329,5.766-3.329-5.766-3.328Z" transform="translate(-465.11 -165.013)" fill="#fff"/>
      </g>
      <path id="Caminho_12727" data-name="Caminho 12727" d="M519.318,231.082h6.521c.943,0,1.707-.442,1.707-.986s-.765-.986-1.708-.986h-6.52v-3.765c0-.545-.764-.986-1.708-.986s-1.707.441-1.707.986v3.765h-6.52c-.944,0-1.708.441-1.707.985s.764.986,1.707.986h6.52v3.764c0,.545.764.986,1.708.986s1.708-.441,1.708-.986Z" transform="translate(-464.989 -164.918)" fill="#fff"/>
      <path id="Caminho_12728" data-name="Caminho 12728" d="M549.69,213.63h6.521c.943,0,1.707-.441,1.707-.986s-.764-.986-1.707-.986H549.69v-3.765c0-.544-.764-.986-1.707-.986s-1.708.442-1.707.986v3.765h-6.52c-.943,0-1.708.441-1.708.986s.765.986,1.708.986h6.521v3.765c0,.544.764.985,1.707.985s1.707-.441,1.707-.985Z" transform="translate(-470.632 -161.675)" fill="#fff"/>
      <path id="Caminho_12729" data-name="Caminho 12729" d="M564.961,204.74h6.52c.943,0,1.708-.441,1.708-.986s-.765-.985-1.708-.985H564.96V199c0-.545-.764-.986-1.707-.986s-1.707.441-1.707.986v3.765h-6.521c-.943,0-1.708.441-1.708.986s.764.986,1.708.986h6.521V208.5c0,.545.765.986,1.707.986s1.708-.441,1.708-.986Z" transform="translate(-473.47 -160.023)" fill="#fff"/>
    </g>
  </g>
  <g id="Grupo_879" data-name="Grupo 879" transform="translate(173.705 10.562)">
    <g id="Grupo_874" data-name="Grupo 874" transform="translate(10.324 0)">
      <g id="Grupo_873" data-name="Grupo 873" transform="translate(11.626 7.921)" opacity="0.8">
        <path id="Caminho_12730" data-name="Caminho 12730" d="M549.686,56.149Z" transform="translate(-549.686 -56.149)" fill="#fff"/>
        <path id="Caminho_12731" data-name="Caminho 12731" d="M599.546,85.82l-12.707.2-4.374-3.564c-7-3.845-17.742-4.1-25.228-.751l-7.551-7.1h0V56.149l7.551,7.1L569.1,57.494s16.334,5,17.182,5.212.555,4.859.555,4.859l12.707-.2Z" transform="translate(-549.686 -56.149)" fill="#fff"/>
      </g>
      <path id="Caminho_12732" data-name="Caminho 12732" d="M535.406,56.33V74.783l11.627-.181V56.149Z" transform="translate(-535.406 -48.227)" fill="#fff" opacity="0.55"/>
      <path id="Caminho_12733" data-name="Caminho 12733" d="M617.007,61.969V80.422l-6.083,6.48V68.449Z" transform="translate(-549.439 -49.309)" fill="#fff" opacity="0.55"/>
      <path id="Caminho_12734" data-name="Caminho 12734" d="M596.892,65.56l-12.707.2a13.53,13.53,0,0,0-4.013-3.375c-6.988-4.033-17.976-4.345-25.588-.94l-7.552-7.1-11.627.182c.575-.376,1.164-.747,1.787-1.106,16.157-9.329,42.354-9.329,58.511,0a30.737,30.737,0,0,1,7.27,5.664Z" transform="translate(-535.406 -46.419)" fill="#fff"/>
    </g>
    <g id="Grupo_876" data-name="Grupo 876" transform="translate(0 11.039)">
      <path id="Caminho_12735" data-name="Caminho 12735" d="M551.75,67.659V84.622l-11-2.635s.646-9.927.88-10.192S551.75,67.659,551.75,67.659Z" transform="translate(-526.075 -61.405)" fill="#fff" opacity="0.55"/>
      <g id="Grupo_875" data-name="Grupo 875">
        <path id="Caminho_12736" data-name="Caminho 12736" d="M556.724,104.386c-.265-.063-.522-.142-.783-.212V98.983L545.034,91.9a9.756,9.756,0,0,1,3.366-4.482l-6.65-6.254-10.606.165-8.35-6.618-.068,19.594.01.01c.127,6.012,4.154,12,12.1,16.588a55.338,55.338,0,0,0,21.1,6.528V105.22Z" transform="translate(-522.726 -62.717)" fill="#fff" opacity="0.55"/>
        <path id="Caminho_12737" data-name="Caminho 12737" d="M554.985,89.371c-.071.142-.406,3.727-.724,7.279l7.539,4.892v5.191c.262.07.518.149.783.212l-.516.55.516-.55V88.493S555.126,89.089,554.985,89.371Z" transform="translate(-528.586 -65.277)" fill="#fff" opacity="0.8"/>
        <path id="Caminho_12738" data-name="Caminho 12738" d="M541.75,59.978l6.651,6.254c-5.54,4.383-4.885,10.562,1.968,14.518a23.65,23.65,0,0,0,6.355,2.445l-6.873,7.323,6.09,5.727a55.324,55.324,0,0,1-21.1-6.527C520.946,81.7,519.009,69.4,529,60.177Z" transform="translate(-522.726 -59.978)" fill="#fff"/>
      </g>
    </g>
    <g id="Grupo_878" data-name="Grupo 878" transform="translate(33.264 16.252)">
      <g id="Grupo_877" data-name="Grupo 877" transform="translate(0 7.777)">
        <path id="Caminho_12739" data-name="Caminho 12739" d="M563.582,120.034h0l6.669,6.272h0Z" transform="translate(-563.582 -84.128)" fill="#fff"/>
        <path id="Caminho_12740" data-name="Caminho 12740" d="M608.321,78.459l-36.548,21.2h0v18.453c11.061.22,22.244-2.1,30.688-6.977,8.012-4.626,12.042-10.676,12.105-16.738l0,0V75.933Z" transform="translate(-565.104 -75.933)" fill="#fff" opacity="0.55"/>
      </g>
      <path id="Caminho_12741" data-name="Caminho 12741" d="M563.582,97.369v18.453l6.669,6.272V103.641Z" transform="translate(-563.582 -72.139)" fill="#fff" opacity="0.8"/>
      <path id="Caminho_12742" data-name="Caminho 12742" d="M563.582,91.611l6.058-6.454c5.625.342,11.457-.73,15.767-3.218,4.452-2.57,6.286-6.079,5.507-9.423l14.426-.226,5.547-5.909c4.852,8.327,1.542,17.891-9.949,24.526-8.443,4.875-19.628,7.2-30.688,6.977Z" transform="translate(-563.582 -66.381)" fill="#fff"/>
    </g>
  </g>
  <path id="Caminho_12743" data-name="Caminho 12743" d="M614.326,324.589,600.663,316.7l13.662-7.888,13.662,7.888Z" transform="translate(-363.503 -84.615)" fill="#fff" opacity="0.55"/>
  <g id="Grupo_881" data-name="Grupo 881" transform="translate(235.761 190.001)">
    <g id="Grupo_880" data-name="Grupo 880" transform="translate(0)">
      <path id="Caminho_12744" data-name="Caminho 12744" d="M631.106,292.275l-13.662,7.888V284.387l13.662-7.888Z" transform="translate(-602.382 -268.612)" fill="#fff" opacity="0.8"/>
      <path id="Caminho_12745" data-name="Caminho 12745" d="M614.326,282.587,600.664,274.7l13.662-7.888,13.662,7.888Z" transform="translate(-599.264 -266.811)" fill="#fff"/>
      <path id="Caminho_12746" data-name="Caminho 12746" d="M614.326,300.163l-13.662-7.888V276.5l13.662,7.888Z" transform="translate(-599.264 -268.612)" fill="#fff" opacity="0.4"/>
      <path id="Caminho_12747" data-name="Caminho 12747" d="M628.367,305.637l-7.974-4.6-2.8,1.615,7.275,4.2-10.865,6.273-10.866-6.273,7.275-4.2-2.8-1.615-7.973,4.6a1.4,1.4,0,0,0,0,2.422l13.662,7.888a1.392,1.392,0,0,0,1.4,0l13.662-7.887a1.4,1.4,0,0,0,0-2.422Z" transform="translate(-598.945 -273.171)" fill="#fff"/>
    </g>
    <path id="Caminho_12748" data-name="Caminho 12748" d="M610.528,293.585l-3.821-2.206v-4.412l3.821,2.206Z" transform="translate(-600.387 -270.557)" fill="#fff"/>
  </g>
  <g id="Grupo_884" data-name="Grupo 884" transform="translate(5.515 196.622)">
    <g id="Grupo_882" data-name="Grupo 882" transform="translate(0)">
      <path id="Caminho_12749" data-name="Caminho 12749" d="M371.525,299.864v-7.773h-1.468a17.681,17.681,0,0,0-6.642-6.212c-10.812-6.243-28.342-6.243-39.155,0a17.674,17.674,0,0,0-6.641,6.212h-1.466v7.731h0c-.019,4.1,2.681,8.213,8.106,11.345,10.812,6.243,28.342,6.243,39.155,0C368.821,308.046,371.525,303.955,371.525,299.864Z" transform="translate(-316.151 -276.105)" fill="#fff" opacity="0.5"/>
      <path id="Caminho_12750" data-name="Caminho 12750" d="M369.733,285.878c-5.405-3.121-12.491-4.682-19.576-4.682v34.653c7.086,0,14.171-1.561,19.577-4.682s8.109-7.213,8.109-11.3v-7.773h-1.468A17.688,17.688,0,0,0,369.733,285.878Z" transform="translate(-322.47 -276.105)" fill="#fff" opacity="0.5"/>
      <ellipse id="Elipse_1032" data-name="Elipse 1032" cx="27.687" cy="15.985" rx="27.687" ry="15.985" fill="#fff"/>
      <path id="Caminho_12751" data-name="Caminho 12751" d="M363.422,306c-10.812,6.243-28.342,6.243-39.155,0-5.181-2.991-7.852-6.875-8.067-10.795-.234,4.259,2.437,8.561,8.067,11.811,10.813,6.243,28.343,6.243,39.155,0,5.631-3.25,8.3-7.552,8.067-11.811C371.273,299.12,368.6,303,363.422,306Z" transform="translate(-316.157 -278.708)" fill="#707071"/>
      <path id="Caminho_12752" data-name="Caminho 12752" d="M364.332,317.836c-.416.24-.859.455-1.3.676a7.753,7.753,0,0,1,2.592,5.464c0,2.914-2.068,5.713-5.823,7.882-8.3,4.789-21.8,4.79-30.1,0-3.755-2.169-5.824-4.968-5.824-7.882a7.75,7.75,0,0,1,2.587-5.459c-.435-.221-.874-.441-1.29-.682s-.824-.5-1.214-.752a10.2,10.2,0,0,0-2.88,6.893c0,3.955,2.565,7.614,7.223,10.3a36.415,36.415,0,0,0,32.9,0c4.657-2.689,7.223-6.348,7.223-10.3a10.194,10.194,0,0,0-2.883-6.895C365.152,317.338,364.755,317.592,364.332,317.836Z" transform="translate(-317.067 -282.774)" fill="#fff"/>
    </g>
    <g id="Grupo_883" data-name="Grupo 883" transform="translate(13.612 8.406)">
      <path id="Caminho_12753" data-name="Caminho 12753" d="M333.6,298.139a1.248,1.248,0,0,1-.73-1.02L332.9,286.7c0-.794,1.12-1.437,2.5-1.436s2.488.646,2.487,1.442l-.023,8.635,25.064-3.069c1.347-.165,2.669.332,2.955,1.109s-.575,1.54-1.92,1.706l-28.077,3.438a3.95,3.95,0,0,1-2.088-.291C333.725,298.207,333.661,298.174,333.6,298.139Z" transform="translate(-332.87 -285.268)" fill="#0edd97"/>
    </g>
  </g>
  <path id="Caminho_12754" data-name="Caminho 12754" d="M464.479,118.179a8.664,8.664,0,0,0-1.388,1.017c-.192-6.246-4.7-8.73-10.256-5.525-4.522,2.611-8.353,8.2-9.726,13.679a6.129,6.129,0,0,0-3.836.953A16.2,16.2,0,0,0,431.943,141c0,4.674,3.281,6.568,7.329,4.231l25.206-14.553a11.96,11.96,0,0,0,5.412-9.372C469.89,117.853,467.467,116.454,464.479,118.179Z" transform="translate(-332.152 -48.094)" fill="#fff" opacity="0.5"/>
  <path id="Caminho_12755" data-name="Caminho 12755" d="M360.822,324.231a25.292,25.292,0,0,0-4.787-2.089,46.765,46.765,0,0,1-21.923,0,25.293,25.293,0,0,0-4.788,2.089c-8.7,5.022-8.7,13.164,0,18.185s22.8,5.022,31.5,0S369.52,329.253,360.822,324.231Z" transform="translate(-311.871 -87.092)" fill="#fff" opacity="0.55"/>
  <g id="Grupo_885" data-name="Grupo 885" transform="translate(174.812 42.567)">
    <path id="Caminho_12756" data-name="Caminho 12756" d="M567.648,85.865a28.537,28.537,0,0,0-7.605,1.791,26.114,26.114,0,0,0,3.615,1.138h0v.8a66.041,66.041,0,0,1,8.388-.537c1.411,0,2.82.05,4.223.139a27.749,27.749,0,0,0,5.72-1.542,29.428,29.428,0,0,0-9.32-1.921Q570.154,85.71,567.648,85.865Z" transform="translate(-530.767 -85.73)" fill="#fff" opacity="0.55"/>
    <path id="Caminho_12757" data-name="Caminho 12757" d="M604.564,106.276a17.889,17.889,0,0,1-2.045,3.632,12.118,12.118,0,0,1,.746,4.147c0,5.476-3.818,10.7-10.75,14.7-14.97,8.641-39.327,8.642-54.3,0-6.933-4-10.751-9.222-10.751-14.7a11.881,11.881,0,0,1,.228-2.269,20.466,20.466,0,0,1-2.516-3.4,15.56,15.56,0,0,0-1.093,5.673c0,6.734,4.419,12.994,12.441,17.625,7.952,4.592,18.395,6.886,28.84,6.886s20.889-2.3,28.838-6.885c8.023-4.631,12.44-10.891,12.44-17.625A15.974,15.974,0,0,0,604.564,106.276Z" transform="translate(-524.086 -89.548)" fill="#fff" opacity="0.55"/>
  </g>
</svg>
