<svg xmlns="http://www.w3.org/2000/svg" width="71.563" height="71.5" viewBox="0 0 71.563 71.5">
  <g id="Grupo_1686" data-name="Grupo 1686" transform="translate(-3244.473 -2273.823)">
    <path id="Caminho_13839" data-name="Caminho 13839" d="M3284.786,2295.631l-13.151-13.126,1.789-1.867,13.177,13.151Z" transform="translate(19.645 4.93)" fill="#0e1628"/>
    <rect id="Ret창ngulo_973" data-name="Ret창ngulo 973" width="2.585" height="21.691" transform="translate(3251.116 2323.769) rotate(-45.6)" fill="#0e1628"/>
    <path id="Caminho_13840" data-name="Caminho 13840" d="M3314.483,2285.148l-11-10.066a4.754,4.754,0,0,0-6.629.177l-5.327,5.434,1.829,1.829,5.342-5.451a2.18,2.18,0,0,1,3.04-.081l11,10.066a2.187,2.187,0,0,1,.083,3.15l-45.973,46.654-18.692,4.839,5.02-18.187,35.116-35.823-1.828-1.828-35.6,36.32-6.39,23.143,23.714-6.14,46.475-47.162a4.772,4.772,0,0,0-.179-6.873Z" transform="translate(0)" fill="#0e1628"/>
    <rect id="Ret창ngulo_974" data-name="Ret창ngulo 974" width="1.934" height="1.934" transform="translate(3289.985 2282.944) rotate(45)" fill="#0edd97"/>
  </g>
</svg>
