<svg id="Grupo_35" data-name="Grupo 35" xmlns="http://www.w3.org/2000/svg" width="1280" height="666.879" viewBox="0 0 1280 666.879">
  <g id="Grupo_30" data-name="Grupo 30" transform="translate(884.6)">
    <path id="Caminho_72" data-name="Caminho 72" d="M1198.346,3834.655l-99.3,129.448a2.442,2.442,0,0,0,3.582,3.292l123.617-112.475a194.736,194.736,0,0,1,52.245-33.306h0a2.465,2.465,0,0,0-1.3-4.707l-62.538,8.323A24.66,24.66,0,0,0,1198.346,3834.655Z" transform="translate(-1098.51 -3634.624)" fill="#a6bcd2"/>
    <path id="Caminho_73" data-name="Caminho 73" d="M1267.273,3834.655l99.3,129.448a2.442,2.442,0,0,1-3.582,3.292l-123.62-112.475a194.718,194.718,0,0,0-52.243-33.306h0a2.465,2.465,0,0,1,1.3-4.707l62.538,8.323A24.655,24.655,0,0,1,1267.273,3834.655Z" transform="translate(-971.71 -3634.624)" fill="#a6bcd2"/>
    <path id="Caminho_74" data-name="Caminho 74" d="M1198.346,3876.061l-99.3-129.446a2.444,2.444,0,0,1,3.582-3.3l123.617,112.476a194.745,194.745,0,0,0,52.245,33.307h0a2.467,2.467,0,0,1-1.3,4.709l-62.538-8.326A24.651,24.651,0,0,1,1198.346,3876.061Z" transform="translate(-1098.51 -3742.653)" fill="#a6bcd2"/>
    <path id="Caminho_75" data-name="Caminho 75" d="M1267.273,3876.061l99.3-129.446a2.444,2.444,0,0,0-3.582-3.3l-123.62,112.476a194.727,194.727,0,0,1-52.243,33.307h0a2.467,2.467,0,0,0,1.3,4.709l62.538-8.326A24.646,24.646,0,0,0,1267.273,3876.061Z" transform="translate(-971.71 -3742.653)" fill="#a6bcd2"/>
  </g>
  <g id="Grupo_33" data-name="Grupo 33" transform="translate(884.6 333.44)">
    <path id="Caminho_72-2" data-name="Caminho 72" d="M1198.346,3834.655l-99.3,129.448a2.442,2.442,0,0,0,3.582,3.292l123.617-112.475a194.736,194.736,0,0,1,52.245-33.306h0a2.465,2.465,0,0,0-1.3-4.707l-62.538,8.323A24.66,24.66,0,0,0,1198.346,3834.655Z" transform="translate(-1098.51 -3634.624)" fill="#a6bcd2"/>
    <path id="Caminho_73-2" data-name="Caminho 73" d="M1267.273,3834.655l99.3,129.448a2.442,2.442,0,0,1-3.582,3.292l-123.62-112.475a194.718,194.718,0,0,0-52.243-33.306h0a2.465,2.465,0,0,1,1.3-4.707l62.538,8.323A24.655,24.655,0,0,1,1267.273,3834.655Z" transform="translate(-971.71 -3634.624)" fill="#a6bcd2"/>
    <path id="Caminho_74-2" data-name="Caminho 74" d="M1198.346,3876.061l-99.3-129.446a2.444,2.444,0,0,1,3.582-3.3l123.617,112.476a194.745,194.745,0,0,0,52.245,33.307h0a2.467,2.467,0,0,1-1.3,4.709l-62.538-8.326A24.651,24.651,0,0,1,1198.346,3876.061Z" transform="translate(-1098.51 -3742.653)" fill="#a6bcd2"/>
    <path id="Caminho_75-2" data-name="Caminho 75" d="M1267.273,3876.061l99.3-129.446a2.444,2.444,0,0,0-3.582-3.3l-123.62,112.476a194.727,194.727,0,0,1-52.243,33.307h0a2.467,2.467,0,0,0,1.3,4.709l62.538-8.326A24.646,24.646,0,0,0,1267.273,3876.061Z" transform="translate(-971.71 -3742.653)" fill="#a6bcd2"/>
  </g>
  <g id="Grupo_32" data-name="Grupo 32">
    <path id="Caminho_72-3" data-name="Caminho 72" d="M1198.346,3834.655l-99.3,129.448a2.442,2.442,0,0,0,3.582,3.292l123.617-112.475a194.736,194.736,0,0,1,52.245-33.306h0a2.465,2.465,0,0,0-1.3-4.707l-62.538,8.323A24.66,24.66,0,0,0,1198.346,3834.655Z" transform="translate(-1098.51 -3634.624)" fill="#a6bcd2"/>
    <path id="Caminho_73-3" data-name="Caminho 73" d="M1267.273,3834.655l99.3,129.448a2.442,2.442,0,0,1-3.582,3.292l-123.62-112.475a194.718,194.718,0,0,0-52.243-33.306h0a2.465,2.465,0,0,1,1.3-4.707l62.538,8.323A24.655,24.655,0,0,1,1267.273,3834.655Z" transform="translate(-971.71 -3634.624)" fill="#a6bcd2"/>
    <path id="Caminho_74-3" data-name="Caminho 74" d="M1198.346,3876.061l-99.3-129.446a2.444,2.444,0,0,1,3.582-3.3l123.617,112.476a194.745,194.745,0,0,0,52.245,33.307h0a2.467,2.467,0,0,1-1.3,4.709l-62.538-8.326A24.651,24.651,0,0,1,1198.346,3876.061Z" transform="translate(-1098.51 -3742.653)" fill="#a6bcd2"/>
    <path id="Caminho_75-3" data-name="Caminho 75" d="M1267.273,3876.061l99.3-129.446a2.444,2.444,0,0,0-3.582-3.3l-123.62,112.476a194.727,194.727,0,0,1-52.243,33.307h0a2.467,2.467,0,0,0,1.3,4.709l62.538-8.326A24.646,24.646,0,0,0,1267.273,3876.061Z" transform="translate(-971.71 -3742.653)" fill="#a6bcd2"/>
  </g>
  <g id="Grupo_34" data-name="Grupo 34" transform="translate(0 333.44)">
    <path id="Caminho_72-4" data-name="Caminho 72" d="M1198.346,3834.655l-99.3,129.448a2.442,2.442,0,0,0,3.582,3.292l123.617-112.475a194.736,194.736,0,0,1,52.245-33.306h0a2.465,2.465,0,0,0-1.3-4.707l-62.538,8.323A24.66,24.66,0,0,0,1198.346,3834.655Z" transform="translate(-1098.51 -3634.624)" fill="#a6bcd2"/>
    <path id="Caminho_73-4" data-name="Caminho 73" d="M1267.273,3834.655l99.3,129.448a2.442,2.442,0,0,1-3.582,3.292l-123.62-112.475a194.718,194.718,0,0,0-52.243-33.306h0a2.465,2.465,0,0,1,1.3-4.707l62.538,8.323A24.655,24.655,0,0,1,1267.273,3834.655Z" transform="translate(-971.71 -3634.624)" fill="#a6bcd2"/>
    <path id="Caminho_74-4" data-name="Caminho 74" d="M1198.346,3876.061l-99.3-129.446a2.444,2.444,0,0,1,3.582-3.3l123.617,112.476a194.745,194.745,0,0,0,52.245,33.307h0a2.467,2.467,0,0,1-1.3,4.709l-62.538-8.326A24.651,24.651,0,0,1,1198.346,3876.061Z" transform="translate(-1098.51 -3742.653)" fill="#a6bcd2"/>
    <path id="Caminho_75-4" data-name="Caminho 75" d="M1267.273,3876.061l99.3-129.446a2.444,2.444,0,0,0-3.582-3.3l-123.62,112.476a194.727,194.727,0,0,1-52.243,33.307h0a2.467,2.467,0,0,0,1.3,4.709l62.538-8.326A24.646,24.646,0,0,0,1267.273,3876.061Z" transform="translate(-971.71 -3742.653)" fill="#a6bcd2"/>
  </g>
</svg>
