<svg xmlns="http://www.w3.org/2000/svg" width="28.82" height="28.82" viewBox="0 0 28.82 28.82">
  <path id="facebook" d="M22.777,31.82V20.66h3.747l.561-4.349H22.776V13.534c0-1.259.35-2.118,2.158-2.118h2.3V7.525a30.824,30.824,0,0,0-3.358-.173c-3.32,0-5.592,2.028-5.592,5.75V16.31H14.528v4.349h3.757V31.82H4.591A1.59,1.59,0,0,1,3,30.229V4.591A1.59,1.59,0,0,1,4.591,3H30.229A1.59,1.59,0,0,1,31.82,4.591V30.229a1.59,1.59,0,0,1-1.591,1.591Z" transform="translate(-3 -3)" fill="#303bfe" fill-rule="evenodd"/>
</svg>
