<svg xmlns="http://www.w3.org/2000/svg" width="28.8" height="28.8" viewBox="0 0 28.8 28.8">
  <g id="Grupo_2030" data-name="Grupo 2030" transform="translate(-178 -570.34)">
    <path id="Caminho_12887" data-name="Caminho 12887" d="M17.045,10.5a6.545,6.545,0,1,0,6.545,6.545A6.545,6.545,0,0,0,17.045,10.5Zm-3.927,6.545a3.927,3.927,0,1,0,3.927-3.927A3.927,3.927,0,0,0,13.118,17.045Z" transform="translate(175.354 567.694)" fill="#303bfe" fill-rule="evenodd"/>
    <path id="Caminho_12888" data-name="Caminho 12888" d="M26.809,7.5a1.309,1.309,0,1,0,1.309,1.309A1.309,1.309,0,0,0,26.809,7.5Z" transform="translate(173.445 568.076)" fill="#303bfe"/>
    <path id="Caminho_12889" data-name="Caminho 12889" d="M6.736,1.5A5.236,5.236,0,0,0,1.5,6.736V25.064A5.236,5.236,0,0,0,6.736,30.3H25.064A5.236,5.236,0,0,0,30.3,25.064V6.736A5.236,5.236,0,0,0,25.064,1.5ZM25.064,4.118H6.736A2.618,2.618,0,0,0,4.118,6.736V25.064a2.618,2.618,0,0,0,2.618,2.618H25.064a2.618,2.618,0,0,0,2.618-2.618V6.736A2.618,2.618,0,0,0,25.064,4.118Z" transform="translate(176.5 568.84)" fill="#303bfe" fill-rule="evenodd"/>
  </g>
</svg>
