<svg xmlns="http://www.w3.org/2000/svg" width="28.8" height="28.8" viewBox="0 0 28.8 28.8">
  <path id="linkedin-rect" d="M5.65.009A5.661,5.661,0,0,0,.007,5.653V23.166a5.66,5.66,0,0,0,5.644,5.642H23.164a5.659,5.659,0,0,0,5.642-5.642V5.653A5.66,5.66,0,0,0,23.164.009ZM7.07,4.761a2.268,2.268,0,1,1-.029,4.521H7.013A2.267,2.267,0,1,1,7.07,4.761Zm12.824,6c2.862,0,5.007,1.87,5.007,5.891v7.5H20.552v-7c0-1.759-.629-2.96-2.2-2.96a2.382,2.382,0,0,0-2.232,1.59,2.97,2.97,0,0,0-.143,1.061v7.309h-4.35s.057-11.86,0-13.087h4.35v1.854a4.318,4.318,0,0,1,3.92-2.16Zm-15.027.308H9.216V24.158H4.867V11.071Z" transform="translate(-0.007 -0.009)" fill="#303bfe"/>
</svg>
