<svg xmlns="http://www.w3.org/2000/svg" width="21" height="21" viewBox="0 0 21 21">
  <path id="Path_110" data-name="Path 110" d="M12.187,15l2.25-2.062A.689.689,0,0,1,15,12.75l.375.188,5.25,2.437c.375.188.375.375.375.75A4.753,4.753,0,0,1,19.5,19.5,5.371,5.371,0,0,1,15.562,21a11.425,11.425,0,0,1-5.25-1.312,24.58,24.58,0,0,1-5.25-3.75A31.937,31.937,0,0,1,2.25,11.812,25.917,25.917,0,0,1,.375,7.687,11.538,11.538,0,0,1,0,4.125,4.927,4.927,0,0,1,1.313,1.312,5.7,5.7,0,0,1,4.875,0a.974.974,0,0,1,.75.375l2.813,5.25A.655.655,0,0,0,8.625,6a.689.689,0,0,1-.187.562L6,8.812A.837.837,0,0,0,6,9.75a17.905,17.905,0,0,0,2.25,3,18.932,18.932,0,0,0,3,2.437C11.625,15.375,12,15.375,12.187,15Z" fill="#303bfe"/>
</svg>
