<svg xmlns="http://www.w3.org/2000/svg" width="18.92" height="18.92" viewBox="0 0 18.92 18.92">
  <path id="facebook" d="M15.983,21.92V14.594h2.46l.368-2.855H15.983V9.915c0-.827.23-1.391,1.416-1.391h1.512V5.97a20.236,20.236,0,0,0-2.2-.114,3.44,3.44,0,0,0-3.671,3.775v2.106H10.568v2.855h2.467V21.92H4.044A1.044,1.044,0,0,1,3,20.876V4.044A1.044,1.044,0,0,1,4.044,3H20.876A1.044,1.044,0,0,1,21.92,4.044V20.876a1.044,1.044,0,0,1-1.044,1.044Z" transform="translate(-3 -3)" fill="#303bfe" fill-rule="evenodd"/>
</svg>
