<svg xmlns="http://www.w3.org/2000/svg" width="18.926" height="18.926" viewBox="0 0 18.926 18.926">
  <path id="linkedin" d="M0,0V18.926H18.926V0ZM4.642,3.721a1.482,1.482,0,0,1,1.52,1.421,1.471,1.471,0,0,1-1.54,1.421H4.6A1.479,1.479,0,0,1,3.1,5.142,1.491,1.491,0,0,1,4.642,3.721Zm8.042,3.762a3.033,3.033,0,0,1,2.241.9,4.245,4.245,0,0,1,.9,2.8v4.722H13.1V11.5c-.006-.825-.289-1.827-1.381-1.861a1.553,1.553,0,0,0-1.4,1,1.784,1.784,0,0,0-.1.66v4.6H7.5c.011-2.3.025-4.6.019-6.9q0-.98-.019-1.32h2.721v1.16a3.667,3.667,0,0,1,.831-.891,2.816,2.816,0,0,1,1.63-.47Zm-9.423.2H5.982v8.222H3.261V7.683Z" fill="#303bfe"/>
</svg>
