<svg xmlns="http://www.w3.org/2000/svg" width="10.02" height="10.021" viewBox="0 0 10.02 10.021">
  <path id="logo-whatsapp-outline" d="M10.811,3.706A4.98,4.98,0,0,0,2.958,9.7L2.25,12.271l2.645-.691a5,5,0,0,0,2.384.6h0A4.985,4.985,0,0,0,12.27,7.218a4.925,4.925,0,0,0-1.46-3.512Zm-3.529,7.64h0a4.155,4.155,0,0,1-2.111-.575l-.151-.089-1.57.41.419-1.523-.1-.157a4.151,4.151,0,1,1,3.513,1.934ZM9.556,8.255c-.125-.062-.738-.362-.852-.4s-.2-.062-.281.062-.322.4-.395.486-.145.093-.27.031a3.406,3.406,0,0,1-1-.616,3.748,3.748,0,0,1-.693-.859c-.073-.124-.008-.192.055-.253s.125-.145.187-.217a.837.837,0,0,0,.125-.207.229.229,0,0,0-.01-.217c-.031-.062-.281-.673-.384-.921s-.2-.209-.281-.213-.157,0-.239,0a.459.459,0,0,0-.332.155,1.391,1.391,0,0,0-.436,1.035A2.416,2.416,0,0,0,5.255,7.4,5.538,5.538,0,0,0,7.384,9.269a7.227,7.227,0,0,0,.711.261,1.718,1.718,0,0,0,.785.049,1.284,1.284,0,0,0,.842-.59A1.037,1.037,0,0,0,9.8,8.4c-.031-.052-.114-.083-.239-.145Z" transform="translate(-2.25 -2.25)" fill="#303bfe" fill-rule="evenodd"/>
</svg>
