<svg xmlns="http://www.w3.org/2000/svg" width="10.02" height="10.021" viewBox="0 0 10.02 10.021">
  <path id="phone" d="M9.882,8.333l-1.413,1.4a1.022,1.022,0,0,1-.754.287A6.534,6.534,0,0,1,4.475,8.8,12.5,12.5,0,0,1,.693,4.675,5.337,5.337,0,0,1,0,2.323a1.029,1.029,0,0,1,.287-.764L1.7.147a.467.467,0,0,1,.765.127L3.6,2.43a.626.626,0,0,1-.127.711l-.521.52A.257.257,0,0,0,2.9,3.81,4.437,4.437,0,0,0,4.241,5.785,4.439,4.439,0,0,0,6.094,7.1a.294.294,0,0,0,.271-.026l.605-.616A.691.691,0,0,1,7.7,6.348h.011l2.05,1.21a.493.493,0,0,1,.117.775Z" transform="translate(0)" fill="#303bfe"/>
</svg>
