<svg id="pin" xmlns="http://www.w3.org/2000/svg" width="8.534" height="10.3" viewBox="0 0 8.534 10.3">
  <path id="Caminho_82" data-name="Caminho 82" d="M16.2,11.3a1.9,1.9,0,1,1-1.9-1.9A1.9,1.9,0,0,1,16.2,11.3Zm-.948,0a.948.948,0,1,1-.948-.948A.948.948,0,0,1,15.253,11.3Z" transform="translate(-9.908 -6.908)" fill="#303bfe" fill-rule="evenodd"/>
  <path id="Caminho_83" data-name="Caminho 83" d="M5.825,8.857a4.267,4.267,0,1,1,6.033-.148L8.915,11.8,5.825,8.857Zm5.346-.8-2.288,2.4-2.4-2.288a3.319,3.319,0,1,1,4.693-.115Z" transform="translate(-4.5 -1.5)" fill="#303bfe" fill-rule="evenodd"/>
</svg>
