<svg id="Grupo_179" data-name="Grupo 179" xmlns="http://www.w3.org/2000/svg" width="25.362" height="25.363" viewBox="0 0 25.362 25.363">
  <path id="Caminho_3091" data-name="Caminho 3091" d="M406.662,1814.477l-.48-.454,1.564-1.648.48.454Z" transform="translate(-388.037 -1807.327)" fill="#0e1628"/>
  <rect id="Retângulo_191" data-name="Retângulo 191" width="2.271" height="0.661" transform="translate(5.11 19.769) rotate(-46.573)" fill="#0e1628"/>
  <path id="Caminho_3092" data-name="Caminho 3092" d="M410.566,1825.257l-.017-.661,2.271-.06.017.661Z" transform="translate(-389.813 -1812.274)" fill="#0e1628"/>
  <path id="Caminho_3093" data-name="Caminho 3093" d="M379.444,1825.3l-.017-.661,2.271-.06.017.661Z" transform="translate(-377.153 -1812.292)" fill="#0e1628"/>
  <path id="Caminho_3094" data-name="Caminho 3094" d="M407.811,1836.474l-1.648-1.563.454-.48,1.648,1.564Z" transform="translate(-388.029 -1816.299)" fill="#0e1628"/>
  <rect id="Retângulo_192" data-name="Retângulo 192" width="0.662" height="2.271" transform="matrix(0.688, -0.725, 0.725, 0.688, 5.061, 5.576)" fill="#0e1628"/>
  <path id="Caminho_3095" data-name="Caminho 3095" d="M396.391,1841.085l-.06-2.271.661-.016.06,2.271Z" transform="translate(-384.029 -1818.075)" fill="#0e1628"/>
  <path id="Caminho_3096" data-name="Caminho 3096" d="M396.348,1809.964l-.06-2.272.661-.016.06,2.271Z" transform="translate(-384.012 -1805.416)" fill="#0e1628"/>
  <rect id="Retângulo_193" data-name="Retângulo 193" width="5.442" height="0.661" transform="translate(12.448 12.452) rotate(-45.463)" fill="#0e1628"/>
  <circle id="Elipse_36" data-name="Elipse 36" cx="1.636" cy="1.636" r="1.636" transform="translate(11.045 11.045)" fill="#0e1628"/>
  <path id="Caminho_3098" data-name="Caminho 3098" d="M388.275,1803.866a12.668,12.668,0,0,0-7.368,22.982l.476-.468a12.025,12.025,0,1,1,3.141,1.579l-.517.514a12.675,12.675,0,1,0,4.268-24.607Z" transform="translate(-375.594 -1803.866)" fill="#0e1628"/>
  <rect id="Retângulo_195" data-name="Retângulo 195" width="0.867" height="0.867" transform="matrix(0.839, 0.544, -0.544, 0.839, 6.868, 23.062)" fill="#303bfe"/>
</svg>
