<svg xmlns="http://www.w3.org/2000/svg" width="80" height="80" viewBox="0 0 80 80">
  <g id="Grupo_2028" data-name="Grupo 2028" transform="translate(6590 3256)">
    <g id="Elipse_1044" data-name="Elipse 1044" transform="translate(-6590 -3256)" fill="#fff" stroke="#3242f4" stroke-width="0.7">
      <circle cx="40" cy="40" r="40" stroke="none"/>
      <circle cx="40" cy="40" r="39.65" fill="none"/>
    </g>
    <path id="bx-message" d="M37.739,3H6.86A3.863,3.863,0,0,0,3,6.86V30.019a3.863,3.863,0,0,0,3.86,3.86h5.79v7.271l12.113-7.271H37.739a3.863,3.863,0,0,0,3.86-3.86V6.86A3.863,3.863,0,0,0,37.739,3Zm0,27.019H23.7l-7.186,4.309V30.019H6.86V6.86H37.739Z" transform="translate(-6570.781 -3237.009)" fill="#303bfe"/>
    <circle id="Elipse_1045" data-name="Elipse 1045" cx="13.5" cy="13.5" r="13.5" transform="translate(-6546 -3243)" fill="#ff3943"/>
    <text id="_3" data-name="3" transform="translate(-6533 -3225)" fill="#f4f2f2" font-size="14" font-family="OpenSans-Bold, Open Sans" font-weight="700"><tspan x="-3.996" y="0">3</tspan></text>
  </g>
</svg>
