<svg id="Camada_2" data-name="Camada 2" xmlns="http://www.w3.org/2000/svg" width="17.471" height="17.471" viewBox="0 0 17.471 17.471">
  <g id="Camada_1" data-name="Camada 1">
    <path id="Caminho_16" data-name="Caminho 16" d="M3.217,33.491H0L1.777,31.6H4.994Z" transform="translate(0 -23.81)" fill="#f4f2f2"/>
    <path id="Caminho_17" data-name="Caminho 17" d="M53.827,33.491H50.61L52.387,31.6H55.6Z" transform="translate(-38.134 -23.81)" fill="#f4f2f2"/>
    <path id="Caminho_18" data-name="Caminho 18" d="M31.6,3.217V0l1.891,1.777V4.994Z" transform="translate(-23.81)" fill="#f4f2f2"/>
    <path id="Caminho_19" data-name="Caminho 19" d="M31.6,53.827V50.61l1.891,1.777V55.6Z" transform="translate(-23.81 -38.134)" fill="#f4f2f2"/>
    <path id="Caminho_20" data-name="Caminho 20" d="M9.943,15.124,7.67,12.849l2.593-.079,2.273,2.273Z" transform="translate(-5.779 -9.622)" fill="#f4f2f2"/>
    <path id="Caminho_21" data-name="Caminho 21" d="M45.725,50.9,43.45,48.629l2.593-.079,2.275,2.275Z" transform="translate(-32.739 -36.581)" fill="#f4f2f2"/>
    <path id="Caminho_22" data-name="Caminho 22" d="M48.55,9.943,50.825,7.67l.079,2.593-2.275,2.273Z" transform="translate(-36.581 -5.779)" fill="#f4f2f2"/>
    <path id="Caminho_23" data-name="Caminho 23" d="M12.77,45.725l2.273-2.275.081,2.593-2.275,2.275Z" transform="translate(-9.622 -32.739)" fill="#f4f2f2"/>
    <rect id="Retângulo_40" data-name="Retângulo 40" width="1.891" height="1.891" transform="translate(7.81 7.79)" fill="#f4f2f2"/>
  </g>
</svg>
