<svg xmlns="http://www.w3.org/2000/svg" width="245.93" height="65.742" viewBox="0 0 245.93 65.742">
  <g id="Grupo_1430" data-name="Grupo 1430" transform="translate(0 0)">
    <path id="Caminho_13639" data-name="Caminho 13639" d="M159.178,331.709l-5.921-2.8a.511.511,0,0,0-.687.26l-2.479,5.747a.651.651,0,0,1-1.2,0l-2.486-5.739a.511.511,0,0,0-.686-.259l-5.909,2.786a.4.4,0,0,0-.011.71l9.352,4.764a.742.742,0,0,0,.675,0l9.357-4.759A.4.4,0,0,0,159.178,331.709Z" transform="translate(-122.653 -280.114)" fill="#f1f2f6"/>
    <path id="Caminho_13640" data-name="Caminho 13640" d="M162,301.258l20.793,15.95a.392.392,0,0,0,.529-.575l-18.066-19.856a31.277,31.277,0,0,1-5.35-8.392h0a.4.4,0,0,0-.756.21l1.337,10.045A3.959,3.959,0,0,0,162,301.258Z" transform="translate(-129.749 -265.345)" fill="#f1f2f6"/>
    <path id="Caminho_13641" data-name="Caminho 13641" d="M141.716,252.818,135.974,285.8a3.846,3.846,0,0,1-1.448,2.392l-20.877,16.018a.4.4,0,0,1-.563-.545l15.362-21.39a40.48,40.48,0,0,0,5.092-9.585l7.413-20.073A.4.4,0,0,1,141.716,252.818Z" transform="translate(-113.008 -252.353)" fill="#f1f2f6"/>
    <g id="Grupo_1428" data-name="Grupo 1428" transform="translate(55.768 22.856)">
      <path id="Caminho_13642" data-name="Caminho 13642" d="M216.724,294.464c-.162-.446-.446-1.177-.811-1.177s-.65.731-.812,1.177l-8.927,22.561h-5.64L211.246,291.5c1.014-2.394,2.11-3.206,4.666-3.206,2.435,0,3.652.811,4.666,3.206l10.712,25.523h-5.64Z" transform="translate(-200.534 -288.251)" fill="#f1f2f6"/>
      <path id="Caminho_13643" data-name="Caminho 13643" d="M373,302.822c0,11.483-4.017,14.527-14.607,14.527-10.51,0-14.568-3.044-14.568-14.527s4.058-14.526,14.568-14.526C368.983,288.3,373,291.339,373,302.822Zm-14.607,10.266c6.979,0,9.089-2.15,9.089-10.266s-2.11-10.266-9.089-10.266-9.049,2.15-9.049,10.266S351.413,313.089,358.393,313.089Z" transform="translate(-252.528 -288.251)" fill="#f1f2f6"/>
      <path id="Caminho_13644" data-name="Caminho 13644" d="M409.35,291.217c.284-1.1.893-2.921,3.936-2.921a3.633,3.633,0,0,1,3.936,2.921l5.275,21.627c.081.284.325.69.609.69.365,0,.568-.528.649-.852l5.64-24.061h5.437l-6.858,24.752c-.609,2.232-1.339,3.976-4.586,3.976s-4.016-1.745-4.545-3.652l-4.991-18.382c-.122-.527-.284-.771-.528-.771-.283,0-.406.244-.568.771L407.727,313.7c-.528,1.908-1.258,3.652-4.5,3.652s-4.018-1.745-4.626-3.976l-6.817-24.752h5.437l5.64,24.061c.082.284.163.852.609.852.283,0,.487-.406.608-.69Z" transform="translate(-269.928 -288.251)" fill="#f1f2f6"/>
      <g id="Grupo_1425" data-name="Grupo 1425" transform="translate(169.672 0)">
        <path id="Caminho_13645" data-name="Caminho 13645" d="M466.834,305.78V288.225h2.332V305.78Z" transform="translate(-466.834 -288.225)" fill="#f1f2f6"/>
        <path id="Caminho_13646" data-name="Caminho 13646" d="M480.15,305.78V290.131h-7.1v-1.906h16.526v1.906h-7.1V305.78Z" transform="translate(-469.091 -288.225)" fill="#f1f2f6"/>
      </g>
      <g id="Grupo_1426" data-name="Grupo 1426" transform="translate(32.372 0)">
        <path id="Caminho_13647" data-name="Caminho 13647" d="M264.625,302.55l3.57.062c3,0,3.453-2.014,3.453-5.3s-.617-4.768-4.07-4.768h-8.755a2.055,2.055,0,0,0-2.055,2.055V317h-5.426V292.541c0-3.288,1.727-4.316,4.193-4.316h14.51c5.343,0,7.193,3.329,7.193,9.084a17.586,17.586,0,0,1-.6,4.923,4.126,4.126,0,0,1-5.48,2.622l-5.27-1.738" transform="translate(-251.342 -288.225)" fill="#f1f2f6"/>
        <path id="Caminho_13648" data-name="Caminho 13648" d="M269.191,314.686l10.018,10.47H286.2l-14.159-13.975a1.645,1.645,0,0,0-1.174-.473h0A2.352,2.352,0,0,0,269.191,314.686Z" transform="translate(-257.58 -296.383)" fill="#f1f2f6"/>
      </g>
      <g id="Grupo_1427" data-name="Grupo 1427" transform="translate(61.253 0)">
        <path id="Caminho_13649" data-name="Caminho 13649" d="M309.955,302.55l3.57.062c3,0,3.453-2.014,3.453-5.3s-.617-4.768-4.069-4.768h-8.756A2.055,2.055,0,0,0,302.1,294.6V317h-5.427V292.541c0-3.288,1.727-4.316,4.193-4.316h14.51c5.344,0,7.193,3.329,7.193,9.084a17.61,17.61,0,0,1-.6,4.923,4.126,4.126,0,0,1-5.481,2.622l-5.269-1.738" transform="translate(-296.671 -288.225)" fill="#f1f2f6"/>
        <path id="Caminho_13650" data-name="Caminho 13650" d="M314.52,314.686l10.018,10.47h6.988l-14.159-13.975a1.642,1.642,0,0,0-1.174-.473h0A2.352,2.352,0,0,0,314.52,314.686Z" transform="translate(-302.909 -296.383)" fill="#f1f2f6"/>
      </g>
    </g>
    <g id="Grupo_1429" data-name="Grupo 1429" transform="translate(55.768 54.091)">
      <path id="Caminho_13651" data-name="Caminho 13651" d="M200.637,347.23h4.046c.549,0,.766-.383.766-1.014,0-.383-.083-.766-.807-1l-2.867-.953a1.62,1.62,0,0,1-1.242-1.79,1.5,1.5,0,0,1,1.646-1.7H206.1v.786h-3.746c-.549,0-.818.259-.818.931a.879.879,0,0,0,.683.994l2.733.91c.962.321,1.5.684,1.5,1.822,0,.983-.383,1.8-1.5,1.8h-4.316Z" transform="translate(-200.534 -338.527)" fill="#f1f2f6"/>
      <path id="Caminho_13652" data-name="Caminho 13652" d="M220.006,344.346c0,2.774-.942,3.7-3.612,3.7-2.65,0-3.612-.931-3.612-3.7s.962-3.7,3.612-3.7C219.064,340.641,220.006,341.572,220.006,344.346Zm-3.612,2.919c2.059,0,2.608-.724,2.608-2.919s-.549-2.918-2.608-2.918-2.608.735-2.608,2.918S214.334,347.265,216.394,347.265Z" transform="translate(-204.978 -338.479)" fill="#f1f2f6"/>
      <path id="Caminho_13653" data-name="Caminho 13653" d="M228.4,348.016c-.527,0-.921-.207-.921-.869v-6.375h.962v6.023c0,.321.1.435.456.435h4.015v.786Z" transform="translate(-210.313 -338.527)" fill="#f1f2f6"/>
      <path id="Caminho_13654" data-name="Caminho 13654" d="M243.275,345.48v-4.708h.963v4.8c0,1.915-1.149,2.525-2.96,2.525s-2.96-.61-2.96-2.525v-4.8h.963v4.708c0,1.345.548,1.832,2,1.832S243.275,346.826,243.275,345.48Z" transform="translate(-214.244 -338.527)" fill="#f1f2f6"/>
      <path id="Caminho_13655" data-name="Caminho 13655" d="M254.3,348.016h-.31c-2.422,0-3.022-1.614-3.022-3.632s.59-3.611,3.074-3.611h2.8v.786h-2.484c-1.811,0-2.391.859-2.391,2.825s.559,2.846,2.339,2.846h2.65v.786H254.3Z" transform="translate(-218.836 -338.527)" fill="#f1f2f6"/>
      <path id="Caminho_13656" data-name="Caminho 13656" d="M266.052,340.641c-2.649,0-3.612.932-3.612,3.7s.963,3.706,3.612,3.706c2.67,0,3.612-.932,3.612-3.706S268.722,340.641,266.052,340.641Zm0,6.624c-2.059,0-2.608-.724-2.608-2.919s.549-2.918,2.608-2.918,2.609.735,2.609,2.918S268.111,347.265,266.052,347.265Z" transform="translate(-222.997 -338.479)" fill="#f1f2f6"/>
      <path id="Caminho_13657" data-name="Caminho 13657" d="M278.155,348.016a.9.9,0,0,1-1.014-1.024v-5.2c0-.776.383-1.024,1.014-1.024h4.481v.786H278.58c-.4,0-.476.124-.476.486v1.873h4.429v.787H278.1v2.029c0,.362.073.5.476.5h4.1v.786Z" transform="translate(-228.331 -338.527)" fill="#f1f2f6"/>
      <path id="Caminho_13658" data-name="Caminho 13658" d="M288.729,347.23h4.047c.549,0,.766-.383.766-1.014,0-.383-.083-.766-.807-1l-2.867-.953a1.62,1.62,0,0,1-1.242-1.79,1.494,1.494,0,0,1,1.645-1.7h3.923v.786h-3.746c-.549,0-.818.259-.818.931a.879.879,0,0,0,.683.994l2.733.91c.962.321,1.5.684,1.5,1.822,0,.983-.383,1.8-1.5,1.8h-4.316Z" transform="translate(-232.499 -338.527)" fill="#f1f2f6"/>
      <path id="Caminho_13659" data-name="Caminho 13659" d="M307.573,348.016a.9.9,0,0,1-1.014-1.024v-5.2c0-.776.383-1.024,1.014-1.024h4.481v.786H308c-.4,0-.476.124-.476.486v1.873h4.429v.787h-4.429v2.029c0,.362.072.5.476.5h4.1v.786Z" transform="translate(-239.006 -338.527)" fill="#f1f2f6"/>
      <path id="Caminho_13660" data-name="Caminho 13660" d="M323.635,347.223c-.208.507-.383.828-.88.828s-.683-.32-.89-.828l-2.153-5.371c-.041-.1-.113-.228-.186-.228s-.134.1-.134.206l.02,6.137h-.962v-6.509c0-.528.352-.818.921-.818.621,0,.839.352,1.035.828l2.163,5.362c.052.134.094.248.187.248s.134-.113.186-.248l2.163-5.362c.186-.475.4-.828,1.025-.828.569,0,.932.29.932.818v6.509H326.1l.021-6.137c0-.186-.094-.206-.135-.206-.072,0-.145.124-.186.228Z" transform="translate(-243.32 -338.479)" fill="#f1f2f6"/>
      <path id="Caminho_13661" data-name="Caminho 13661" d="M342.886,348.016v-6.457h-2.929v-.786h6.82v.786h-2.929v6.457Z" transform="translate(-251.124 -338.527)" fill="#f1f2f6"/>
      <path id="Caminho_13662" data-name="Caminho 13662" d="M354.307,348.016a.9.9,0,0,1-1.014-1.024v-5.2c0-.776.383-1.024,1.014-1.024h4.481v.786h-4.057c-.4,0-.476.124-.476.486v1.873h4.429v.787h-4.429v2.029c0,.362.072.5.476.5h4.1v.786Z" transform="translate(-255.963 -338.527)" fill="#f1f2f6"/>
      <path id="Caminho_13663" data-name="Caminho 13663" d="M367.881,348.016c-2.422,0-3.022-1.614-3.022-3.632s.59-3.611,3.073-3.611h2.8v.786h-2.484c-1.811,0-2.391.859-2.391,2.825s.559,2.846,2.338,2.846h2.64v.786Z" transform="translate(-260.16 -338.527)" fill="#f1f2f6"/>
      <path id="Caminho_13664" data-name="Caminho 13664" d="M383.816,347.14a.812.812,0,0,1-.869.91,1.009,1.009,0,0,1-.953-.569l-3.415-5.464c-.073-.124-.135-.176-.207-.176-.041,0-.145.041-.145.207v5.919h-.942V341.5a.811.811,0,0,1,.89-.859.984.984,0,0,1,.931.528l3.447,5.506c.052.083.093.176.2.176.124,0,.124-.113.124-.176v-5.95h.942Z" transform="translate(-264.669 -338.479)" fill="#f1f2f6"/>
      <path id="Caminho_13665" data-name="Caminho 13665" d="M398.122,344.346c0,2.774-.942,3.7-3.612,3.7-2.649,0-3.612-.931-3.612-3.7s.963-3.7,3.612-3.7C397.18,340.641,398.122,341.572,398.122,344.346Zm-3.612,2.919c2.059,0,2.608-.724,2.608-2.919s-.549-2.918-2.608-2.918-2.608.735-2.608,2.918S392.451,347.265,394.51,347.265Z" transform="translate(-269.608 -338.479)" fill="#f1f2f6"/>
      <path id="Caminho_13666" data-name="Caminho 13666" d="M406.52,348.016c-.527,0-.921-.207-.921-.869v-6.375h.963v6.023c0,.321.1.435.455.435h4.016v.786Z" transform="translate(-274.943 -338.527)" fill="#f1f2f6"/>
      <path id="Caminho_13667" data-name="Caminho 13667" d="M422.845,344.346c0,2.774-.942,3.7-3.611,3.7-2.649,0-3.612-.931-3.612-3.7s.963-3.7,3.612-3.7C421.9,340.641,422.845,341.572,422.845,344.346Zm-3.611,2.919c2.059,0,2.608-.724,2.608-2.919s-.548-2.918-2.608-2.918-2.608.735-2.608,2.918S417.174,347.265,419.234,347.265Z" transform="translate(-278.58 -338.479)" fill="#f1f2f6"/>
      <path id="Caminho_13668" data-name="Caminho 13668" d="M436.466,347.074c0,.673-.331.942-.952.942h-2.629c-2.349,0-2.888-1.6-2.888-3.622s.539-3.622,3.022-3.622H436.3v.786h-2.96c-1.811,0-2.34.869-2.34,2.835s.528,2.836,2.194,2.836h1.832c.362,0,.476-.124.476-.487V344.58h.963Z" transform="translate(-283.796 -338.527)" fill="#f1f2f6"/>
      <path id="Caminho_13669" data-name="Caminho 13669" d="M443.513,348.016v-7.244h.963v7.244Z" transform="translate(-288.7 -338.527)" fill="#f1f2f6"/>
      <path id="Caminho_13670" data-name="Caminho 13670" d="M450.245,341.438c.217-.507.445-.8.994-.8.528,0,.8.3,1,.8l2.743,6.53h-1.014L453.154,346h-3.84l-.807,1.966h-1.014Zm-.642,3.778h3.26l-1.366-3.322c-.062-.145-.134-.352-.259-.352s-.187.206-.248.352Z" transform="translate(-290.144 -338.479)" fill="#f1f2f6"/>
      <rect id="Ret창ngulo_824" data-name="Ret창ngulo 824" width="3.995" height="0.703" transform="translate(41.057 0)" fill="#f1f2f6"/>
      <rect id="Ret창ngulo_825" data-name="Ret창ngulo 825" width="3.037" height="0.703" transform="translate(34.548 10.948)" fill="#f1f2f6"/>
    </g>
  </g>
</svg>
