<svg width="25" height="24" viewBox="0 0 25 24" fill="none" xmlns="http://www.w3.org/2000/svg">
<path d="M22.5 5.80036C21.7483 6.12645 20.9534 6.34202 20.14 6.44036C20.9982 5.92768 21.6413 5.12114 21.95 4.17036C21.1436 4.65042 20.2608 4.98865 19.34 5.17036C18.0742 3.79764 16.0407 3.45361 14.3938 4.33355C12.7469 5.21348 11.9025 7.09507 12.34 8.91036C9.04236 8.74356 5.97072 7.18411 3.89 4.62036C3.52914 5.25052 3.33952 5.96418 3.34 6.69036C3.3374 8.06007 4.02061 9.34015 5.16 10.1004C4.50798 10.0826 3.86989 9.90766 3.3 9.59036V9.64036C3.31007 11.5883 4.68943 13.2603 6.6 13.6404C6.24326 13.7489 5.87287 13.8062 5.5 13.8104C5.24189 13.8073 4.98442 13.7839 4.73 13.7404C5.27098 15.4065 6.80856 16.5466 8.56 16.5804C7.1172 17.7156 5.33588 18.3352 3.5 18.3404C3.16574 18.3415 2.83174 18.3214 2.5 18.2804C4.37443 19.4906 6.55881 20.1331 8.79 20.1304C11.9003 20.1627 14.893 18.9434 17.0952 16.7469C19.2974 14.5503 20.5243 11.5607 20.5 8.45036C20.5 8.28036 20.5 8.10036 20.5 7.92036C21.2847 7.33517 21.9615 6.61778 22.5 5.80036Z" fill="#303bfe"/>
</svg>
