<svg id="pin" xmlns="http://www.w3.org/2000/svg" width="13.48" height="16.271" viewBox="0 0 13.48 16.271">
  <path id="Caminho_82" data-name="Caminho 82" d="M18.4,12.4a3,3,0,1,1-3-3A3,3,0,0,1,18.4,12.4Zm-1.5,0a1.5,1.5,0,1,1-1.5-1.5A1.5,1.5,0,0,1,16.9,12.4Z" transform="translate(-8.459 -5.459)" fill="#f1f2f6" fill-rule="evenodd"/>
  <path id="Caminho_83" data-name="Caminho 83" d="M6.593,13.122a6.741,6.741,0,1,1,9.53-.234L11.474,17.77,6.593,13.122Zm8.445-1.267-3.615,3.8-3.8-3.615a5.243,5.243,0,1,1,7.413-.182Z" transform="translate(-4.5 -1.5)" fill="#f1f2f6" fill-rule="evenodd"/>
</svg>
