<svg xmlns="http://www.w3.org/2000/svg" width="82.919" height="77.218" viewBox="0 0 82.919 77.218">
  <g id="Grupo_1677" data-name="Grupo 1677" transform="translate(0 0)">
    <path id="Caminho_13736" data-name="Caminho 13736" d="M3074.114,2326.206l-41.823-22.07,18.041-9.517,1.3,2.475-13.347,7.042,35.8,18.892,35.2-19.205-13.12-6.928,1.31-2.474,17.729,9.361Z" transform="translate(-3032.29 -2265.512)" fill="#0e1628"/>
    <path id="Caminho_13737" data-name="Caminho 13737" d="M3074.114,2335.063l-41.823-22.07,18.041-9.519,1.3,2.475-13.347,7.045,35.8,18.892,35.2-19.205-13.12-6.929,1.31-2.474,17.729,9.364Z" transform="translate(-3032.29 -2257.844)" fill="#0e1628"/>
    <path id="Caminho_13738" data-name="Caminho 13738" d="M3069.718,2317.573l-31.429-16.584,35.815-18.9,35.187,18.587-31.454,17.162-.011,3.2,37.384-20.4-41.105-21.708-41.813,22.062,37.4,19.735Z" transform="translate(-3032.29 -2278.927)" fill="#0e1628"/>
    <rect id="Retângulo_852" data-name="Retângulo 852" width="2.094" height="2.094" transform="translate(40.412 39.5)" fill="#303bfe"/>
  </g>
</svg>
