<svg xmlns="http://www.w3.org/2000/svg" width="88.489" height="77.218" viewBox="0 0 88.489 77.218">
  <g id="Grupo_1676" data-name="Grupo 1676" transform="translate(0 0)">
    <path id="Caminho_13735" data-name="Caminho 13735" d="M3026.281,2339.021a9.745,9.745,0,0,0-7.641,3.74l-14.63-9.056c.007-.17.026-.336.026-.509a12.752,12.752,0,0,0-3.884-9.165l7.169-9.572a9.7,9.7,0,0,0,5.074,1.46,9.893,9.893,0,1,0-7.214-3.224l-7.216,9.634a12.592,12.592,0,0,0-9.837-1.533l-7.359-20.9a9.767,9.767,0,1,0-2.614.914l7.375,20.942a12.706,12.706,0,0,0-6.609,14.873l-13.116,5.9a9.731,9.731,0,1,0,1.386,4.939,9.665,9.665,0,0,0-.327-2.378l13.083-5.889a13.024,13.024,0,0,0,2.367,3.157l1.978-1.943a10.023,10.023,0,1,1,8.68,2.651l-2.893,2.872c.382.035.766.059,1.158.059a12.816,12.816,0,0,0,12.309-9.323l13.669,8.464a9.773,9.773,0,0,0,9.067,13.479,9.8,9.8,0,1,0,0-19.6Zm-13.887-39.931a7.029,7.029,0,1,1-7.029,7.028A7.035,7.035,0,0,1,3012.394,2299.09Zm-43.062-7.894a7.028,7.028,0,1,1,7.027,7.029A7.033,7.033,0,0,1,2969.332,2291.2Zm-11.942,63.3a7.028,7.028,0,1,1,7.029-7.028A7.036,7.036,0,0,1,2957.39,2354.5Zm68.891,1.35a7.028,7.028,0,1,1,7.03-7.029A7.037,7.037,0,0,1,3026.281,2355.847Z" transform="translate(-2947.592 -2281.399)" fill="#0e1628"/>
    <rect id="Retângulo_851" data-name="Retângulo 851" width="2.073" height="2.073" transform="translate(37.999 62.483) rotate(-63.842)" fill="#303bfe"/>
  </g>
</svg>
