<svg xmlns="http://www.w3.org/2000/svg" width="18.948" height="18.948" viewBox="0 0 18.948 18.948">
  <path id="instagram" d="M12.632,9.474A3.159,3.159,0,0,0,9.474,6.316,3.159,3.159,0,0,0,6.316,9.474a3.159,3.159,0,0,0,3.158,3.158,3.159,3.159,0,0,0,3.158-3.158Zm1.7,0a4.843,4.843,0,0,1-4.86,4.86,4.843,4.843,0,0,1-4.86-4.86,4.843,4.843,0,0,1,4.86-4.86,4.843,4.843,0,0,1,4.86,4.86Zm1.332-5.058a1.135,1.135,0,1,1-1.936-.8,1.135,1.135,0,0,1,1.936.8ZM9.474,1.7,8.53,1.7q-.857-.006-1.3,0t-1.191.037a9.728,9.728,0,0,0-1.271.123,4.9,4.9,0,0,0-.882.229,3.226,3.226,0,0,0-1.8,1.8,4.95,4.95,0,0,0-.228.882,9.728,9.728,0,0,0-.123,1.271Q1.7,6.785,1.7,7.229t0,1.3q.006.857.006.944t-.006.944q-.006.857,0,1.3t.037,1.191a9.728,9.728,0,0,0,.123,1.271,4.921,4.921,0,0,0,.228.881,3.226,3.226,0,0,0,1.8,1.8,4.95,4.95,0,0,0,.882.228,9.728,9.728,0,0,0,1.271.123q.746.031,1.191.037t1.3,0l.944-.006.944.006q.857.006,1.3,0t1.191-.037a9.727,9.727,0,0,0,1.271-.123,4.951,4.951,0,0,0,.882-.228,3.226,3.226,0,0,0,1.8-1.8,4.95,4.95,0,0,0,.228-.882,9.729,9.729,0,0,0,.123-1.271q.031-.746.037-1.191t0-1.3q-.006-.857-.006-.944t.006-.944q.006-.857,0-1.3t-.037-1.191a9.727,9.727,0,0,0-.123-1.271,4.856,4.856,0,0,0-.229-.881,3.226,3.226,0,0,0-1.8-1.8,4.95,4.95,0,0,0-.882-.228,9.728,9.728,0,0,0-1.271-.123Q12.163,1.7,11.719,1.7t-1.3,0L9.474,1.7Zm9.474,7.772q0,2.825-.062,3.911a5.786,5.786,0,0,1-1.53,3.972,5.786,5.786,0,0,1-3.972,1.53q-1.086.062-3.911.062t-3.911-.062a5.786,5.786,0,0,1-3.972-1.53,5.786,5.786,0,0,1-1.53-3.972Q0,12.3,0,9.474T.062,5.563a5.786,5.786,0,0,1,1.53-3.972A5.786,5.786,0,0,1,5.563.062Q6.649,0,9.474,0t3.911.062a5.786,5.786,0,0,1,3.972,1.53,5.786,5.786,0,0,1,1.53,3.972Q18.948,6.649,18.948,9.474Z" fill="#303bfe"/>
</svg>
