<svg xmlns="http://www.w3.org/2000/svg" xmlns:xlink="http://www.w3.org/1999/xlink" viewBox="0 0 67 169.37"><defs><style>.cls-1{opacity:0.55;isolation:isolate;fill:url(#Gradiente_sem_nome_4);}.cls-2{fill:#f1f2f6;}</style><linearGradient id="Gradiente_sem_nome_4" x1="13.42" y1="84.69" x2="67.42" y2="84.69" gradientUnits="userSpaceOnUse"><stop offset="0" stop-color="#f1f2f6" stop-opacity="0"/><stop offset="1" stop-color="#f1f2f6"/></linearGradient></defs><g id="Camada_2" data-name="Camada 2"><g id="Camada_1-2" data-name="Camada 1"><path class="cls-1" d="M0,0V169.37A87,87,0,0,0,67,84.69,87,87,0,0,0,0,0Z"/><path id="Caminho_12883" data-name="Caminho 12883" class="cls-2" d="M37.21,84.09H31a1.65,1.65,0,0,1-1.65-1.65h0V76.21A1.64,1.64,0,0,1,31,74.56h6.24a1.64,1.64,0,0,1,1.64,1.65h0v6.23A1.65,1.65,0,0,1,37.21,84.09Z"/><path id="Caminho_12884" data-name="Caminho 12884" class="cls-2" d="M48.2,84.09H42a1.64,1.64,0,0,1-1.64-1.65h0V76.21A1.64,1.64,0,0,1,42,74.56H48.2a1.65,1.65,0,0,1,1.65,1.65h0v6.23A1.65,1.65,0,0,1,48.2,84.09Z"/><path id="Caminho_12885" data-name="Caminho 12885" class="cls-2" d="M37.21,95.07H31a1.64,1.64,0,0,1-1.65-1.64h0V87.2A1.65,1.65,0,0,1,31,85.55h6.23a1.64,1.64,0,0,1,1.64,1.65h0v6.23a1.63,1.63,0,0,1-1.64,1.64Z"/><path id="Caminho_12886" data-name="Caminho 12886" class="cls-2" d="M48.2,95.07H42a1.63,1.63,0,0,1-1.64-1.64h0V87.2A1.64,1.64,0,0,1,42,85.55H48.2a1.65,1.65,0,0,1,1.65,1.65h0v6.23a1.64,1.64,0,0,1-1.65,1.64Z"/></g></g></svg>