<svg xmlns="http://www.w3.org/2000/svg" width="69.425" height="57.072" viewBox="0 0 69.425 57.072">
  <g id="Grupo_1699" data-name="Grupo 1699" transform="translate(-3427.923 -2272.297)">
    <g id="Grupo_1554" data-name="Grupo 1554" transform="translate(3441.347 2318.18)">
      <path id="Caminho_13753" data-name="Caminho 13753" d="M3449.033,2307.4q-.482,0-.961-.015l.078-2.511c.3.01.589.015.883.015Z" transform="translate(-3427.758 -2296.21)" fill="#0e1628"/>
      <path id="Caminho_13754" data-name="Caminho 13754" d="M3450.776,2310.157q-1.057-.244-2.081-.564l.75-2.4q.936.292,1.9.513Zm-7.165-2.714q-.95-.515-1.851-1.1l1.36-2.11q.823.529,1.691,1Zm-6.174-4.521q-.779-.749-1.5-1.552l1.874-1.671c.435.487.891.958,1.363,1.412Z" transform="translate(-3435.94 -2299.699)" fill="#303bfe"/>
    </g>
    <path id="Caminho_13756" data-name="Caminho 13756" d="M3448.646,2318.908V2316.4a26.053,26.053,0,0,0,26.024-26.024v-2.563h2.511v2.563A28.567,28.567,0,0,1,3448.646,2318.908Z" transform="translate(13.977 10.461)" fill="#0e1628"/>
    <path id="Caminho_13757" data-name="Caminho 13757" d="M3449.528,2274.822c-.292-.009-.586-.014-.881-.014V2272.3c.321,0,.641,0,.963.013Z" transform="translate(13.975 0)" fill="#0e1628"/>
    <path id="Caminho_13758" data-name="Caminho 13758" d="M3464.266,2281.57q-.64-.6-1.316-1.147l.383-.468,1.206-1.477q.74.6,1.44,1.259l-.777.832Zm-5.012-3.668q-.761-.43-1.547-.806l1.082-2.265q.868.415,1.7.886Zm-5.735-2.377c-.555-.157-1.121-.295-1.692-.412l.51-2.46q.946.2,1.866.456Z" transform="translate(16.124 0.24)" fill="#303bfe"/>
    <path id="Caminho_13760" data-name="Caminho 13760" d="M3434.115,2300.833H3431.6a28.568,28.568,0,0,1,28.537-28.536v2.511A26.054,26.054,0,0,0,3434.115,2300.833Z" transform="translate(2.482 0)" fill="#0e1628"/>
    <path id="Caminho_13761" data-name="Caminho 13761" d="M3473.552,2295.5l-5.722-5.268-5.4,5.246-1.749-1.8,7.1-6.9,7.468,6.878Z" transform="translate(22.096 9.765)" fill="#0e1628"/>
    <path id="Caminho_13762" data-name="Caminho 13762" d="M3435.39,2294.022l-7.468-6.877,1.7-1.848,5.722,5.268,5.394-5.246,1.75,1.8Z" transform="translate(0 8.767)" fill="#0e1628"/>
  </g>
</svg>
