<svg xmlns="http://www.w3.org/2000/svg" width="36.22" height="70" viewBox="0 0 36.22 70">
  <g id="Grupo_1700" data-name="Grupo 1700" transform="translate(-3495.358 -2236.58)">
    <path id="Caminho_13751" data-name="Caminho 13751" d="M3529.015,2292.839l-3.517-23.881a12.725,12.725,0,0,0-25.253.6l-2.31,23.225-2.577-.257,2.31-23.225a15.317,15.317,0,0,1,30.395-.717l3.516,23.882Z" transform="translate(0 13.741)" fill="#0e1628"/>
    <path id="Caminho_13752" data-name="Caminho 13752" d="M3510.454,2236.581a10.921,10.921,0,0,0-9.885,15.608l2.015-1.979a8.257,8.257,0,0,1-.482-2.686,8.353,8.353,0,1,1,8.352,8.354,8.216,8.216,0,0,1-2.56-.444l-2.028,2.012a10.938,10.938,0,1,0,4.588-20.864Z" transform="translate(3.018 0)" fill="#0e1628"/>
    <rect id="Retângulo_883" data-name="Retângulo 883" width="1.938" height="1.938" transform="translate(3505.373 2254.371) rotate(-45)" fill="#303bfe"/>
  </g>
</svg>
