<svg xmlns="http://www.w3.org/2000/svg" width="179" height="179" viewBox="0 0 179 179">
  <g id="Grupo_1496" data-name="Grupo 1496" transform="translate(1.284 1.275)">
    <circle id="Elipse_1074" data-name="Elipse 1074" cx="88" cy="88" r="88" transform="translate(0.216 0.225)" fill="none" stroke="#303bfe" stroke-width="3" opacity="0.34"/>
    <path id="Caminho_13364" data-name="Caminho 13364" d="M1167.633,206.847a87.568,87.568,0,0,1,72.059,37.724" transform="translate(-1079.975 -206.435)" fill="none" stroke="#303bfe" stroke-linecap="round" stroke-width="3"/>
    <ellipse id="Elipse_3" data-name="Elipse 3" cx="6.805" cy="6.805" rx="6.805" ry="6.805" transform="translate(152.912 31.332)" fill="#303bfe"/>
    <ellipse id="Elipse_1075" data-name="Elipse 1075" cx="71.223" cy="71.223" rx="71.223" ry="71.223" transform="translate(16.436 17.377)" fill="none" stroke="#0e1628" stroke-linecap="round" stroke-miterlimit="10" stroke-width="3" stroke-dasharray="0.01 11"/>
    <g id="Grupo_1303" data-name="Grupo 1303" transform="translate(41.824 42.763)">
      <rect id="Retângulo_765" data-name="Retângulo 765" width="8.052" height="4.108" transform="translate(64.568 24.009) rotate(-46.504)" fill="#303bfe"/>
      <rect id="Retângulo_766" data-name="Retângulo 766" width="8.054" height="4.108" transform="translate(18.353 70.352) rotate(-46.504)" fill="#303bfe"/>
      <rect id="Retângulo_767" data-name="Retângulo 767" width="8.052" height="4.108" transform="translate(74.367 43.68) rotate(-1.493)" fill="#303bfe"/>
      <rect id="Retângulo_768" data-name="Retângulo 768" width="8.054" height="4.108" transform="translate(8.92 43.771) rotate(-1.493)" fill="#303bfe"/>
      <rect id="Retângulo_769" data-name="Retângulo 769" width="4.108" height="8.053" transform="translate(64.558 67.499) rotate(-46.501)" fill="#303bfe"/>
      <rect id="Retângulo_770" data-name="Retângulo 770" width="4.108" height="8.053" transform="matrix(0.688, -0.726, 0.726, 0.688, 18.216, 21.286)" fill="#303bfe"/>
      <rect id="Retângulo_771" data-name="Retângulo 771" width="4.108" height="8.052" transform="translate(43.608 74.427) rotate(-1.513)" fill="#303bfe"/>
      <rect id="Retângulo_772" data-name="Retângulo 772" width="4.108" height="8.052" transform="translate(43.517 8.979) rotate(-1.513)" fill="#303bfe"/>
      <rect id="Retângulo_773" data-name="Retângulo 773" width="19.295" height="4.109" transform="matrix(0.702, -0.712, 0.712, 0.702, 44.374, 44.399)" fill="#303bfe"/>
      <ellipse id="Elipse_1076" data-name="Elipse 1076" cx="5.8" cy="5.8" rx="5.8" ry="5.8" transform="translate(40.036 40.038)" fill="#303bfe"/>
      <rect id="Retângulo_774" data-name="Retângulo 774" width="4.102" height="4.102" transform="matrix(0.839, 0.544, -0.544, 0.839, 24.048, 81.011)" fill="#0e1628"/>
      <path id="Caminho_13365" data-name="Caminho 13365" d="M1196.736,222.307a45.769,45.769,0,0,0-30.766,79.715l2.932-2.879a42.013,42.013,0,1,1,18.244,9.571l-3.388,3.367a45.827,45.827,0,1,0,12.979-89.774Z" transform="translate(-1150.901 -222.307)" fill="#303bfe"/>
    </g>
  </g>
</svg>
