<svg xmlns="http://www.w3.org/2000/svg" width="179.216" height="179.161" viewBox="0 0 179.216 179.161">
  <g id="Grupo_1495" data-name="Grupo 1495" transform="translate(1.5 1.39)">
    <g id="Grupo_1301" data-name="Grupo 1301" transform="translate(42.397 59.09)">
      <path id="Caminho_13362" data-name="Caminho 13362" d="M1224.982,352.055a35.081,35.081,0,0,0-62.184,10.607,17.427,17.427,0,0,0,.6,33.108l3.211-3.15a13.644,13.644,0,0,1-1.756-26.649l1.046-.293.271-1.052a31.305,31.305,0,0,1,56.171-9.758l.479.7.847.107a18.618,18.618,0,0,1-2.323,37.091h-35.585l-3.8,3.775h39.384a22.393,22.393,0,0,0,3.635-44.49Z" transform="translate(-1151.11 -337.416)" fill="#303bfe"/>
      <rect id="Retângulo_764" data-name="Retângulo 764" width="3.798" height="3.798" transform="translate(21.279 55.333)" fill="#0e1628"/>
    </g>
    <circle id="Elipse_1072" data-name="Elipse 1072" cx="88" cy="88" r="88" transform="translate(0.216 0.11)" fill="none" stroke="#303bfe" stroke-width="3" opacity="0.34"/>
    <path id="Caminho_13363" data-name="Caminho 13363" d="M1223.536,316.015a87.877,87.877,0,1,1-47.289,13.793" transform="translate(-1135.633 -315.551)" fill="none" stroke="#303bfe" stroke-linecap="round" stroke-width="3"/>
    <ellipse id="Elipse_3" data-name="Elipse 3" cx="6.805" cy="6.805" rx="6.805" ry="6.805" transform="translate(33.882 7.702)" fill="#303bfe"/>
    <ellipse id="Elipse_1073" data-name="Elipse 1073" cx="71.224" cy="71.224" rx="71.224" ry="71.224" transform="translate(16.437 17.431)" fill="none" stroke="#0e1628" stroke-linecap="round" stroke-miterlimit="10" stroke-width="3" stroke-dasharray="0.01 11"/>
  </g>
</svg>
