<svg xmlns="http://www.w3.org/2000/svg" xmlns:xlink="http://www.w3.org/1999/xlink" width="1478.727" height="993.318" viewBox="0 0 1478.727 993.318">
  <defs>
    <linearGradient id="linear-gradient" x1="0.048" y1="0.387" x2="0.984" y2="0.523" gradientUnits="objectBoundingBox">
      <stop offset="0" stop-color="#303bfe" stop-opacity="0"/>
      <stop offset="1" stop-color="#303bfe"/>
    </linearGradient>
  </defs>
  <g id="Grupo_2027" data-name="Grupo 2027" transform="translate(0 -89.626)">
    <rect id="Retângulo_85" data-name="Retângulo 85" width="466.758" height="32.744" transform="matrix(0.694, -0.72, 0.72, 0.694, 926.061, 1024.328)" fill="url(#linear-gradient)"/>
    <rect id="Retângulo_94" data-name="Retângulo 94" width="466.758" height="32.744" transform="matrix(0.694, -0.72, 0.72, 0.694, 1131.177, 992.541)" fill="url(#linear-gradient)"/>
    <rect id="Retângulo_86" data-name="Retângulo 86" width="466.758" height="32.744" transform="matrix(0.694, -0.72, 0.72, 0.694, 745.204, 813.173)" fill="url(#linear-gradient)"/>
    <rect id="Retângulo_96" data-name="Retângulo 96" width="466.758" height="32.744" transform="matrix(0.694, -0.72, 0.72, 0.694, 0, 813.173)" fill="url(#linear-gradient)"/>
    <rect id="Retângulo_87" data-name="Retângulo 87" width="466.758" height="32.744" transform="matrix(0.694, -0.72, 0.72, 0.694, 448.557, 765.552)" fill="url(#linear-gradient)"/>
    <rect id="Retângulo_93" data-name="Retângulo 93" width="466.758" height="32.744" transform="matrix(0.694, -0.72, 0.72, 0.694, 396.502, 555.763)" fill="url(#linear-gradient)"/>
    <rect id="Retângulo_89" data-name="Retângulo 89" width="466.758" height="17.647" transform="matrix(0.694, -0.72, 0.72, 0.694, 143.498, 1013.551)" fill="url(#linear-gradient)"/>
    <rect id="Retângulo_90" data-name="Retângulo 90" width="466.758" height="17.647" transform="matrix(0.694, -0.72, 0.72, 0.694, 680.107, 522.919)" fill="url(#linear-gradient)"/>
    <rect id="Retângulo_97" data-name="Retângulo 97" width="466.758" height="17.647" transform="matrix(0.694, -0.72, 0.72, 0.694, 1029.108, 452.828)" fill="url(#linear-gradient)"/>
    <rect id="Retângulo_103" data-name="Retângulo 103" width="466.758" height="17.647" transform="matrix(0.694, -0.72, 0.72, 0.694, 202.338, 491.166)" fill="url(#linear-gradient)"/>
    <rect id="Retângulo_95" data-name="Retângulo 95" width="466.758" height="17.647" transform="matrix(0.694, -0.72, 0.72, 0.694, 10.868, 626.956)" fill="url(#linear-gradient)"/>
    <rect id="Retângulo_104" data-name="Retângulo 104" width="466.758" height="17.647" transform="matrix(0.694, -0.72, 0.72, 0.694, 423.497, 425.634)" fill="url(#linear-gradient)"/>
    <rect id="Retângulo_91" data-name="Retângulo 91" width="466.758" height="17.647" transform="matrix(0.694, -0.72, 0.72, 0.694, 1075.854, 735.131)" fill="url(#linear-gradient)"/>
    <rect id="Retângulo_92" data-name="Retângulo 92" width="466.758" height="17.647" transform="matrix(0.694, -0.72, 0.72, 0.694, 323.497, 1070.696)" fill="url(#linear-gradient)"/>
    <rect id="Retângulo_101" data-name="Retângulo 101" width="466.758" height="17.647" transform="matrix(0.694, -0.72, 0.72, 0.694, 622.331, 839.423)" fill="url(#linear-gradient)"/>
    <rect id="Retângulo_102" data-name="Retângulo 102" width="466.758" height="17.647" transform="matrix(0.694, -0.72, 0.72, 0.694, 680.177, 1034.807)" fill="url(#linear-gradient)"/>
  </g>
</svg>
