<svg xmlns="http://www.w3.org/2000/svg" width="487.569" height="442.377" viewBox="0 0 487.569 442.377">
  <g id="Grupo_1488" data-name="Grupo 1488" transform="translate(914.161 -6737.876)">
    <path id="Caminho_13606" data-name="Caminho 13606" d="M-913.486,6985.027l51.568-116.711a9.947,9.947,0,0,1,13.433-4.935l109.772,53.089a12.684,12.684,0,0,0,17.621-15.221l-36.529-116.235a9.949,9.949,0,0,1,6.811-12.565l122.553-34.274a7.708,7.708,0,0,1,9.218,10.33l-77.07,189.384a14.5,14.5,0,0,1-9.949,8.612l-198.522,49.131A7.712,7.712,0,0,1-913.486,6985.027Z" transform="translate(0 -0.001)" fill="#303bfe"/>
    <path id="Caminho_13607" data-name="Caminho 13607" d="M-204.057,6749.3l95.542,84.574a9.95,9.95,0,0,1,.624,14.3l-83.915,88.469a12.683,12.683,0,0,0,9.151,21.41l121.84.492a9.949,9.949,0,0,1,9.9,10.306l-4.558,127.174a7.708,7.708,0,0,1-12.643,5.644l-157.038-130.938a14.5,14.5,0,0,1-5.184-12.093l13.473-204.066A7.712,7.712,0,0,1-204.057,6749.3Z" transform="translate(-375.685 -5.204)" fill="#0e1628"/>
    <path id="Caminho_13608" data-name="Caminho 13608" d="M-451.442,7480l-125.235,24.44a9.949,9.949,0,0,1-11.731-8.2l-19.224-120.41a12.683,12.683,0,0,0-22.562-5.752l-74.463,96.439a9.947,9.947,0,0,1-14.2,1.6l-98.2-80.934a7.707,7.707,0,0,1,3.2-13.468l199.434-45.081a14.5,14.5,0,0,1,12.753,3.237l153.833,134.759A7.712,7.712,0,0,1-451.442,7480Z" transform="translate(-51.802 -324.377)" fill="#0feb9a"/>
  </g>
</svg>
