<svg xmlns="http://www.w3.org/2000/svg" width="178.245" height="177.834" viewBox="0 0 178.245 177.834">
  <g id="Grupo_1494" data-name="Grupo 1494" transform="translate(1.5 1.5)">
    <ellipse id="Elipse_1077" data-name="Elipse 1077" cx="87.5" cy="87" rx="87.5" ry="87" transform="translate(0.245 0.475)" fill="none" stroke="#303bfe" stroke-width="3" opacity="0.34"/>
    <path id="Caminho_13366" data-name="Caminho 13366" d="M1223.05,414.006a87.4,87.4,0,1,1-71.644,37.316" transform="translate(-1135.633 -414.006)" fill="none" stroke="#303bfe" stroke-linecap="round" stroke-width="3"/>
    <ellipse id="Elipse_3" data-name="Elipse 3" cx="6.823" cy="6.823" rx="6.823" ry="6.823" transform="translate(9.174 28.977)" fill="#303bfe"/>
    <ellipse id="Elipse_1078" data-name="Elipse 1078" cx="71.421" cy="71.421" rx="71.421" ry="71.421" transform="translate(15.997 16.527)" fill="none" stroke="#0e1628" stroke-linecap="round" stroke-miterlimit="10" stroke-width="3" stroke-dasharray="0.01 11"/>
    <g id="Grupo_1667" data-name="Grupo 1667" transform="translate(-3581.679 -2301.066)">
      <rect id="Retângulo_950" data-name="Retângulo 950" width="2.455" height="2.455" transform="translate(3668.29 2398.013)" fill="#0e1628"/>
      <g id="Grupo_1666" data-name="Grupo 1666" transform="translate(3629.785 2344.514)">
        <path id="Caminho_13812" data-name="Caminho 13812" d="M3666.75,2369.548a8.423,8.423,0,1,1,8.422-8.422A8.433,8.433,0,0,1,3666.75,2369.548Zm0-14.659a6.236,6.236,0,1,0,6.234,6.237A6.241,6.241,0,0,0,3666.75,2354.89Z" transform="translate(-3595.893 -2334.791)" fill="#303bfe"/>
        <path id="Caminho_13813" data-name="Caminho 13813" d="M3666.75,2385.97a8.422,8.422,0,1,1,8.422-8.424A8.435,8.435,0,0,1,3666.75,2385.97Zm0-14.656a6.234,6.234,0,1,0,6.234,6.232A6.24,6.24,0,0,0,3666.75,2371.314Z" transform="translate(-3595.893 -2315.286)" fill="#303bfe"/>
        <path id="Caminho_13814" data-name="Caminho 13814" d="M3638.209,2369.548a8.423,8.423,0,1,1,8.422-8.422A8.433,8.433,0,0,1,3638.209,2369.548Zm0-14.659a6.236,6.236,0,1,0,6.234,6.237A6.241,6.241,0,0,0,3638.209,2354.89Z" transform="translate(-3629.785 -2334.791)" fill="#303bfe"/>
        <path id="Caminho_13815" data-name="Caminho 13815" d="M3652.521,2361.361a8.423,8.423,0,1,1,8.422-8.425A8.435,8.435,0,0,1,3652.521,2361.361Zm0-14.659a6.236,6.236,0,1,0,6.234,6.234A6.243,6.243,0,0,0,3652.521,2346.7Z" transform="translate(-3612.789 -2344.514)" fill="#303bfe"/>
        <path id="Caminho_13816" data-name="Caminho 13816" d="M3652.521,2394.343a8.422,8.422,0,1,1,8.422-8.424A8.435,8.435,0,0,1,3652.521,2394.343Zm0-14.656a6.234,6.234,0,1,0,6.234,6.232A6.241,6.241,0,0,0,3652.521,2379.687Z" transform="translate(-3612.789 -2305.343)" fill="#303bfe"/>
        <path id="Caminho_13817" data-name="Caminho 13817" d="M3638.209,2385.97a8.422,8.422,0,1,1,8.422-8.424A8.435,8.435,0,0,1,3638.209,2385.97Zm0-14.656a6.234,6.234,0,1,0,6.234,6.232A6.24,6.24,0,0,0,3638.209,2371.314Z" transform="translate(-3629.785 -2315.286)" fill="#303bfe"/>
        <path id="Caminho_13818" data-name="Caminho 13818" d="M3667.768,2374.59l-16.719,9.839a8.221,8.221,0,0,1,.835,1.413L3668.6,2376A8.418,8.418,0,0,1,3667.768,2374.59Z" transform="translate(-3604.533 -2308.797)" fill="#303bfe"/>
        <path id="Caminho_13819" data-name="Caminho 13819" d="M3662.622,2360.448c-.282,0-.547-.057-.82-.083v19.248a7.687,7.687,0,0,1,.82-.083,7.791,7.791,0,0,1,.82.083v-19.248C3663.167,2360.391,3662.9,2360.448,3662.622,2360.448Z" transform="translate(-3591.765 -2325.69)" fill="#303bfe"/>
        <path id="Caminho_13820" data-name="Caminho 13820" d="M3668.523,2359.516l-16.628-9.57a8.361,8.361,0,0,1-.822,1.422l16.627,9.568A8.629,8.629,0,0,1,3668.523,2359.516Z" transform="translate(-3604.505 -2338.063)" fill="#303bfe"/>
        <path id="Caminho_13821" data-name="Caminho 13821" d="M3637.585,2360.965l16.789-9.605a8.378,8.378,0,0,1-.818-1.422l-16.789,9.6A8.363,8.363,0,0,1,3637.585,2360.965Z" transform="translate(-3621.493 -2338.073)" fill="#303bfe"/>
        <path id="Caminho_13822" data-name="Caminho 13822" d="M3633.261,2360.365v19.248a7.674,7.674,0,0,1,.82-.083,7.8,7.8,0,0,1,.82.083v-19.248c-.276.026-.541.083-.82.083S3633.535,2360.391,3633.261,2360.365Z" transform="translate(-3625.657 -2325.69)" fill="#303bfe"/>
        <path id="Caminho_13823" data-name="Caminho 13823" d="M3636.744,2376l16.879,9.875a8.517,8.517,0,0,1,.832-1.416l-16.879-9.872A8.3,8.3,0,0,1,3636.744,2376Z" transform="translate(-3621.521 -2308.807)" fill="#303bfe"/>
        <g id="Grupo_1665" data-name="Grupo 1665" transform="translate(15.263 16.763)">
          <path id="Caminho_13824" data-name="Caminho 13824" d="M3647.573,2370.868v14.589a4.071,4.071,0,0,1,1.641,0v-14.589Z" transform="translate(-3623.924 -2329.981)" fill="#303bfe"/>
          <path id="Caminho_13825" data-name="Caminho 13825" d="M3673.489,2379.913a12.16,12.16,0,0,0-1.3-5.447l13.357-7.794a8.512,8.512,0,0,1-.831-1.417l-13.344,7.79a12.258,12.258,0,0,0-9.323-5.345v-15.522c-.273.026-.541.083-.82.083s-.547-.057-.82-.083V2367.7a12.249,12.249,0,0,0-9.293,5.3l-13.537-7.79a8.328,8.328,0,0,1-.82,1.419l13.53,7.786a12.125,12.125,0,0,0-.09,10.811l-13.407,7.606a8.548,8.548,0,0,1,.812,1.426l13.4-7.6a12.308,12.308,0,0,0,5.559,4.563V2387.6a9.031,9.031,0,1,1,9.186.081v3.592a12.288,12.288,0,0,0,5.733-4.664l13.213,7.6a8.512,8.512,0,0,1,.823-1.42l-13.235-7.615A12.165,12.165,0,0,0,3673.489,2379.913Z" transform="translate(-3636.762 -2352.177)" fill="#303bfe"/>
        </g>
      </g>
    </g>
  </g>
</svg>
