<svg xmlns="http://www.w3.org/2000/svg" width="23.451" height="23.451" viewBox="0 0 23.451 23.451">
  <path id="instagram" d="M15.634,11.725a3.91,3.91,0,0,0-3.908-3.908,3.91,3.91,0,0,0-3.908,3.908,3.91,3.91,0,0,0,3.908,3.908,3.91,3.91,0,0,0,3.908-3.908Zm2.107,0a5.994,5.994,0,0,1-6.015,6.015A5.994,5.994,0,0,1,5.71,11.725,5.994,5.994,0,0,1,11.725,5.71a5.994,5.994,0,0,1,6.015,6.015Zm1.649-6.259a1.4,1.4,0,1,1-2.4-.992,1.4,1.4,0,0,1,2.4.992ZM11.725,2.107,10.557,2.1Q9.5,2.091,8.946,2.1t-1.473.046A12.04,12.04,0,0,0,5.9,2.3a6.067,6.067,0,0,0-1.091.283A3.993,3.993,0,0,0,2.58,4.809,6.127,6.127,0,0,0,2.3,5.9a12.04,12.04,0,0,0-.152,1.572Q2.107,8.4,2.1,8.947t0,1.611q.008,1.061.008,1.168T2.1,12.894q-.008,1.061,0,1.611t.046,1.473A12.04,12.04,0,0,0,2.3,17.551a6.09,6.09,0,0,0,.283,1.09A3.993,3.993,0,0,0,4.809,20.87a6.126,6.126,0,0,0,1.092.283,12.039,12.039,0,0,0,1.572.152q.924.038,1.473.046t1.611,0l1.168-.008,1.168.008q1.061.008,1.611,0t1.473-.046a12.038,12.038,0,0,0,1.572-.152,6.127,6.127,0,0,0,1.092-.283,3.993,3.993,0,0,0,2.229-2.229,6.127,6.127,0,0,0,.283-1.092,12.041,12.041,0,0,0,.152-1.572q.038-.924.046-1.473t0-1.611q-.008-1.061-.008-1.168t.008-1.168q.008-1.061,0-1.611t-.046-1.473A12.039,12.039,0,0,0,21.154,5.9a6.01,6.01,0,0,0-.284-1.09A3.993,3.993,0,0,0,18.641,2.58,6.127,6.127,0,0,0,17.549,2.3a12.04,12.04,0,0,0-1.572-.152Q15.053,2.107,14.5,2.1t-1.611,0l-1.168.008Zm11.725,9.619q0,3.5-.076,4.84a7.161,7.161,0,0,1-1.893,4.916,7.161,7.161,0,0,1-4.916,1.893q-1.344.076-4.84.076t-4.84-.076a7.161,7.161,0,0,1-4.916-1.893A7.161,7.161,0,0,1,.076,16.565Q0,15.221,0,11.725t.076-4.84A7.161,7.161,0,0,1,1.969,1.969,7.161,7.161,0,0,1,6.885.076Q8.229,0,11.725,0t4.84.076a7.161,7.161,0,0,1,4.916,1.893,7.161,7.161,0,0,1,1.893,4.916Q23.451,8.229,23.451,11.725Z" fill="#f1f2f6"/>
</svg>
