<svg xmlns="http://www.w3.org/2000/svg" width="15.828" height="15.83" viewBox="0 0 15.828 15.83">
  <path id="phone" d="M15.61,13.163l-2.232,2.214a1.615,1.615,0,0,1-1.191.453A10.322,10.322,0,0,1,7.069,13.9,19.741,19.741,0,0,1,1.095,7.385,8.431,8.431,0,0,1,0,3.67,1.625,1.625,0,0,1,.457,2.463L2.689.232A.738.738,0,0,1,3.9.433l1.8,3.4a.989.989,0,0,1-.2,1.124l-.822.822a.405.405,0,0,0-.084.235A7.01,7.01,0,0,0,6.7,9.138c.844.774,1.751,1.823,2.928,2.072a.464.464,0,0,0,.428-.042l.956-.973a1.092,1.092,0,0,1,1.158-.168h.017l3.239,1.912a.779.779,0,0,1,.185,1.224Z" transform="translate(0 0)" fill="#f1f2f6"/>
</svg>
