<svg id="Grupo_1418" data-name="Grupo 1418" xmlns="http://www.w3.org/2000/svg" width="511.635" height="722.92" viewBox="0 0 511.635 722.92">
  <g id="Grupo_1416" data-name="Grupo 1416" transform="translate(0 21.018)">
    <path id="Caminho_13610" data-name="Caminho 13610" d="M3297.784,313.676h0a1.523,1.523,0,0,1,1.38.842l32.557,63.647a3.9,3.9,0,0,1,0,3.544l-32.529,63.679a1.553,1.553,0,0,1-2.782-.04l-19.131-40.3a2.315,2.315,0,0,1,1.186-3.12l39.28-16.868a5.579,5.579,0,0,0,.006-10.257l-39.223-16.916a2.314,2.314,0,0,1-1.182-3.116l19.034-40.213a1.516,1.516,0,0,1,1.4-.884m0-1.156a2.672,2.672,0,0,0-2.447,1.546L3276.3,354.278a3.469,3.469,0,0,0,1.77,4.671l39.223,16.915a4.424,4.424,0,0,1-.006,8.135l-39.279,16.868a3.47,3.47,0,0,0-1.773,4.677l19.129,40.3a2.71,2.71,0,0,0,4.857.07l32.529-63.679a5.045,5.045,0,0,0,0-4.6l-32.558-63.646a2.672,2.672,0,0,0-2.409-1.472Z" transform="translate(-3102.904 -140.55)" fill="#f1f2f6"/>
    <path id="Caminho_13611" data-name="Caminho 13611" d="M3362.125,169.9h0a1.515,1.515,0,0,1,1.4.882l19.131,40.3a2.315,2.315,0,0,1-1.185,3.12l-39.279,16.868a5.579,5.579,0,0,0-.007,10.257l39.222,16.915a2.317,2.317,0,0,1,1.184,3.116l-19.035,40.213a1.553,1.553,0,0,1-2.782.042l-32.558-63.647a3.9,3.9,0,0,1,0-3.544l32.528-63.679a1.524,1.524,0,0,1,1.381-.842m0-1.156a2.672,2.672,0,0,0-2.409,1.473L3327.187,233.9a5.047,5.047,0,0,0,0,4.6l32.557,63.646a2.709,2.709,0,0,0,4.857-.074l19.033-40.213a3.468,3.468,0,0,0-1.77-4.671l-39.222-16.915a4.424,4.424,0,0,1,.005-8.135l39.279-16.868a3.47,3.47,0,0,0,1.774-4.677l-19.128-40.3a2.681,2.681,0,0,0-2.448-1.543Z" transform="translate(-3124.149 -80.345)" fill="#f1f2f6"/>
    <path id="Caminho_13612" data-name="Caminho 13612" d="M3148.292,606.187h0a1.522,1.522,0,0,1,1.38.842l32.556,63.646a3.9,3.9,0,0,1,0,3.544L3149.7,737.9a1.553,1.553,0,0,1-2.782-.04l-19.13-40.3a2.314,2.314,0,0,1,1.186-3.12l39.278-16.869a5.579,5.579,0,0,0,.008-10.257L3129.038,650.4a2.313,2.313,0,0,1-1.256-1.314,2.287,2.287,0,0,1,.073-1.8l19.034-40.213a1.519,1.519,0,0,1,1.4-.884m0-1.156a2.676,2.676,0,0,0-2.447,1.547l-19.034,40.213a3.471,3.471,0,0,0,1.77,4.672l39.222,16.915a4.423,4.423,0,0,1-.006,8.134l-39.279,16.869a3.47,3.47,0,0,0-1.773,4.677l19.13,40.3a2.71,2.71,0,0,0,4.856.071l32.528-63.68a5.042,5.042,0,0,0,0-4.6L3150.7,606.5a2.672,2.672,0,0,0-2.409-1.472Z" transform="translate(-3040.304 -263.039)" fill="#f1f2f6"/>
    <path id="Caminho_13613" data-name="Caminho 13613" d="M3000.156,901.812h0a1.522,1.522,0,0,1,1.379.842l32.557,63.647a3.908,3.908,0,0,1,0,3.544l-32.529,63.68a1.554,1.554,0,0,1-2.783-.04l-19.129-40.3a2.314,2.314,0,0,1,1.185-3.12l39.278-16.869a5.578,5.578,0,0,0,.008-10.257L2980.9,946.025a2.313,2.313,0,0,1-1.255-1.314,2.288,2.288,0,0,1,.073-1.8l19.034-40.212a1.519,1.519,0,0,1,1.4-.884m0-1.156a2.676,2.676,0,0,0-2.448,1.546l-19.034,40.213a3.47,3.47,0,0,0,1.77,4.672L3019.666,964a4.423,4.423,0,0,1-.006,8.134L2980.381,989a3.469,3.469,0,0,0-1.773,4.677l19.129,40.3a2.71,2.71,0,0,0,4.857.07l32.529-63.68a5.051,5.051,0,0,0,0-4.6l-32.558-63.647a2.675,2.675,0,0,0-2.409-1.472Z" transform="translate(-2978.272 -386.831)" fill="#f1f2f6"/>
    <path id="Caminho_13614" data-name="Caminho 13614" d="M3212.634,462.414h0a1.517,1.517,0,0,1,1.4.882l19.13,40.3a2.314,2.314,0,0,1-1.186,3.119L3192.7,523.584a5.579,5.579,0,0,0-.007,10.257l39.222,16.915a2.315,2.315,0,0,1,1.184,3.115l-19.034,40.213a1.554,1.554,0,0,1-2.784.042l-32.556-63.647a3.9,3.9,0,0,1,0-3.544l32.528-63.68a1.524,1.524,0,0,1,1.381-.842m0-1.156a2.671,2.671,0,0,0-2.41,1.473L3177.7,526.41a5.046,5.046,0,0,0,0,4.6l32.558,63.647a2.709,2.709,0,0,0,4.857-.074l19.033-40.213a3.469,3.469,0,0,0-1.769-4.671l-39.223-16.915a4.423,4.423,0,0,1,.005-8.134l39.279-16.869a3.47,3.47,0,0,0,1.774-4.677l-19.129-40.3a2.677,2.677,0,0,0-2.447-1.543Z" transform="translate(-3061.549 -202.834)" fill="#f1f2f6"/>
    <path id="Caminho_13615" data-name="Caminho 13615" d="M3103.075,993.359h0a1.523,1.523,0,0,1,1.38.842l32.557,63.647a3.9,3.9,0,0,1,0,3.544l-32.529,63.679a1.554,1.554,0,0,1-2.783-.04l-19.13-40.3a2.315,2.315,0,0,1,1.186-3.119l39.279-16.869a5.579,5.579,0,0,0,.007-10.257l-39.223-16.915a2.313,2.313,0,0,1-1.182-3.116l19.033-40.213a1.521,1.521,0,0,1,1.4-.884m0-1.156a2.676,2.676,0,0,0-2.448,1.546l-19.034,40.213a3.469,3.469,0,0,0,1.77,4.672l39.223,16.915a4.424,4.424,0,0,1-.006,8.134L3083.3,1080.55a3.47,3.47,0,0,0-1.773,4.677l19.129,40.3a2.711,2.711,0,0,0,4.857.071l32.528-63.68a5.046,5.046,0,0,0,0-4.6l-32.558-63.647a2.672,2.672,0,0,0-2.409-1.471Z" transform="translate(-3021.37 -425.167)" fill="#f1f2f6"/>
    <path id="Caminho_13616" data-name="Caminho 13616" d="M3167.416,849.585h0a1.516,1.516,0,0,1,1.4.882l19.13,40.3a2.315,2.315,0,0,1-1.185,3.119l-39.28,16.869a5.579,5.579,0,0,0-.006,10.258l39.222,16.915a2.315,2.315,0,0,1,1.184,3.115l-19.035,40.213a1.552,1.552,0,0,1-2.782.042l-32.558-63.646a3.9,3.9,0,0,1,0-3.545l32.529-63.679a1.522,1.522,0,0,1,1.38-.843m0-1.156a2.674,2.674,0,0,0-2.41,1.472l-32.528,63.679a5.047,5.047,0,0,0,0,4.6l32.558,63.647a2.709,2.709,0,0,0,4.856-.074l19.034-40.213a3.469,3.469,0,0,0-1.769-4.672l-39.223-16.915a4.424,4.424,0,0,1,.005-8.134l39.279-16.869a3.469,3.469,0,0,0,1.774-4.677l-19.13-40.3a2.675,2.675,0,0,0-2.447-1.543Z" transform="translate(-3042.614 -364.962)" fill="#f1f2f6"/>
    <path id="Caminho_13617" data-name="Caminho 13617" d="M3063.143,742.53h0a1.517,1.517,0,0,1,1.4.882l19.129,40.3a2.312,2.312,0,0,1-1.185,3.119L3043.21,803.7a5.58,5.58,0,0,0-.008,10.257l39.223,16.915a2.316,2.316,0,0,1,1.183,3.116L3064.575,874.2a1.554,1.554,0,0,1-2.784.042L3029.235,810.6a3.9,3.9,0,0,1,0-3.544l32.53-63.679a1.52,1.52,0,0,1,1.38-.842m0-1.156a2.675,2.675,0,0,0-2.411,1.472L3028.2,806.526a5.045,5.045,0,0,0,0,4.6l32.556,63.647a2.709,2.709,0,0,0,4.857-.074l19.034-40.213a3.469,3.469,0,0,0-1.77-4.671L3043.661,812.9a4.423,4.423,0,0,1,.006-8.134l39.279-16.868a3.471,3.471,0,0,0,1.774-4.677l-19.13-40.3a2.676,2.676,0,0,0-2.448-1.543Z" transform="translate(-2998.949 -320.132)" fill="#f1f2f6"/>
    <path id="Caminho_13618" data-name="Caminho 13618" d="M3391.017,399.13h0a1.522,1.522,0,0,1,1.38.842l32.558,63.646a3.909,3.909,0,0,1,0,3.544l-32.528,63.679a1.555,1.555,0,0,1-2.784-.04l-19.129-40.3a2.315,2.315,0,0,1,1.185-3.12l39.279-16.868a5.58,5.58,0,0,0,.008-10.257l-39.223-16.915a2.309,2.309,0,0,1-1.257-1.314,2.285,2.285,0,0,1,.074-1.8l19.034-40.213a1.516,1.516,0,0,1,1.4-.884m0-1.156a2.673,2.673,0,0,0-2.446,1.546l-19.035,40.213a3.47,3.47,0,0,0,1.771,4.671l39.223,16.915a4.423,4.423,0,0,1-.006,8.134l-39.279,16.868a3.47,3.47,0,0,0-1.773,4.677l19.129,40.3a2.71,2.71,0,0,0,4.857.07l32.529-63.679a5.045,5.045,0,0,0,0-4.6l-32.557-63.647a2.674,2.674,0,0,0-2.41-1.472Z" transform="translate(-3141.947 -176.333)" fill="#f1f2f6"/>
    <path id="Caminho_13619" data-name="Caminho 13619" d="M3439.046,17.813h0a1.523,1.523,0,0,1,1.379.842L3472.982,82.3a3.9,3.9,0,0,1,0,3.544l-32.528,63.679a1.555,1.555,0,0,1-2.784-.04l-19.128-40.3a2.314,2.314,0,0,1,1.185-3.12L3459.007,89.2a5.579,5.579,0,0,0,.007-10.257l-39.223-16.916a2.316,2.316,0,0,1-1.184-3.116L3437.643,18.7a1.516,1.516,0,0,1,1.4-.884m0-1.156A2.677,2.677,0,0,0,3436.6,18.2l-19.033,40.212a3.469,3.469,0,0,0,1.77,4.672L3458.556,80a4.424,4.424,0,0,1-.005,8.135L3419.271,105a3.469,3.469,0,0,0-1.773,4.677l19.129,40.3a2.71,2.71,0,0,0,4.857.07l32.529-63.679a5.054,5.054,0,0,0,0-4.6l-32.557-63.646a2.674,2.674,0,0,0-2.41-1.472Z" transform="translate(-3162.057 -16.657)" fill="#f1f2f6"/>
    <path id="Caminho_13620" data-name="Caminho 13620" d="M3455.359,255.357h0a1.519,1.519,0,0,1,1.4.882l19.128,40.3a2.312,2.312,0,0,1-1.185,3.119l-39.279,16.868a5.58,5.58,0,0,0-.007,10.258l39.223,16.915a2.314,2.314,0,0,1,1.183,3.116l-19.035,40.213a1.552,1.552,0,0,1-2.782.042l-32.557-63.647a3.9,3.9,0,0,1,0-3.544l32.529-63.68a1.524,1.524,0,0,1,1.381-.842m0-1.156a2.675,2.675,0,0,0-2.411,1.473l-32.528,63.679a5.049,5.049,0,0,0,0,4.6l32.558,63.646a2.709,2.709,0,0,0,4.856-.074l19.034-40.213a3.47,3.47,0,0,0-1.77-4.671l-39.224-16.915a4.423,4.423,0,0,1,.007-8.134l39.28-16.869a3.471,3.471,0,0,0,1.773-4.677l-19.13-40.3a2.674,2.674,0,0,0-2.446-1.543Z" transform="translate(-3163.19 -116.129)" fill="#f1f2f6"/>
    <path id="Caminho_13621" data-name="Caminho 13621" d="M3245.7,691.9h0a1.523,1.523,0,0,1,1.379.842l32.558,63.647a3.912,3.912,0,0,1,0,3.545l-32.527,63.679a1.555,1.555,0,0,1-2.785-.04l-19.129-40.3a2.284,2.284,0,0,1-.075-1.805,2.308,2.308,0,0,1,1.26-1.315l39.28-16.869a5.579,5.579,0,0,0,.006-10.257l-39.222-16.915a2.31,2.31,0,0,1-1.257-1.314,2.285,2.285,0,0,1,.073-1.8l19.034-40.213a1.52,1.52,0,0,1,1.4-.884m0-1.155a2.673,2.673,0,0,0-2.447,1.546L3224.219,732.5a3.468,3.468,0,0,0,1.77,4.672l39.222,16.915a4.423,4.423,0,0,1,0,8.134l-39.279,16.868a3.47,3.47,0,0,0-1.773,4.677l19.128,40.3a2.712,2.712,0,0,0,4.859.07l32.527-63.68a5.054,5.054,0,0,0,0-4.6l-32.557-63.647a2.673,2.673,0,0,0-2.41-1.471Z" transform="translate(-3081.094 -298.931)" fill="#f1f2f6"/>
    <path id="Caminho_13622" data-name="Caminho 13622" d="M3310.041,548.128h0a1.518,1.518,0,0,1,1.4.882l19.13,40.3a2.314,2.314,0,0,1-1.186,3.12L3290.108,609.3a5.579,5.579,0,0,0-.008,10.257l39.222,16.915a2.313,2.313,0,0,1,1.183,3.115L3311.472,679.8a1.553,1.553,0,0,1-2.782.042l-32.557-63.647a3.9,3.9,0,0,1,0-3.544l32.528-63.679a1.522,1.522,0,0,1,1.381-.843m0-1.156a2.673,2.673,0,0,0-2.409,1.472l-32.527,63.68a5.045,5.045,0,0,0,0,4.6l32.558,63.647a2.709,2.709,0,0,0,4.857-.074l19.034-40.213a3.471,3.471,0,0,0-1.771-4.671l-39.223-16.915a4.423,4.423,0,0,1,.006-8.134l39.279-16.868a3.471,3.471,0,0,0,1.773-4.677l-19.13-40.3a2.673,2.673,0,0,0-2.447-1.543Z" transform="translate(-3102.338 -238.726)" fill="#f1f2f6"/>
    <path id="Caminho_13623" data-name="Caminho 13623" d="M3258.41,921.472h0a1.518,1.518,0,0,1,1.4.883l19.129,40.3a2.313,2.313,0,0,1-1.186,3.119l-39.279,16.868a5.579,5.579,0,0,0-.008,10.257l39.223,16.916a2.315,2.315,0,0,1,1.183,3.116l-19.034,40.213a1.554,1.554,0,0,1-2.783.042L3224.5,989.538a3.905,3.905,0,0,1,0-3.545l32.527-63.679a1.525,1.525,0,0,1,1.381-.843m0-1.156a2.674,2.674,0,0,0-2.41,1.473l-32.528,63.679a5.044,5.044,0,0,0,0,4.6l32.556,63.646a2.709,2.709,0,0,0,4.857-.074l19.034-40.213a3.471,3.471,0,0,0-1.771-4.671l-39.223-16.915a4.424,4.424,0,0,1,.006-8.135l39.28-16.869a3.47,3.47,0,0,0,1.773-4.677l-19.13-40.3a2.674,2.674,0,0,0-2.447-1.542Z" transform="translate(-3080.718 -395.064)" fill="#f1f2f6"/>
    <path id="Caminho_13624" data-name="Caminho 13624" d="M3338.934,777.355h0a1.525,1.525,0,0,1,1.38.842l32.556,63.646a3.9,3.9,0,0,1,0,3.545l-32.527,63.679a1.555,1.555,0,0,1-2.784-.04l-19.128-40.3a2.312,2.312,0,0,1,1.183-3.12L3358.9,848.74a5.58,5.58,0,0,0,.007-10.257l-39.223-16.915a2.312,2.312,0,0,1-1.256-1.314,2.285,2.285,0,0,1,.075-1.8l19.032-40.213a1.519,1.519,0,0,1,1.4-.884m0-1.156a2.675,2.675,0,0,0-2.448,1.546l-19.034,40.213a3.471,3.471,0,0,0,1.771,4.671l39.222,16.915a4.423,4.423,0,0,1-.006,8.134l-39.279,16.868a3.47,3.47,0,0,0-1.772,4.677l19.128,40.3a2.71,2.71,0,0,0,4.857.07l32.529-63.679a5.049,5.049,0,0,0,0-4.6l-32.558-63.647a2.673,2.673,0,0,0-2.409-1.471Z" transform="translate(-3120.136 -334.715)" fill="#f1f2f6"/>
    <path id="Caminho_13625" data-name="Caminho 13625" d="M3403.273,633.581h0a1.519,1.519,0,0,1,1.4.883l19.129,40.3a2.313,2.313,0,0,1-1.186,3.12l-39.278,16.868a5.579,5.579,0,0,0-.008,10.257l39.222,16.915a2.311,2.311,0,0,1,1.183,3.116l-19.034,40.213a1.553,1.553,0,0,1-2.782.042l-32.558-63.646a3.9,3.9,0,0,1,0-3.545l32.529-63.679a1.522,1.522,0,0,1,1.38-.843m0-1.156a2.671,2.671,0,0,0-2.409,1.472l-32.53,63.679a5.046,5.046,0,0,0,0,4.6l32.557,63.647a2.708,2.708,0,0,0,4.855-.075l19.035-40.213a3.471,3.471,0,0,0-1.772-4.672l-39.222-16.915a4.424,4.424,0,0,1,.006-8.134l39.28-16.868a3.47,3.47,0,0,0,1.772-4.677l-19.129-40.3a2.674,2.674,0,0,0-2.447-1.543Z" transform="translate(-3141.378 -274.51)" fill="#f1f2f6"/>
  </g>
  <g id="Grupo_1417" data-name="Grupo 1417" transform="translate(253.65 0)">
    <path id="Caminho_13626" data-name="Caminho 13626" d="M3538.9,125.426h0a1.521,1.521,0,0,1,1.38.842l32.558,63.647a3.906,3.906,0,0,1,0,3.545l-32.529,63.679a1.554,1.554,0,0,1-2.783-.04L3518.4,216.8a2.315,2.315,0,0,1,1.186-3.12l39.278-16.868a5.579,5.579,0,0,0,.007-10.257l-39.222-16.915a2.314,2.314,0,0,1-1.184-3.115L3537.5,126.31a1.517,1.517,0,0,1,1.4-.884m0-1.156a2.675,2.675,0,0,0-2.447,1.546l-19.035,40.213a3.472,3.472,0,0,0,1.771,4.672l39.223,16.915a4.424,4.424,0,0,1-.006,8.134l-39.28,16.868a3.47,3.47,0,0,0-1.773,4.677l19.13,40.3a2.71,2.71,0,0,0,4.857.07l32.529-63.679a5.045,5.045,0,0,0,0-4.6l-32.557-63.647a2.673,2.673,0,0,0-2.41-1.471Z" transform="translate(-3457.523 -40.702)" fill="#f1f2f6"/>
    <path id="Caminho_13627" data-name="Caminho 13627" d="M3603.246-18.347h0a1.517,1.517,0,0,1,1.4.882l19.129,40.3a2.281,2.281,0,0,1,.074,1.8,2.305,2.305,0,0,1-1.259,1.315l-39.279,16.868a5.58,5.58,0,0,0-.007,10.257l39.223,16.915a2.305,2.305,0,0,1,1.255,1.314,2.276,2.276,0,0,1-.072,1.8l-19.035,40.213a1.552,1.552,0,0,1-2.781.042l-32.558-63.647a3.9,3.9,0,0,1,0-3.544L3601.865-17.5a1.523,1.523,0,0,1,1.381-.843m0-1.156a2.676,2.676,0,0,0-2.411,1.472l-32.529,63.679a5.047,5.047,0,0,0,0,4.6l32.558,63.647a2.709,2.709,0,0,0,4.856-.074l19.034-40.213a3.47,3.47,0,0,0-1.771-4.672l-39.223-16.915a4.423,4.423,0,0,1,.006-8.134l39.28-16.868a3.472,3.472,0,0,0,1.773-4.677l-19.129-40.3a2.678,2.678,0,0,0-2.448-1.543Z" transform="translate(-3478.767 19.503)" fill="#f1f2f6"/>
    <path id="Caminho_13628" data-name="Caminho 13628" d="M3632.138,210.88h0a1.521,1.521,0,0,1,1.378.842l32.558,63.646a3.906,3.906,0,0,1,0,3.545l-32.529,63.679a1.555,1.555,0,0,1-2.784-.04l-19.128-40.3a2.314,2.314,0,0,1,1.185-3.12l39.28-16.869a5.58,5.58,0,0,0,.007-10.257l-39.223-16.915a2.314,2.314,0,0,1-1.256-1.314,2.285,2.285,0,0,1,.073-1.8l19.034-40.213a1.519,1.519,0,0,1,1.4-.884m0-1.156a2.676,2.676,0,0,0-2.448,1.546l-19.034,40.213a3.47,3.47,0,0,0,1.771,4.672l39.222,16.915a4.423,4.423,0,0,1-.006,8.134l-39.278,16.868a3.47,3.47,0,0,0-1.773,4.677l19.13,40.3a2.71,2.71,0,0,0,4.856.07l32.528-63.679a5.048,5.048,0,0,0,0-4.6L3634.547,211.2a2.672,2.672,0,0,0-2.409-1.471Z" transform="translate(-3496.566 -76.486)" fill="#f1f2f6"/>
    <path id="Caminho_13629" data-name="Caminho 13629" d="M3696.479,67.107h0a1.519,1.519,0,0,1,1.4.883l19.13,40.3a2.314,2.314,0,0,1-1.186,3.12l-39.279,16.868a5.579,5.579,0,0,0-.007,10.257l39.221,16.915a2.313,2.313,0,0,1,1.185,3.115l-19.035,40.213a1.553,1.553,0,0,1-2.782.042l-32.557-63.646a3.907,3.907,0,0,1,0-3.545L3695.1,67.949a1.525,1.525,0,0,1,1.381-.843m0-1.156a2.675,2.675,0,0,0-2.41,1.472L3661.541,131.1a5.048,5.048,0,0,0,0,4.6l32.558,63.647a2.709,2.709,0,0,0,4.856-.074l19.034-40.213a3.468,3.468,0,0,0-1.771-4.672L3677,137.473a4.423,4.423,0,0,1,.006-8.134l39.279-16.868a3.471,3.471,0,0,0,1.773-4.677l-19.13-40.3a2.674,2.674,0,0,0-2.447-1.543Z" transform="translate(-3517.81 -16.281)" fill="#f1f2f6"/>
    <path id="Caminho_13630" data-name="Caminho 13630" d="M3486.821,503.649h0a1.524,1.524,0,0,1,1.38.842l32.556,63.647a3.9,3.9,0,0,1,0,3.544l-32.529,63.68a1.554,1.554,0,0,1-2.783-.04l-19.129-40.3a2.313,2.313,0,0,1,1.186-3.119l39.278-16.869a5.58,5.58,0,0,0,.009-10.257l-39.223-16.915a2.314,2.314,0,0,1-1.183-3.115l19.033-40.213a1.52,1.52,0,0,1,1.4-.884m0-1.156a2.673,2.673,0,0,0-2.447,1.546l-19.035,40.212a3.47,3.47,0,0,0,1.769,4.671l39.223,16.915a4.423,4.423,0,0,1-.005,8.134l-39.28,16.869a3.471,3.471,0,0,0-1.773,4.678l19.129,40.3a2.71,2.71,0,0,0,4.857.07l32.528-63.679a5.046,5.046,0,0,0,0-4.6l-32.557-63.646a2.674,2.674,0,0,0-2.409-1.472Z" transform="translate(-3435.714 -199.083)" fill="#f1f2f6"/>
    <path id="Caminho_13631" data-name="Caminho 13631" d="M3551.161,359.877h0a1.52,1.52,0,0,1,1.4.883l19.13,40.3a2.313,2.313,0,0,1-1.186,3.12l-39.281,16.869a5.58,5.58,0,0,0-.006,10.257l39.223,16.915a2.315,2.315,0,0,1,1.182,3.116l-19.034,40.213a1.553,1.553,0,0,1-2.782.042l-32.557-63.646a3.9,3.9,0,0,1,0-3.544l32.528-63.679a1.522,1.522,0,0,1,1.38-.843m0-1.155a2.675,2.675,0,0,0-2.409,1.472l-32.528,63.679a5.044,5.044,0,0,0,0,4.6l32.558,63.647a2.708,2.708,0,0,0,4.855-.074l19.034-40.213a3.47,3.47,0,0,0-1.77-4.672l-39.222-16.915a4.424,4.424,0,0,1,.006-8.134l39.28-16.868a3.47,3.47,0,0,0,1.773-4.677l-19.129-40.3a2.677,2.677,0,0,0-2.448-1.543Z" transform="translate(-3456.958 -138.878)" fill="#f1f2f6"/>
    <path id="Caminho_13632" data-name="Caminho 13632" d="M3499.531,733.221h0a1.518,1.518,0,0,1,1.4.883l19.129,40.3a2.315,2.315,0,0,1-1.184,3.12L3479.6,794.392a5.579,5.579,0,0,0-.008,10.257l39.223,16.915a2.311,2.311,0,0,1,1.257,1.314,2.287,2.287,0,0,1-.074,1.8l-19.033,40.213a1.554,1.554,0,0,1-2.783.042l-32.558-63.646a3.9,3.9,0,0,1,0-3.545l32.528-63.68a1.523,1.523,0,0,1,1.38-.842m0-1.155a2.671,2.671,0,0,0-2.409,1.472l-32.529,63.68a5.04,5.04,0,0,0,0,4.6l32.558,63.647a2.71,2.71,0,0,0,4.857-.074l19.034-40.212a3.468,3.468,0,0,0-1.771-4.671l-39.223-16.915a4.424,4.424,0,0,1,.006-8.134l39.28-16.868a3.47,3.47,0,0,0,1.773-4.677l-19.129-40.3a2.674,2.674,0,0,0-2.447-1.542Z" transform="translate(-3435.336 -295.217)" fill="#f1f2f6"/>
    <path id="Caminho_13633" data-name="Caminho 13633" d="M3580.054,589.1h0a1.522,1.522,0,0,1,1.379.841l32.558,63.647a3.9,3.9,0,0,1,0,3.545l-32.529,63.679a1.553,1.553,0,0,1-2.782-.04l-19.129-40.3a2.313,2.313,0,0,1,1.185-3.119l39.279-16.868a5.581,5.581,0,0,0,.008-10.258L3560.8,633.316a2.312,2.312,0,0,1-1.183-3.115l19.033-40.213a1.52,1.52,0,0,1,1.4-.884m0-1.156a2.674,2.674,0,0,0-2.448,1.546l-19.034,40.213a3.47,3.47,0,0,0,1.77,4.672l39.224,16.915a4.424,4.424,0,0,1-.007,8.135L3560.279,676.3a3.47,3.47,0,0,0-1.773,4.677l19.129,40.3a2.71,2.71,0,0,0,4.857.07l32.529-63.679a5.047,5.047,0,0,0,0-4.6l-32.559-63.646a2.67,2.67,0,0,0-2.407-1.472Z" transform="translate(-3474.754 -234.867)" fill="#f1f2f6"/>
    <path id="Caminho_13634" data-name="Caminho 13634" d="M3732.25,311.453h0a1.522,1.522,0,0,1,1.38.842l32.557,63.647a3.908,3.908,0,0,1,0,3.544l-32.53,63.679a1.555,1.555,0,0,1-2.784-.04l-19.129-40.3a2.315,2.315,0,0,1,1.186-3.119l39.279-16.868a5.58,5.58,0,0,0,.007-10.258L3713,355.666a2.313,2.313,0,0,1-1.183-3.116l19.034-40.213a1.518,1.518,0,0,1,1.4-.884m0-1.155a2.676,2.676,0,0,0-2.448,1.545l-19.034,40.213a3.469,3.469,0,0,0,1.771,4.672l39.222,16.915a4.424,4.424,0,0,1-.006,8.135l-39.28,16.868a3.469,3.469,0,0,0-1.772,4.677l19.128,40.3a2.711,2.711,0,0,0,4.858.07l32.528-63.679a5.045,5.045,0,0,0,0-4.6l-32.558-63.646a2.671,2.671,0,0,0-2.408-1.472Z" transform="translate(-3538.487 -118.601)" fill="#f1f2f6"/>
    <path id="Caminho_13635" data-name="Caminho 13635" d="M3436.544,879h0a1.52,1.52,0,0,1,1.378.842l32.558,63.646a3.909,3.909,0,0,1,0,3.545l-32.53,63.68a1.554,1.554,0,0,1-2.783-.041l-19.129-40.3a2.283,2.283,0,0,1-.075-1.805,2.308,2.308,0,0,1,1.26-1.315l39.279-16.868a5.58,5.58,0,0,0,.008-10.258l-39.223-16.915a2.316,2.316,0,0,1-1.184-3.116l19.035-40.212a1.515,1.515,0,0,1,1.4-.884m0-1.156a2.676,2.676,0,0,0-2.448,1.546L3415.061,919.6a3.47,3.47,0,0,0,1.771,4.671l39.223,16.916a4.424,4.424,0,0,1-.007,8.134l-39.278,16.868A3.47,3.47,0,0,0,3415,970.87l19.129,40.3a2.709,2.709,0,0,0,4.856.071l32.53-63.68a5.046,5.046,0,0,0,0-4.6l-32.557-63.647a2.675,2.675,0,0,0-2.41-1.472Z" transform="translate(-3414.66 -356.261)" fill="#f1f2f6"/>
    <path id="Caminho_13636" data-name="Caminho 13636" d="M3644.4,445.331h0a1.517,1.517,0,0,1,1.4.882l19.129,40.3a2.313,2.313,0,0,1-1.184,3.119L3624.462,506.5a5.579,5.579,0,0,0-.006,10.257l39.223,16.915a2.314,2.314,0,0,1,1.182,3.116L3645.827,577a1.554,1.554,0,0,1-2.783.042L3610.486,513.4a3.9,3.9,0,0,1,0-3.544l32.529-63.68a1.523,1.523,0,0,1,1.381-.842m0-1.156a2.672,2.672,0,0,0-2.41,1.472l-32.53,63.679a5.044,5.044,0,0,0,0,4.6l32.558,63.647a2.709,2.709,0,0,0,4.856-.074l19.032-40.212a3.468,3.468,0,0,0-1.769-4.672L3624.912,515.7a4.424,4.424,0,0,1,.006-8.134l39.281-16.869a3.47,3.47,0,0,0,1.773-4.677l-19.129-40.3a2.676,2.676,0,0,0-2.447-1.543Z" transform="translate(-3495.998 -174.662)" fill="#f1f2f6"/>
    <path id="Caminho_13637" data-name="Caminho 13637" d="M3795.238,154.335h0a1.517,1.517,0,0,1,1.4.883l19.129,40.3a2.315,2.315,0,0,1-1.185,3.12l-39.28,16.868a5.579,5.579,0,0,0-.007,10.257l39.223,16.915a2.315,2.315,0,0,1,1.183,3.116l-19.034,40.213a1.554,1.554,0,0,1-2.783.042L3761.33,222.4a3.9,3.9,0,0,1,0-3.545l32.528-63.679a1.523,1.523,0,0,1,1.381-.843m0-1.156a2.671,2.671,0,0,0-2.41,1.472L3760.3,218.331a5.049,5.049,0,0,0,0,4.6l32.559,63.647a2.708,2.708,0,0,0,4.855-.074l19.034-40.213a3.47,3.47,0,0,0-1.77-4.672L3775.757,224.7a4.423,4.423,0,0,1,.006-8.134l39.278-16.868a3.47,3.47,0,0,0,1.774-4.677l-19.13-40.3a2.674,2.674,0,0,0-2.447-1.543Z" transform="translate(-3559.165 -52.808)" fill="#f1f2f6"/>
  </g>
</svg>
