<svg xmlns="http://www.w3.org/2000/svg" width="21" height="21.164" viewBox="0 0 21 21.164">
  <path id="whatsapp" d="M13.466,12.233a6.242,6.242,0,0,1,1.333.6,5.923,5.923,0,0,1,1.224.724.58.58,0,0,1,.027.2,2.88,2.88,0,0,1-.233,1.039,1.835,1.835,0,0,1-.97.9,3.233,3.233,0,0,1-1.395.363,7.386,7.386,0,0,1-2.6-.848A7.8,7.8,0,0,1,8.531,13.6a18.03,18.03,0,0,1-2.023-2.53,4.781,4.781,0,0,1-.97-2.652V8.309a3.024,3.024,0,0,1,1.012-2.16,1.034,1.034,0,0,1,.711-.3,2.16,2.16,0,0,1,.246.021,2.2,2.2,0,0,0,.259.021.562.562,0,0,1,.362.089.986.986,0,0,1,.212.376q.109.273.451,1.2a8.124,8.124,0,0,1,.342,1.026,1.389,1.389,0,0,1-.472.786q-.472.5-.472.635a.39.39,0,0,0,.068.2,6.164,6.164,0,0,0,1.395,1.873,8.725,8.725,0,0,0,2.064,1.381.605.605,0,0,0,.3.1q.2,0,.738-.663t.711-.663ZM10.691,19.48a8.358,8.358,0,0,0,3.329-.684,8.455,8.455,0,0,0,4.573-4.573,8.449,8.449,0,0,0,0-6.659,8.455,8.455,0,0,0-4.573-4.573,8.449,8.449,0,0,0-6.659,0A8.455,8.455,0,0,0,2.789,7.564a8.5,8.5,0,0,0,.957,8.361L2.666,19.11l3.309-1.052a8.407,8.407,0,0,0,4.716,1.422Zm0-18.895a10.017,10.017,0,0,1,4,.82A10.19,10.19,0,0,1,20.18,6.895a10.157,10.157,0,0,1,0,8,10.19,10.19,0,0,1-5.489,5.489,10.011,10.011,0,0,1-4,.82A10.151,10.151,0,0,1,5.7,19.917L0,21.749l1.859-5.537A10.249,10.249,0,0,1,1.2,6.895,10.19,10.19,0,0,1,6.693,1.405a10,10,0,0,1,4-.82Z" transform="translate(0 -0.585)" fill="#f1f2f6"/>
</svg>
