<svg xmlns="http://www.w3.org/2000/svg" width="23.424" height="23.424" viewBox="0 0 23.424 23.424">
  <path id="linkedin" d="M0,0V23.424H23.424V0ZM5.745,4.6A1.834,1.834,0,0,1,7.626,6.363,1.821,1.821,0,0,1,5.721,8.122H5.695A1.83,1.83,0,0,1,3.838,6.363,1.846,1.846,0,0,1,5.745,4.6ZM15.7,9.26a3.754,3.754,0,0,1,2.774,1.115,5.254,5.254,0,0,1,1.115,3.465v5.844H16.218V14.238c-.008-1.021-.357-2.262-1.709-2.3a1.922,1.922,0,0,0-1.733,1.238,2.207,2.207,0,0,0-.124.817v5.7H9.286c.013-2.847.031-5.695.024-8.543q0-1.213-.024-1.634h3.367v1.435a4.539,4.539,0,0,1,1.028-1.1A3.486,3.486,0,0,1,15.7,9.261ZM4.036,9.509H7.4V19.685H4.036V9.509Z" fill="#f1f2f6"/>
</svg>
